<svg xmlns="http://www.w3.org/2000/svg" viewBox="25.9 3.5 212.0 154.2" role="img" aria-label="Burpee" xmlns:c2pa="http://c2pa.org/manifest"><metadata><c2pa:manifest>AAAWgmp1bWIAAAAeanVtZGMycGEAEQAQgAAAqgA4m3EDYzJwYQAAABZcanVtYgAAAEdqdW1kYzJtYQARABCAAACqADibcQN1cm46YzJwYTo0N2NhZmFlZC0xZTg0LTQ5MDItYjM1OC01MGIyMzRiMDRlZTkAAAADl2p1bWIAAAApanVtZGMyYXMAEQAQgAAAqgA4m3EDYzJwYS5hc3NlcnRpb25zAAAAALxqdW1iAAAARGp1bWRjYm9yABEAEIAAAKoAOJtxE2MycGEuaW5ncmVkaWVudC52MwAAAAAYYzJzaAYeDfzMvTe3OQFIlb69nJsAAABwY2JvcqNpZGM6Zm9ybWF0bWltYWdlL3N2Zyt4bWxqaW5zdGFuY2VJRHgseG1wOmlpZDpjNmQwYWE3Mi0zZGNmLTRlMDktYTliNC0wMzQ0YjMyOGEzZDNscmVsYXRpb25zaGlwaHBhcmVudE9mAAAB4mp1bWIAAABBanVtZGNib3IAEQAQgAAAqgA4m3ETYzJwYS5hY3Rpb25zLnYyAAAAABhjMnNoKc43JcZLBsUEuWtchOTqnQAAAZljYm9yomdhY3Rpb25zgqJmYWN0aW9ua2MycGEub3BlbmVkanBhcmFtZXRlcnOha2luZ3JlZGllbnRzgaJjdXJseC1zZWxmI2p1bWJmPWMycGEuYXNzZXJ0aW9ucy9jMnBhLmluZ3JlZGllbnQudjNkaGFzaFggLnTYmAyWv7BY9I3BVeU6OQHnbbFn9vQjdUXIt47c4BGkZmFjdGlvbngdY29tLmFudGhyb3BpYy5jbGF1ZGUucHJvdmlkZWRqcGFyYW1ldGVyc6F4H2NvbS5hbnRocm9waWMub3JpZ2luLWNvbmZpZGVuY2VndW5rbm93bmtkZXNjcmlwdGlvbnhmQ2xhdWRlIHByb3ZpZGVkIHRoaXMgZmlsZSBhdCB0aGUgcmVxdWVzdCBvZiBhIHVzZXIgYW5kIG1heSBoYXZlIGNyZWF0ZWQgb3IgbW9kaWZpZWQgdGhlIGZpbGUgY29udGVudHMubXNvZnR3YXJlQWdlbnShZG5hbWVmQ2xhdWRlcmFsbEFjdGlvbnNJbmNsdWRlZPUAAADIanVtYgAAAEBqdW1kY2JvcgARABCAAACqADibcRNjMnBhLmhhc2guZGF0YQAAAAAYYzJzaLOBwX6dEPumqJxVRdYrfPoAAACAY2JvcqVjYWxnZnNoYTI1NmNwYWRNAAAAAAAAAAAAAAAAAGRoYXNoWCCFvRfurwk4R7fLXtvJQ/a7zCx/VfvRD0EHmnOLymA8FGRuYW1lbmp1bWJmIG1hbmlmZXN0amV4Y2x1c2lvbnOBomVzdGFydBilZmxlbmd0aBkeBAAAAj5qdW1iAAAAJ2p1bWRjMmNsABEAEIAAAKoAOJtxA2MycGEuY2xhaW0udjIAAAACD2Nib3KlY2FsZ2ZzaGEyNTZpc2lnbmF0dXJleE1zZWxmI2p1bWJmPS9jMnBhL3VybjpjMnBhOjQ3Y2FmYWVkLTFlODQtNDkwMi1iMzU4LTUwYjIzNGIwNGVlOS9jMnBhLnNpZ25hdHVyZWppbnN0YW5jZUlEeCx4bXA6aWlkOjY2OGIxMzNjLWM1MzQtNDdhZi05MmRjLTc2NWIzNTc0ODY5NnJjcmVhdGVkX2Fzc2VydGlvbnODomN1cmx4LXNlbGYjanVtYmY9YzJwYS5hc3NlcnRpb25zL2MycGEuaW5ncmVkaWVudC52M2RoYXNoWCAudNiYDJa/sFj0jcFV5To5AedtsWf29CN1Rci3jtzgEaJjdXJseCpzZWxmI2p1bWJmPWMycGEuYXNzZXJ0aW9ucy9jMnBhLmFjdGlvbnMudjJkaGFzaFggM8q6MLMJHJdIvLemIdd68XDmQtcShv0wCQfGa1OQCaWiY3VybHgpc2VsZiNqdW1iZj1jMnBhLmFzc2VydGlvbnMvYzJwYS5oYXNoLmRhdGFkaGFzaFggBEjWetwJS0e6GlANY16RPgzXRIF4SP+uppyDNfqUxNl0Y2xhaW1fZ2VuZXJhdG9yX2luZm+jZG5hbWVvQW50aHJvcGljIEZpbGVzZ3ZlcnNpb25lMS4wLjBrc3BlY1ZlcnNpb25lMi40LjAAABA4anVtYgAAAChqdW1kYzJjcwARABCAAACqADibcQNjMnBhLnNpZ25hdHVyZQAAABAIY2JvctKEWQISogEmGCFZAgowggIGMIIBjaADAgECAhRA5aAK7sI50L64g/oGQgU9Z1UTADAKBggqhkjOPQQDAzBJMRcwFQYDVQQKEw5BbnRocm9waWMsIFBCQzEuMCwGA1UEAxMlQW50aHJvcGljIENvbnRlbnQgQ3JlZGVudGlhbHMgUm9vdCBDQTAeFw0yNjA4MDcxODQzNTZaFw0yODA4MDYxOTQzNTZaMEQxFzAVBgNVBAoTDkFudGhyb3BpYywgUEJDMSkwJwYDVQQDEyBBbnRocm9waWMgQ2xhdWRlIENvbnRlbnQgU2lnbmluZzBZMBMGByqGSM49AgEGCCqGSM49AwEHA0IABJh6CmvLUBgFFNU0vUKlOVtE6djd17L5SuwX0LemFisBM3dkd/3cyjxFA3Qo5S46fX0/ihY0VZ7mfb9KF703t5OjWDBWMA4GA1UdDwEB/wQEAwIHgDAVBgNVHSUEDjAMBgorBgEEAYPoXgIBMAwGA1UdEwEB/wQCMAAwHwYDVR0jBBgwFoAUzlHiBIFOZFsj+OPEz5o+nMHXXMIwCgYIKoZIzj0EAwMDZwAwZAIwMXMdFJ4BetLLVY7ORuE9noqbbAZOZn/aArXyTwFAZfKrPzxF2vPoJNf1+UCdg1XGAjBwX1zd9WGqYkqmL5SFqw1QySjr1zJfpJM9+1rdDwSPLMOPOjKuiXjoU/pUUeG9RwmhY3BhZFkNngAAAAAAAAAAAAAAAAAAAAAAAAAAAAAAAAAAAAAAAAAAAAAAAAAAAAAAAAAAAAAAAAAAAAAAAAAAAAAAAAAAAAAAAAAAAAAAAAAAAAAAAAAAAAAAAAAAAAAAAAAAAAAAAAAAAAAAAAAAAAAAAAAAAAAAAAAAAAAAAAAAAAAAAAAAAAAAAAAAAAAAAAAAAAAAAAAAAAAAAAAAAAAAAAAAAAAAAAAAAAAAAAAAAAAAAAAAAAAAAAAAAAAAAAAAAAAAAAAAAAAAAAAAAAAAAAAAAAAAAAAAAAAAAAAAAAAAAAAAAAAAAAAAAAAAAAAAAAAAAAAAAAAAAAAAAAAAAAAAAAAAAAAAAAAAAAAAAAAAAAAAAAAAAAAAAAAAAAAAAAAAAAAAAAAAAAAAAAAAAAAAAAAAAAAAAAAAAAAAAAAAAAAAAAAAAAAAAAAAAAAAAAAAAAAAAAAAAAAAAAAAAAAAAAAAAAAAAAAAAAAAAAAAAAAAAAAAAAAAAAAAAAAAAAAAAAAAAAAAAAAAAAAAAAAAAAAAAAAAAAAAAAAAAAAAAAAAAAAAAAAAAAAAAAAAAAAAAAAAAAAAAAAAAAAAAAAAAAAAAAAAAAAAAAAAAAAAAAAAAAAAAAAAAAAAAAAAAAAAAAAAAAAAAAAAAAAAAAAAAAAAAAAAAAAAAAAAAAAAAAAAAAAAAAAAAAAAAAAAAAAAAAAAAAAAAAAAAAAAAAAAAAAAAAAAAAAAAAAAAAAAAAAAAAAAAAAAAAAAAAAAAAAAAAAAAAAAAAAAAAAAAAAAAAAAAAAAAAAAAAAAAAAAAAAAAAAAAAAAAAAAAAAAAAAAAAAAAAAAAAAAAAAAAAAAAAAAAAAAAAAAAAAAAAAAAAAAAAAAAAAAAAAAAAAAAAAAAAAAAAAAAAAAAAAAAAAAAAAAAAAAAAAAAAAAAAAAAAAAAAAAAAAAAAAAAAAAAAAAAAAAAAAAAAAAAAAAAAAAAAAAAAAAAAAAAAAAAAAAAAAAAAAAAAAAAAAAAAAAAAAAAAAAAAAAAAAAAAAAAAAAAAAAAAAAAAAAAAAAAAAAAAAAAAAAAAAAAAAAAAAAAAAAAAAAAAAAAAAAAAAAAAAAAAAAAAAAAAAAAAAAAAAAAAAAAAAAAAAAAAAAAAAAAAAAAAAAAAAAAAAAAAAAAAAAAAAAAAAAAAAAAAAAAAAAAAAAAAAAAAAAAAAAAAAAAAAAAAAAAAAAAAAAAAAAAAAAAAAAAAAAAAAAAAAAAAAAAAAAAAAAAAAAAAAAAAAAAAAAAAAAAAAAAAAAAAAAAAAAAAAAAAAAAAAAAAAAAAAAAAAAAAAAAAAAAAAAAAAAAAAAAAAAAAAAAAAAAAAAAAAAAAAAAAAAAAAAAAAAAAAAAAAAAAAAAAAAAAAAAAAAAAAAAAAAAAAAAAAAAAAAAAAAAAAAAAAAAAAAAAAAAAAAAAAAAAAAAAAAAAAAAAAAAAAAAAAAAAAAAAAAAAAAAAAAAAAAAAAAAAAAAAAAAAAAAAAAAAAAAAAAAAAAAAAAAAAAAAAAAAAAAAAAAAAAAAAAAAAAAAAAAAAAAAAAAAAAAAAAAAAAAAAAAAAAAAAAAAAAAAAAAAAAAAAAAAAAAAAAAAAAAAAAAAAAAAAAAAAAAAAAAAAAAAAAAAAAAAAAAAAAAAAAAAAAAAAAAAAAAAAAAAAAAAAAAAAAAAAAAAAAAAAAAAAAAAAAAAAAAAAAAAAAAAAAAAAAAAAAAAAAAAAAAAAAAAAAAAAAAAAAAAAAAAAAAAAAAAAAAAAAAAAAAAAAAAAAAAAAAAAAAAAAAAAAAAAAAAAAAAAAAAAAAAAAAAAAAAAAAAAAAAAAAAAAAAAAAAAAAAAAAAAAAAAAAAAAAAAAAAAAAAAAAAAAAAAAAAAAAAAAAAAAAAAAAAAAAAAAAAAAAAAAAAAAAAAAAAAAAAAAAAAAAAAAAAAAAAAAAAAAAAAAAAAAAAAAAAAAAAAAAAAAAAAAAAAAAAAAAAAAAAAAAAAAAAAAAAAAAAAAAAAAAAAAAAAAAAAAAAAAAAAAAAAAAAAAAAAAAAAAAAAAAAAAAAAAAAAAAAAAAAAAAAAAAAAAAAAAAAAAAAAAAAAAAAAAAAAAAAAAAAAAAAAAAAAAAAAAAAAAAAAAAAAAAAAAAAAAAAAAAAAAAAAAAAAAAAAAAAAAAAAAAAAAAAAAAAAAAAAAAAAAAAAAAAAAAAAAAAAAAAAAAAAAAAAAAAAAAAAAAAAAAAAAAAAAAAAAAAAAAAAAAAAAAAAAAAAAAAAAAAAAAAAAAAAAAAAAAAAAAAAAAAAAAAAAAAAAAAAAAAAAAAAAAAAAAAAAAAAAAAAAAAAAAAAAAAAAAAAAAAAAAAAAAAAAAAAAAAAAAAAAAAAAAAAAAAAAAAAAAAAAAAAAAAAAAAAAAAAAAAAAAAAAAAAAAAAAAAAAAAAAAAAAAAAAAAAAAAAAAAAAAAAAAAAAAAAAAAAAAAAAAAAAAAAAAAAAAAAAAAAAAAAAAAAAAAAAAAAAAAAAAAAAAAAAAAAAAAAAAAAAAAAAAAAAAAAAAAAAAAAAAAAAAAAAAAAAAAAAAAAAAAAAAAAAAAAAAAAAAAAAAAAAAAAAAAAAAAAAAAAAAAAAAAAAAAAAAAAAAAAAAAAAAAAAAAAAAAAAAAAAAAAAAAAAAAAAAAAAAAAAAAAAAAAAAAAAAAAAAAAAAAAAAAAAAAAAAAAAAAAAAAAAAAAAAAAAAAAAAAAAAAAAAAAAAAAAAAAAAAAAAAAAAAAAAAAAAAAAAAAAAAAAAAAAAAAAAAAAAAAAAAAAAAAAAAAAAAAAAAAAAAAAAAAAAAAAAAAAAAAAAAAAAAAAAAAAAAAAAAAAAAAAAAAAAAAAAAAAAAAAAAAAAAAAAAAAAAAAAAAAAAAAAAAAAAAAAAAAAAAAAAAAAAAAAAAAAAAAAAAAAAAAAAAAAAAAAAAAAAAAAAAAAAAAAAAAAAAAAAAAAAAAAAAAAAAAAAAAAAAAAAAAAAAAAAAAAAAAAAAAAAAAAAAAAAAAAAAAAAAAAAAAAAAAAAAAAAAAAAAAAAAAAAAAAAAAAAAAAAAAAAAAAAAAAAAAAAAAAAAAAAAAAAAAAAAAAAAAAAAAAAAAAAAAAAAAAAAAAAAAAAAAAAAAAAAAAAAAAAAAAAAAAAAAAAAAAAAAAAAAAAAAAAAAAAAAAAAAAAAAAAAAAAAAAAAAAAAAAAAAAAAAAAAAAAAAAAAAAAAAAAAAAAAAAAAAAAAAAAAAAAAAAAAAAAAAAAAAAAAAAAAAAAAAAAAAAAAAAAAAAAAAAAAAAAAAAAAAAAAAAAAAAAAAAAAAAAAAAAAAAAAAAAAAAAAAAAAAAAAAAAAAAAAAAAAAAAAAAAAAAAAAAAAAAAAAAAAAAAAAAAAAAAAAAAAAAAAAAAAAAAAAAAAAAAAAAAAAAAAAAAAAAAAAAAAAAAAAAAAAAAAAAAAAAAAAAAAAAAAAAAAAAAAAAAAAAAAAAAAAAAAAAAAAAAAAAAAAAAAAAAAAAAAAAAAAAAAAAAAAAAAAAAAAAAAAAAAAAAAAAAAAAAAAAAAAAAAAAAAAAAAAAAAAAAAAAAAAAAAAAAAAAAAAAAAAAAAAAAAAAAAAAAAAAAAAAAAAAAAAAAAAAAAAAAAAAAAAAAAAAAAAAAAAAAAAAAAAAAAAAAAAAAAAAAAAAAAAAAAAAAAAAAAAAAAAAAAAAAAAAAAAAAAAAAAAAAAAAAAAAAAAAAAAAAAAAAAAAAAAAAAAAAAAAAAAAAAAAAAAAAAAAAAAAAAAAAAAAAAAAAAAAAAAAAAAAAAAAAAAAAAAAAAAAAAAAAAAAAAAAAAAAAAAAAAAAAAAAAAAAAAAAAAAAAAAAAAAAAAAAAAAAAAAAAAAAAAAAAAAAAAAAAAAAAAAAAAAAAAAAAAAAAAAAAAAAAAAAAAAAAAAAAAAAAAAAAAAAAAAAAAAAAAAAAAAAAAAAAAAAAAAAAAAAAAAAAAAAAAAAAAAAAAAAAAAAAAAAAAAAAAAAAAAAAAAAAAAAAAAAAAAAAAAAAAAAAAAAAAAAAAAAAAAAAAAAAAAAAAAAAAAAAAAAAAAAAAAAAAAAAAAAAAAAAAAAAAAAAAAAAAAAAAAAAAAAAAAAAAAAAAAAAAAAAAAAAAAAAAAAAAAAAAAAAAAAAAAAAAAAAAAAAAAAAAAAAAAAAAAAAAAAAAAAAAAAAAAAAAAAAAAAAAAAAAAAAAAAAAAAAAAAAAAAAAAAAAAAAAAAAAAAAAAAAAAAAAAAAAAAAAAAAAAAAAAAAAAAAAAAAAAAAAAAAAAAAAAAAAAAAAAAAAAAAAAAAAAAAAAAAAAAAAAAAAAAAAAAAAAAAAAAAAAAAAAAAAAAAAAAAAAAAAAAAAAAAAAAAAAAAAAAAAAAAAAAAAAAAAAAAAAAAAAAAAAAAAAAAAAAAAAAAAAAAAAAAAAAAAAAAAAAAAAAAAAAAAAAAAAAAAAAAAAAAAAAAAAAAAAAAAAAAAAAAAAAAAAAAAAAAAAAAAAAAAAAAAAAAAAAAAAAAAAAAAAAAAAAAAAAAAAAAAAAAAAAAAAAAAAAAAAAAAAAAAAAAAAAAAAAAAAAAAAAAAAAAAAAAAAAAAAAAAAAAAAAAAAAAAAAPZYQNfmhoOGPEfTxNSKcyDOkr4ruJvIoxegBcLn55hZziUA00u+LFQSjYc1A8UI17FuZ6y25xzAKBNj4yh9xy7MGSE=</c2pa:manifest></metadata><title>Burpee</title><path d="M36.5 140 L227.3 140" stroke="#cfd8cb" stroke-width="4.32" stroke-linecap="round" fill="none"/><path d="M56.3 82.3 L59.6 112.2 L70.5 111.8 L71.7 81.7 Z" fill="#cdd9c7" opacity="1.0"/><circle cx="64.0" cy="82.0" r="7.8" fill="#cdd9c7" opacity="1.0"/><circle cx="65.0" cy="112.0" r="5.5" fill="#cdd9c7" opacity="1.0"/><path d="M59.6 112.4 L63.3 140.2 L70.7 139.7 L70.5 111.6 Z" fill="#cdd9c7" opacity="1.0"/><circle cx="65.0" cy="112.0" r="5.5" fill="#cdd9c7" opacity="1.0"/><circle cx="67.0" cy="139.9" r="3.8" fill="#cdd9c7" opacity="1.0"/><path d="M67.0 144.2 L79.0 142.9 L79.0 136.9 L67.0 135.7 Z" fill="#bdcbb7" opacity="1.0"/><circle cx="67.0" cy="139.9" r="4.2" fill="#bdcbb7" opacity="1.0"/><circle cx="79.0" cy="139.9" r="3.0" fill="#bdcbb7" opacity="1.0"/><path d="M55.3 82.3 L58.0 97.2 L71.0 96.8 L72.7 81.7 Z" fill="#bdcbb7" opacity="1.0"/><circle cx="64.0" cy="82.0" r="8.8" fill="#bdcbb7" opacity="1.0"/><circle cx="64.5" cy="97.0" r="6.5" fill="#bdcbb7" opacity="1.0"/><path d="M58.6 42.8 L63.1 66.4 L71.5 65.2 L69.4 41.3 Z" fill="#cdd9c7" opacity="1.0"/><circle cx="64.0" cy="42.0" r="5.5" fill="#cdd9c7" opacity="1.0"/><circle cx="67.3" cy="65.8" r="4.2" fill="#cdd9c7" opacity="1.0"/><path d="M63.1 66.1 L65.6 88.0 L72.1 87.5 L71.6 65.5 Z" fill="#cdd9c7" opacity="1.0"/><circle cx="67.3" cy="65.8" r="4.2" fill="#cdd9c7" opacity="1.0"/><circle cx="68.9" cy="87.7" r="3.2" fill="#cdd9c7" opacity="1.0"/><circle cx="68.9" cy="87.7" r="4.2" fill="#cdd9c7" opacity="1.0"/><path d="M57.6 42.9 L60.7 54.6 L70.6 53.2 L70.4 41.1 Z" fill="#bdcbb7" opacity="1.0"/><circle cx="64.0" cy="42.0" r="6.5" fill="#bdcbb7" opacity="1.0"/><circle cx="65.7" cy="53.9" r="5.0" fill="#bdcbb7" opacity="1.0"/><path d="M72.0 82.0 L74.0 42.0 L54.0 42.0 L56.0 82.0 Z" fill="#bdcbb7" opacity="1.0"/><circle cx="64.0" cy="82.0" r="8.0" fill="#bdcbb7" opacity="1.0"/><circle cx="64.0" cy="42.0" r="10.0" fill="#bdcbb7" opacity="1.0"/><path d="M72.5 82.0 L72.5 73.2 L55.5 73.2 L55.5 82.0 Z" fill="#bdcbb7" opacity="1.0"/><circle cx="64.0" cy="82.0" r="8.5" fill="#bdcbb7" opacity="1.0"/><circle cx="64.0" cy="73.2" r="8.5" fill="#bdcbb7" opacity="1.0"/><path d="M56.3 81.7 L57.5 111.8 L68.4 112.2 L71.7 82.3 Z" fill="#cdd9c7" opacity="1.0"/><circle cx="64.0" cy="82.0" r="7.8" fill="#cdd9c7" opacity="1.0"/><circle cx="63.0" cy="112.0" r="5.5" fill="#cdd9c7" opacity="1.0"/><path d="M57.5 112.0 L59.2 140.0 L66.7 140.0 L68.5 112.0 Z" fill="#cdd9c7" opacity="1.0"/><circle cx="63.0" cy="112.0" r="5.5" fill="#cdd9c7" opacity="1.0"/><circle cx="63.0" cy="140.0" r="3.8" fill="#cdd9c7" opacity="1.0"/><path d="M63.0 144.2 L75.0 143.0 L75.0 137.0 L63.0 135.8 Z" fill="#bdcbb7" opacity="1.0"/><circle cx="63.0" cy="140.0" r="4.2" fill="#bdcbb7" opacity="1.0"/><circle cx="75.0" cy="140.0" r="3.0" fill="#bdcbb7" opacity="1.0"/><path d="M55.3 81.7 L57.0 96.8 L70.0 97.2 L72.7 82.3 Z" fill="#bdcbb7" opacity="1.0"/><circle cx="64.0" cy="82.0" r="8.8" fill="#bdcbb7" opacity="1.0"/><circle cx="63.5" cy="97.0" r="6.5" fill="#bdcbb7" opacity="1.0"/><path d="M58.6 41.3 L56.5 65.2 L64.9 66.4 L69.4 42.8 Z" fill="#cdd9c7" opacity="1.0"/><circle cx="64.0" cy="42.0" r="5.5" fill="#cdd9c7" opacity="1.0"/><circle cx="60.7" cy="65.8" r="4.2" fill="#cdd9c7" opacity="1.0"/><path d="M56.4 65.5 L55.9 87.5 L62.4 88.0 L64.9 66.1 Z" fill="#cdd9c7" opacity="1.0"/><circle cx="60.7" cy="65.8" r="4.2" fill="#cdd9c7" opacity="1.0"/><circle cx="59.1" cy="87.7" r="3.2" fill="#cdd9c7" opacity="1.0"/><circle cx="59.1" cy="87.7" r="4.2" fill="#cdd9c7" opacity="1.0"/><path d="M57.6 41.1 L57.4 53.2 L67.3 54.6 L70.4 42.9 Z" fill="#bdcbb7" opacity="1.0"/><circle cx="64.0" cy="42.0" r="6.5" fill="#bdcbb7" opacity="1.0"/><circle cx="62.3" cy="53.9" r="5.0" fill="#bdcbb7" opacity="1.0"/><path d="M68.2 42.0 L68.0 37.0 L60.0 37.0 L59.8 42.0 Z" fill="#cdd9c7" opacity="1.0"/><circle cx="64.0" cy="42.0" r="4.2" fill="#cdd9c7" opacity="1.0"/><circle cx="64.0" cy="37.0" r="4.0" fill="#cdd9c7" opacity="1.0"/><circle cx="64.0" cy="26.1" r="11.0" fill="#bdcbb7" opacity="1.0"/><circle cx="67.6" cy="27.5" r="9.3" fill="#cdd9c7" opacity="1.0"/><path d="M146.6 99.4 L120.6 114.6 L125.4 124.5 L153.4 113.4 Z" fill="#cfa87f" opacity="1.0"/><circle cx="150.0" cy="106.4" r="7.8" fill="#cfa87f" opacity="1.0"/><circle cx="123.0" cy="119.6" r="5.5" fill="#cfa87f" opacity="1.0"/><path d="M120.5 114.7 L96.6 129.4 L100.1 136.0 L125.6 124.4 Z" fill="#cfa87f" opacity="1.0"/><circle cx="123.0" cy="119.6" r="5.5" fill="#cfa87f" opacity="1.0"/><circle cx="98.3" cy="132.7" r="3.8" fill="#cfa87f" opacity="1.0"/><path d="M94.4 134.4 L100.5 144.9 L105.9 142.4 L102.2 131.0 Z" fill="#9cba76" opacity="1.0"/><circle cx="98.3" cy="132.7" r="4.2" fill="#9cba76" opacity="1.0"/><circle cx="103.2" cy="143.7" r="3.0" fill="#9cba76" opacity="1.0"/><path d="M146.2 98.5 L133.7 107.1 L139.4 118.8 L153.8 114.3 Z" fill="#1d3325" opacity="1.0"/><circle cx="150.0" cy="106.4" r="8.8" fill="#1d3325" opacity="1.0"/><circle cx="136.5" cy="113.0" r="6.5" fill="#1d3325" opacity="1.0"/><path d="M181.0 90.3 L183.1 114.3 L191.6 114.0 L192.0 89.9 Z" fill="#cfa87f" opacity="1.0"/><circle cx="186.5" cy="90.1" r="5.5" fill="#cfa87f" opacity="1.0"/><circle cx="187.4" cy="114.1" r="4.2" fill="#cfa87f" opacity="1.0"/><path d="M183.1 114.4 L185.7 136.3 L192.2 135.8 L191.6 113.8 Z" fill="#cfa87f" opacity="1.0"/><circle cx="187.4" cy="114.1" r="4.2" fill="#cfa87f" opacity="1.0"/><circle cx="188.9" cy="136.1" r="3.2" fill="#cfa87f" opacity="1.0"/><circle cx="188.9" cy="136.1" r="4.2" fill="#cfa87f" opacity="1.0"/><path d="M180.0 90.4 L182.0 102.3 L192.0 102.0 L193.0 89.9 Z" fill="#334d3c" opacity="1.0"/><circle cx="186.5" cy="90.1" r="6.5" fill="#334d3c" opacity="1.0"/><circle cx="187.0" cy="102.1" r="5.0" fill="#334d3c" opacity="1.0"/><path d="M153.3 113.7 L190.6 99.3 L182.5 81.0 L146.7 99.1 Z" fill="#41604b" opacity="1.0"/><circle cx="150.0" cy="106.4" r="8.0" fill="#41604b" opacity="1.0"/><circle cx="186.5" cy="90.1" r="10.0" fill="#41604b" opacity="1.0"/><path d="M153.5 114.2 L161.5 110.6 L154.6 95.1 L146.5 98.6 Z" fill="#26402f" opacity="1.0"/><circle cx="150.0" cy="106.4" r="8.5" fill="#26402f" opacity="1.0"/><circle cx="158.0" cy="102.8" r="8.5" fill="#26402f" opacity="1.0"/><path d="M147.1 99.2 L120.1 112.5 L124.2 122.7 L152.9 113.6 Z" fill="#e8c49e" opacity="1.0"/><circle cx="150.0" cy="106.4" r="7.8" fill="#e8c49e" opacity="1.0"/><circle cx="122.2" cy="117.6" r="5.5" fill="#e8c49e" opacity="1.0"/><path d="M119.9 112.6 L95.1 125.6 L98.1 132.5 L124.4 122.7 Z" fill="#e8c49e" opacity="1.0"/><circle cx="122.2" cy="117.6" r="5.5" fill="#e8c49e" opacity="1.0"/><circle cx="96.6" cy="129.0" r="3.8" fill="#e8c49e" opacity="1.0"/><path d="M92.7 130.8 L98.7 141.2 L104.2 138.8 L100.5 127.3 Z" fill="#b9d492" opacity="1.0"/><circle cx="96.6" cy="129.0" r="4.2" fill="#b9d492" opacity="1.0"/><circle cx="101.5" cy="140.0" r="3.0" fill="#b9d492" opacity="1.0"/><path d="M146.7 98.3 L133.7 106.0 L138.5 118.1 L153.3 114.5 Z" fill="#26402f" opacity="1.0"/><circle cx="150.0" cy="106.4" r="8.8" fill="#26402f" opacity="1.0"/><circle cx="136.1" cy="112.0" r="6.5" fill="#26402f" opacity="1.0"/><path d="M181.0 89.9 L181.5 114.0 L190.0 114.3 L192.0 90.3 Z" fill="#e8c49e" opacity="1.0"/><circle cx="186.5" cy="90.1" r="5.5" fill="#e8c49e" opacity="1.0"/><circle cx="185.7" cy="114.1" r="4.2" fill="#e8c49e" opacity="1.0"/><path d="M181.5 114.1 L182.5 136.1 L189.0 136.1 L190.0 114.1 Z" fill="#e8c49e" opacity="1.0"/><circle cx="185.7" cy="114.1" r="4.2" fill="#e8c49e" opacity="1.0"/><circle cx="185.7" cy="136.1" r="3.2" fill="#e8c49e" opacity="1.0"/><circle cx="185.7" cy="136.1" r="4.2" fill="#e8c49e" opacity="1.0"/><path d="M180.0 89.9 L181.1 102.0 L191.1 102.3 L193.0 90.4 Z" fill="#41604b" opacity="1.0"/><circle cx="186.5" cy="90.1" r="6.5" fill="#41604b" opacity="1.0"/><circle cx="186.1" cy="102.1" r="5.0" fill="#41604b" opacity="1.0"/><path d="M188.3 94.0 L192.7 91.8 L189.5 84.5 L184.8 86.3 Z" fill="#e8c49e" opacity="1.0"/><circle cx="186.5" cy="90.1" r="4.2" fill="#e8c49e" opacity="1.0"/><circle cx="191.1" cy="88.1" r="4.0" fill="#e8c49e" opacity="1.0"/><circle cx="201.1" cy="83.7" r="11.0" fill="#2a3b2e" opacity="1.0"/><circle cx="201.3" cy="87.5" r="9.3" fill="#e8c49e" opacity="1.0"/><path d="M97.0 46.7 A44 44 0 0 1 155.8 83.4" fill="none" stroke="#7d9a6e" stroke-width="3.2" stroke-linecap="round"/><path d="M150.4 75.5 L155.8 83.4 L159.3 74.6" fill="none" stroke="#7d9a6e" stroke-width="3.2" stroke-linecap="round" stroke-linejoin="round" opacity="1.0"/></svg>