<svg xmlns="http://www.w3.org/2000/svg" viewBox="28.7 3.9 206.4 150.1" role="img" aria-label="Dumbbell sumo squat" xmlns:c2pa="http://c2pa.org/manifest"><metadata><c2pa:manifest>AAAWgmp1bWIAAAAeanVtZGMycGEAEQAQgAAAqgA4m3EDYzJwYQAAABZcanVtYgAAAEdqdW1kYzJtYQARABCAAACqADibcQN1cm46YzJwYTo3NDAwNDE5MS02NTU5LTQzOWYtYmQ3YS05Y2Q4ODMwYWE2NmMAAAADl2p1bWIAAAApanVtZGMyYXMAEQAQgAAAqgA4m3EDYzJwYS5hc3NlcnRpb25zAAAAALxqdW1iAAAARGp1bWRjYm9yABEAEIAAAKoAOJtxE2MycGEuaW5ncmVkaWVudC52MwAAAAAYYzJzaKHnMHqgFp0AXiztbLVRCyIAAABwY2JvcqNpZGM6Zm9ybWF0bWltYWdlL3N2Zyt4bWxqaW5zdGFuY2VJRHgseG1wOmlpZDozMmU2MWQ4ZS0xMjhkLTQwMGQtYjk0Yy0zNTRhZTFiMmNjMDBscmVsYXRpb25zaGlwaHBhcmVudE9mAAAB4mp1bWIAAABBanVtZGNib3IAEQAQgAAAqgA4m3ETYzJwYS5hY3Rpb25zLnYyAAAAABhjMnNov4fg8lk2tAgTo65VsWS9RAAAAZljYm9yomdhY3Rpb25zgqJmYWN0aW9ua2MycGEub3BlbmVkanBhcmFtZXRlcnOha2luZ3JlZGllbnRzgaJjdXJseC1zZWxmI2p1bWJmPWMycGEuYXNzZXJ0aW9ucy9jMnBhLmluZ3JlZGllbnQudjNkaGFzaFggtW9JdrGB2p20MCVADB4NpUp/BeH64t3NtYvbJs638b6kZmFjdGlvbngdY29tLmFudGhyb3BpYy5jbGF1ZGUucHJvdmlkZWRqcGFyYW1ldGVyc6F4H2NvbS5hbnRocm9waWMub3JpZ2luLWNvbmZpZGVuY2VndW5rbm93bmtkZXNjcmlwdGlvbnhmQ2xhdWRlIHByb3ZpZGVkIHRoaXMgZmlsZSBhdCB0aGUgcmVxdWVzdCBvZiBhIHVzZXIgYW5kIG1heSBoYXZlIGNyZWF0ZWQgb3IgbW9kaWZpZWQgdGhlIGZpbGUgY29udGVudHMubXNvZnR3YXJlQWdlbnShZG5hbWVmQ2xhdWRlcmFsbEFjdGlvbnNJbmNsdWRlZPUAAADIanVtYgAAAEBqdW1kY2JvcgARABCAAACqADibcRNjMnBhLmhhc2guZGF0YQAAAAAYYzJzaLsIMvqtEZssQtunLFbgp38AAACAY2JvcqVjYWxnZnNoYTI1NmNwYWRNAAAAAAAAAAAAAAAAAGRoYXNoWCAIgR9qGLKE2lWt6sPgKs27Xo/HYW32vuMRWqqNa7KvY2RuYW1lbmp1bWJmIG1hbmlmZXN0amV4Y2x1c2lvbnOBomVzdGFydBiyZmxlbmd0aBkeBAAAAj5qdW1iAAAAJ2p1bWRjMmNsABEAEIAAAKoAOJtxA2MycGEuY2xhaW0udjIAAAACD2Nib3KlY2FsZ2ZzaGEyNTZpc2lnbmF0dXJleE1zZWxmI2p1bWJmPS9jMnBhL3VybjpjMnBhOjc0MDA0MTkxLTY1NTktNDM5Zi1iZDdhLTljZDg4MzBhYTY2Yy9jMnBhLnNpZ25hdHVyZWppbnN0YW5jZUlEeCx4bXA6aWlkOjUwOGY2NDBiLTUyYjUtNDVmZC1hMjFmLWY4ZGEwMjk2YWZlZHJjcmVhdGVkX2Fzc2VydGlvbnODomN1cmx4LXNlbGYjanVtYmY9YzJwYS5hc3NlcnRpb25zL2MycGEuaW5ncmVkaWVudC52M2RoYXNoWCC1b0l2sYHanbQwJUAMHg2lSn8F4fri3c21i9smzrfxvqJjdXJseCpzZWxmI2p1bWJmPWMycGEuYXNzZXJ0aW9ucy9jMnBhLmFjdGlvbnMudjJkaGFzaFgg3S8wbHADAx8jMPF+9Bg5w/LAXmF+kKhb5VXPkGbzmHCiY3VybHgpc2VsZiNqdW1iZj1jMnBhLmFzc2VydGlvbnMvYzJwYS5oYXNoLmRhdGFkaGFzaFggb6pn0qS1g7+968X1MDCgWOuZBIVeawT+n9z3Hm50zOF0Y2xhaW1fZ2VuZXJhdG9yX2luZm+jZG5hbWVvQW50aHJvcGljIEZpbGVzZ3ZlcnNpb25lMS4wLjBrc3BlY1ZlcnNpb25lMi40LjAAABA4anVtYgAAAChqdW1kYzJjcwARABCAAACqADibcQNjMnBhLnNpZ25hdHVyZQAAABAIY2JvctKEWQISogEmGCFZAgowggIGMIIBjaADAgECAhRA5aAK7sI50L64g/oGQgU9Z1UTADAKBggqhkjOPQQDAzBJMRcwFQYDVQQKEw5BbnRocm9waWMsIFBCQzEuMCwGA1UEAxMlQW50aHJvcGljIENvbnRlbnQgQ3JlZGVudGlhbHMgUm9vdCBDQTAeFw0yNjA4MDcxODQzNTZaFw0yODA4MDYxOTQzNTZaMEQxFzAVBgNVBAoTDkFudGhyb3BpYywgUEJDMSkwJwYDVQQDEyBBbnRocm9waWMgQ2xhdWRlIENvbnRlbnQgU2lnbmluZzBZMBMGByqGSM49AgEGCCqGSM49AwEHA0IABJh6CmvLUBgFFNU0vUKlOVtE6djd17L5SuwX0LemFisBM3dkd/3cyjxFA3Qo5S46fX0/ihY0VZ7mfb9KF703t5OjWDBWMA4GA1UdDwEB/wQEAwIHgDAVBgNVHSUEDjAMBgorBgEEAYPoXgIBMAwGA1UdEwEB/wQCMAAwHwYDVR0jBBgwFoAUzlHiBIFOZFsj+OPEz5o+nMHXXMIwCgYIKoZIzj0EAwMDZwAwZAIwMXMdFJ4BetLLVY7ORuE9noqbbAZOZn/aArXyTwFAZfKrPzxF2vPoJNf1+UCdg1XGAjBwX1zd9WGqYkqmL5SFqw1QySjr1zJfpJM9+1rdDwSPLMOPOjKuiXjoU/pUUeG9RwmhY3BhZFkNngAAAAAAAAAAAAAAAAAAAAAAAAAAAAAAAAAAAAAAAAAAAAAAAAAAAAAAAAAAAAAAAAAAAAAAAAAAAAAAAAAAAAAAAAAAAAAAAAAAAAAAAAAAAAAAAAAAAAAAAAAAAAAAAAAAAAAAAAAAAAAAAAAAAAAAAAAAAAAAAAAAAAAAAAAAAAAAAAAAAAAAAAAAAAAAAAAAAAAAAAAAAAAAAAAAAAAAAAAAAAAAAAAAAAAAAAAAAAAAAAAAAAAAAAAAAAAAAAAAAAAAAAAAAAAAAAAAAAAAAAAAAAAAAAAAAAAAAAAAAAAAAAAAAAAAAAAAAAAAAAAAAAAAAAAAAAAAAAAAAAAAAAAAAAAAAAAAAAAAAAAAAAAAAAAAAAAAAAAAAAAAAAAAAAAAAAAAAAAAAAAAAAAAAAAAAAAAAAAAAAAAAAAAAAAAAAAAAAAAAAAAAAAAAAAAAAAAAAAAAAAAAAAAAAAAAAAAAAAAAAAAAAAAAAAAAAAAAAAAAAAAAAAAAAAAAAAAAAAAAAAAAAAAAAAAAAAAAAAAAAAAAAAAAAAAAAAAAAAAAAAAAAAAAAAAAAAAAAAAAAAAAAAAAAAAAAAAAAAAAAAAAAAAAAAAAAAAAAAAAAAAAAAAAAAAAAAAAAAAAAAAAAAAAAAAAAAAAAAAAAAAAAAAAAAAAAAAAAAAAAAAAAAAAAAAAAAAAAAAAAAAAAAAAAAAAAAAAAAAAAAAAAAAAAAAAAAAAAAAAAAAAAAAAAAAAAAAAAAAAAAAAAAAAAAAAAAAAAAAAAAAAAAAAAAAAAAAAAAAAAAAAAAAAAAAAAAAAAAAAAAAAAAAAAAAAAAAAAAAAAAAAAAAAAAAAAAAAAAAAAAAAAAAAAAAAAAAAAAAAAAAAAAAAAAAAAAAAAAAAAAAAAAAAAAAAAAAAAAAAAAAAAAAAAAAAAAAAAAAAAAAAAAAAAAAAAAAAAAAAAAAAAAAAAAAAAAAAAAAAAAAAAAAAAAAAAAAAAAAAAAAAAAAAAAAAAAAAAAAAAAAAAAAAAAAAAAAAAAAAAAAAAAAAAAAAAAAAAAAAAAAAAAAAAAAAAAAAAAAAAAAAAAAAAAAAAAAAAAAAAAAAAAAAAAAAAAAAAAAAAAAAAAAAAAAAAAAAAAAAAAAAAAAAAAAAAAAAAAAAAAAAAAAAAAAAAAAAAAAAAAAAAAAAAAAAAAAAAAAAAAAAAAAAAAAAAAAAAAAAAAAAAAAAAAAAAAAAAAAAAAAAAAAAAAAAAAAAAAAAAAAAAAAAAAAAAAAAAAAAAAAAAAAAAAAAAAAAAAAAAAAAAAAAAAAAAAAAAAAAAAAAAAAAAAAAAAAAAAAAAAAAAAAAAAAAAAAAAAAAAAAAAAAAAAAAAAAAAAAAAAAAAAAAAAAAAAAAAAAAAAAAAAAAAAAAAAAAAAAAAAAAAAAAAAAAAAAAAAAAAAAAAAAAAAAAAAAAAAAAAAAAAAAAAAAAAAAAAAAAAAAAAAAAAAAAAAAAAAAAAAAAAAAAAAAAAAAAAAAAAAAAAAAAAAAAAAAAAAAAAAAAAAAAAAAAAAAAAAAAAAAAAAAAAAAAAAAAAAAAAAAAAAAAAAAAAAAAAAAAAAAAAAAAAAAAAAAAAAAAAAAAAAAAAAAAAAAAAAAAAAAAAAAAAAAAAAAAAAAAAAAAAAAAAAAAAAAAAAAAAAAAAAAAAAAAAAAAAAAAAAAAAAAAAAAAAAAAAAAAAAAAAAAAAAAAAAAAAAAAAAAAAAAAAAAAAAAAAAAAAAAAAAAAAAAAAAAAAAAAAAAAAAAAAAAAAAAAAAAAAAAAAAAAAAAAAAAAAAAAAAAAAAAAAAAAAAAAAAAAAAAAAAAAAAAAAAAAAAAAAAAAAAAAAAAAAAAAAAAAAAAAAAAAAAAAAAAAAAAAAAAAAAAAAAAAAAAAAAAAAAAAAAAAAAAAAAAAAAAAAAAAAAAAAAAAAAAAAAAAAAAAAAAAAAAAAAAAAAAAAAAAAAAAAAAAAAAAAAAAAAAAAAAAAAAAAAAAAAAAAAAAAAAAAAAAAAAAAAAAAAAAAAAAAAAAAAAAAAAAAAAAAAAAAAAAAAAAAAAAAAAAAAAAAAAAAAAAAAAAAAAAAAAAAAAAAAAAAAAAAAAAAAAAAAAAAAAAAAAAAAAAAAAAAAAAAAAAAAAAAAAAAAAAAAAAAAAAAAAAAAAAAAAAAAAAAAAAAAAAAAAAAAAAAAAAAAAAAAAAAAAAAAAAAAAAAAAAAAAAAAAAAAAAAAAAAAAAAAAAAAAAAAAAAAAAAAAAAAAAAAAAAAAAAAAAAAAAAAAAAAAAAAAAAAAAAAAAAAAAAAAAAAAAAAAAAAAAAAAAAAAAAAAAAAAAAAAAAAAAAAAAAAAAAAAAAAAAAAAAAAAAAAAAAAAAAAAAAAAAAAAAAAAAAAAAAAAAAAAAAAAAAAAAAAAAAAAAAAAAAAAAAAAAAAAAAAAAAAAAAAAAAAAAAAAAAAAAAAAAAAAAAAAAAAAAAAAAAAAAAAAAAAAAAAAAAAAAAAAAAAAAAAAAAAAAAAAAAAAAAAAAAAAAAAAAAAAAAAAAAAAAAAAAAAAAAAAAAAAAAAAAAAAAAAAAAAAAAAAAAAAAAAAAAAAAAAAAAAAAAAAAAAAAAAAAAAAAAAAAAAAAAAAAAAAAAAAAAAAAAAAAAAAAAAAAAAAAAAAAAAAAAAAAAAAAAAAAAAAAAAAAAAAAAAAAAAAAAAAAAAAAAAAAAAAAAAAAAAAAAAAAAAAAAAAAAAAAAAAAAAAAAAAAAAAAAAAAAAAAAAAAAAAAAAAAAAAAAAAAAAAAAAAAAAAAAAAAAAAAAAAAAAAAAAAAAAAAAAAAAAAAAAAAAAAAAAAAAAAAAAAAAAAAAAAAAAAAAAAAAAAAAAAAAAAAAAAAAAAAAAAAAAAAAAAAAAAAAAAAAAAAAAAAAAAAAAAAAAAAAAAAAAAAAAAAAAAAAAAAAAAAAAAAAAAAAAAAAAAAAAAAAAAAAAAAAAAAAAAAAAAAAAAAAAAAAAAAAAAAAAAAAAAAAAAAAAAAAAAAAAAAAAAAAAAAAAAAAAAAAAAAAAAAAAAAAAAAAAAAAAAAAAAAAAAAAAAAAAAAAAAAAAAAAAAAAAAAAAAAAAAAAAAAAAAAAAAAAAAAAAAAAAAAAAAAAAAAAAAAAAAAAAAAAAAAAAAAAAAAAAAAAAAAAAAAAAAAAAAAAAAAAAAAAAAAAAAAAAAAAAAAAAAAAAAAAAAAAAAAAAAAAAAAAAAAAAAAAAAAAAAAAAAAAAAAAAAAAAAAAAAAAAAAAAAAAAAAAAAAAAAAAAAAAAAAAAAAAAAAAAAAAAAAAAAAAAAAAAAAAAAAAAAAAAAAAAAAAAAAAAAAAAAAAAAAAAAAAAAAAAAAAAAAAAAAAAAAAAAAAAAAAAAAAAAAAAAAAAAAAAAAAAAAAAAAAAAAAAAAAAAAAAAAAAAAAAAAAAAAAAAAAAAAAAAAAAAAAAAAAAAAAAAAAAAAAAAAAAAAAAAAAAAAAAAAAAAAAAAAAAAAAAAAAAAAAAAAAAAAAAAAAAAAAAAAAAAAAAAAAAAAAAAAAAAAAAAAAAAAAAAAAAAAAAAAAAAAAAAAAAAAAAAAAAAAAAAAAAAAAAAAAAAAAAAAAAAAAAAAAAAAAAAAAAAAAAAAAAAAAAAAAAAAAAAAAAAAAAAAAAAAAAAAAAAAAAAAAAAAAAAAAAAAAAAAAAAAAAAAAAAAAAAAAAAAAAAAAAAAAAAAAAAAAAAAAAAAAAAAAAAAAAAAAAAAAAAAAAAAAAAAAAAAAAAAAAAAAAAAAAAAAAAAAAAAAAAAAAAAAAAAAAAAAAAAAAAAAAAAAAAAAAAAAAAAAAAAAAAAAAAAAAAAAAAAAAAAAAAAAAAAAAAAAAAAAAAAAAAAAAAAAAAAAAAAAAAAAAAAAAAAAAAAAAAAAAAAAAAAAAAAAAAAAAAAAAAAAAAAAAAAAAAAAAAAAAAAAAAAAAAAAAAAAAAAAAAAAAAAAAAAAAAAAAAAAAAAAAAAAAAAAAAAAAAAAAAAAAAAAAAAAAAAAAAAAAAAAAAAAAAAAAAAAAAAAAAAAAAAAAAAAAAAAAAAAAAAAAAAAAAAAAAAAAAAAAAAAAAAAAAAAAAAAAAAAAAAAAAAAAAAAAAAAAAAAAAAAAAAAAAAAAAAAAAAAAAAAAAAAAAAAAAAAAAAAAAAAAAAAAAAAAAAAAAAAAAAAAAAAAAAAAAAAAAAAAAAAAAAAAAAAAAAAAAAAAAAAAAAAAAAAAAAAAAAAAAAAAAAAAAAAAAAAAAAAAAAAAAAAAAAAAAAAAAAAAAAAAAAAAAAAAAAAAAAAAAAAAAAAAAAAAAAAAAAAAAAAAAAAAAAAAAAAAAAAAAAAAAAAAAAAAAAAAAAAAAAAAAAAAAAAAAAAAAAAAAAAAAAAAAAAAAAAAAAAAAAAAAAAAAAAAAAAAAAAAAAAAAAAAAAAAAAAAAAAAAAAAAAAAAAAAAAAAAAAAAAAAAAAAAAAAAAAAAAAAAAAAAAAAAAAAAAAAAAAAAAAAAAAAAAAAAAAAAAAAAAAAAAAAAAAAAAAAAAAAAAAAAAAAAAAAAAAAAAAAAAAAAAAAAAAAAAAAAAAAAAAAAAAAAAAAAAAAAAAAAAAAAAAAAAAAAAPZYQNp7zjR/fc4jjLnVPNHtcjQStdjGkOFfD+JSXZ0xsLbkFGcMbDPzyEgDKcPItrAggXTMUMoDkITpZToiYcN+Rhg=</c2pa:manifest></metadata><title>Dumbbell sumo squat</title><path d="M39.1 140 L224.8 140" stroke="#cfd8cb" stroke-width="4.20" stroke-linecap="round" fill="none"/><path d="M102.9 85.5 L117.2 112.0 L127.2 107.5 L117.1 79.2 Z" fill="#cdd9c7" opacity="1.0"/><circle cx="110.0" cy="82.4" r="7.8" fill="#cdd9c7" opacity="1.0"/><circle cx="122.2" cy="109.8" r="5.5" fill="#cdd9c7" opacity="1.0"/><path d="M116.8 110.5 L122.4 138.0 L129.8 137.0 L127.6 109.0 Z" fill="#cdd9c7" opacity="1.0"/><circle cx="122.2" cy="109.8" r="5.5" fill="#cdd9c7" opacity="1.0"/><circle cx="126.1" cy="137.5" r="3.8" fill="#cdd9c7" opacity="1.0"/><path d="M127.0 141.7 L138.5 137.9 L137.2 132.1 L125.2 133.3 Z" fill="#bdcbb7" opacity="1.0"/><circle cx="126.1" cy="137.5" r="4.2" fill="#bdcbb7" opacity="1.0"/><circle cx="137.8" cy="135.0" r="3.0" fill="#bdcbb7" opacity="1.0"/><path d="M102.0 85.9 L110.2 98.7 L122.0 93.4 L118.0 78.8 Z" fill="#bdcbb7" opacity="1.0"/><circle cx="110.0" cy="82.4" r="8.8" fill="#bdcbb7" opacity="1.0"/><circle cx="116.1" cy="96.1" r="6.5" fill="#bdcbb7" opacity="1.0"/><path d="M104.6 43.3 L110.0 66.7 L118.4 65.3 L115.4 41.4 Z" fill="#cdd9c7" opacity="1.0"/><circle cx="110.0" cy="42.4" r="5.5" fill="#cdd9c7" opacity="1.0"/><circle cx="114.2" cy="66.0" r="4.2" fill="#cdd9c7" opacity="1.0"/><path d="M109.9 66.5 L113.2 88.2 L119.7 87.5 L118.4 65.6 Z" fill="#cdd9c7" opacity="1.0"/><circle cx="114.2" cy="66.0" r="4.2" fill="#cdd9c7" opacity="1.0"/><circle cx="116.5" cy="87.9" r="3.2" fill="#cdd9c7" opacity="1.0"/><circle cx="116.5" cy="87.9" r="4.2" fill="#cdd9c7" opacity="1.0"/><path d="M103.6 43.5 L107.2 55.1 L117.0 53.3 L116.4 41.2 Z" fill="#bdcbb7" opacity="1.0"/><circle cx="110.0" cy="42.4" r="6.5" fill="#bdcbb7" opacity="1.0"/><circle cx="112.1" cy="54.2" r="5.0" fill="#bdcbb7" opacity="1.0"/><path d="M118.0 82.4 L120.0 42.4 L100.0 42.4 L102.0 82.4 Z" fill="#bdcbb7" opacity="1.0"/><circle cx="110.0" cy="82.4" r="8.0" fill="#bdcbb7" opacity="1.0"/><circle cx="110.0" cy="42.4" r="10.0" fill="#bdcbb7" opacity="1.0"/><path d="M118.5 82.4 L118.5 73.6 L101.5 73.6 L101.5 82.4 Z" fill="#bdcbb7" opacity="1.0"/><circle cx="110.0" cy="82.4" r="8.5" fill="#bdcbb7" opacity="1.0"/><circle cx="110.0" cy="73.6" r="8.5" fill="#bdcbb7" opacity="1.0"/><path d="M102.9 79.2 L92.8 107.5 L102.8 112.0 L117.1 85.5 Z" fill="#cdd9c7" opacity="1.0"/><circle cx="110.0" cy="82.4" r="7.8" fill="#cdd9c7" opacity="1.0"/><circle cx="97.8" cy="109.8" r="5.5" fill="#cdd9c7" opacity="1.0"/><path d="M92.4 109.0 L90.2 137.0 L97.6 138.0 L103.2 110.5 Z" fill="#cdd9c7" opacity="1.0"/><circle cx="97.8" cy="109.8" r="5.5" fill="#cdd9c7" opacity="1.0"/><circle cx="93.9" cy="137.5" r="3.8" fill="#cdd9c7" opacity="1.0"/><path d="M93.0 141.7 L105.0 142.9 L106.3 137.1 L94.8 133.3 Z" fill="#bdcbb7" opacity="1.0"/><circle cx="93.9" cy="137.5" r="4.2" fill="#bdcbb7" opacity="1.0"/><circle cx="105.6" cy="140.0" r="3.0" fill="#bdcbb7" opacity="1.0"/><path d="M102.0 78.8 L98.0 93.4 L109.8 98.7 L118.0 85.9 Z" fill="#bdcbb7" opacity="1.0"/><circle cx="110.0" cy="82.4" r="8.8" fill="#bdcbb7" opacity="1.0"/><circle cx="103.9" cy="96.1" r="6.5" fill="#bdcbb7" opacity="1.0"/><path d="M104.6 41.4 L101.6 65.3 L110.0 66.7 L115.4 43.3 Z" fill="#cdd9c7" opacity="1.0"/><circle cx="110.0" cy="42.4" r="5.5" fill="#cdd9c7" opacity="1.0"/><circle cx="105.8" cy="66.0" r="4.2" fill="#cdd9c7" opacity="1.0"/><path d="M101.6 65.6 L100.3 87.5 L106.8 88.2 L110.1 66.5 Z" fill="#cdd9c7" opacity="1.0"/><circle cx="105.8" cy="66.0" r="4.2" fill="#cdd9c7" opacity="1.0"/><circle cx="103.5" cy="87.9" r="3.2" fill="#cdd9c7" opacity="1.0"/><circle cx="103.5" cy="87.9" r="4.2" fill="#cdd9c7" opacity="1.0"/><path d="M103.6 41.2 L103.0 53.3 L112.8 55.1 L116.4 43.5 Z" fill="#bdcbb7" opacity="1.0"/><circle cx="110.0" cy="42.4" r="6.5" fill="#bdcbb7" opacity="1.0"/><circle cx="107.9" cy="54.2" r="5.0" fill="#bdcbb7" opacity="1.0"/><path d="M114.2 42.4 L114.0 37.4 L106.0 37.4 L105.8 42.4 Z" fill="#cdd9c7" opacity="1.0"/><circle cx="110.0" cy="42.4" r="4.2" fill="#cdd9c7" opacity="1.0"/><circle cx="110.0" cy="37.4" r="4.0" fill="#cdd9c7" opacity="1.0"/><circle cx="110.0" cy="26.5" r="11.0" fill="#bdcbb7" opacity="1.0"/><circle cx="113.6" cy="27.9" r="9.3" fill="#cdd9c7" opacity="1.0"/><rect x="112.5" y="78.9" width="8" height="18" rx="3.2" fill="#8a9c80" opacity="0.7"/><rect x="99.5" y="78.9" width="8" height="18" rx="3.2" fill="#8a9c80" opacity="1.0"/><path d="M105.0 97.8 L129.4 115.3 L136.5 106.9 L115.0 85.9 Z" fill="#cfa87f" opacity="1.0"/><circle cx="110.0" cy="91.8" r="7.8" fill="#cfa87f" opacity="1.0"/><circle cx="133.0" cy="111.1" r="5.5" fill="#cfa87f" opacity="1.0"/><path d="M128.0 108.9 L118.2 135.2 L125.0 138.2 L138.0 113.4 Z" fill="#cfa87f" opacity="1.0"/><circle cx="133.0" cy="111.1" r="5.5" fill="#cfa87f" opacity="1.0"/><circle cx="121.6" cy="136.7" r="3.8" fill="#cfa87f" opacity="1.0"/><path d="M122.8 140.8 L134.0 136.3 L132.3 130.5 L120.4 132.6 Z" fill="#9cba76" opacity="1.0"/><circle cx="121.6" cy="136.7" r="4.2" fill="#9cba76" opacity="1.0"/><circle cx="133.1" cy="133.4" r="3.0" fill="#9cba76" opacity="1.0"/><path d="M104.4 98.5 L117.3 106.5 L125.7 96.5 L115.6 85.1 Z" fill="#1d3325" opacity="1.0"/><circle cx="110.0" cy="91.8" r="8.8" fill="#1d3325" opacity="1.0"/><circle cx="121.5" cy="101.5" r="6.5" fill="#1d3325" opacity="1.0"/><path d="M104.6 52.6 L109.1 76.2 L117.5 75.0 L115.4 51.1 Z" fill="#cfa87f" opacity="1.0"/><circle cx="110.0" cy="51.8" r="5.5" fill="#cfa87f" opacity="1.0"/><circle cx="113.3" cy="75.6" r="4.2" fill="#cfa87f" opacity="1.0"/><path d="M109.1 75.9 L111.6 97.8 L118.1 97.3 L117.6 75.3 Z" fill="#cfa87f" opacity="1.0"/><circle cx="113.3" cy="75.6" r="4.2" fill="#cfa87f" opacity="1.0"/><circle cx="114.9" cy="97.5" r="3.2" fill="#cfa87f" opacity="1.0"/><circle cx="114.9" cy="97.5" r="4.2" fill="#cfa87f" opacity="1.0"/><path d="M103.6 52.7 L106.7 64.4 L116.6 63.0 L116.4 50.9 Z" fill="#334d3c" opacity="1.0"/><circle cx="110.0" cy="51.8" r="6.5" fill="#334d3c" opacity="1.0"/><circle cx="111.7" cy="63.7" r="5.0" fill="#334d3c" opacity="1.0"/><path d="M118.0 91.8 L120.0 51.8 L100.0 51.8 L102.0 91.8 Z" fill="#41604b" opacity="1.0"/><circle cx="110.0" cy="91.8" r="8.0" fill="#41604b" opacity="1.0"/><circle cx="110.0" cy="51.8" r="10.0" fill="#41604b" opacity="1.0"/><path d="M118.5 91.8 L118.5 83.0 L101.5 83.0 L101.5 91.8 Z" fill="#26402f" opacity="1.0"/><circle cx="110.0" cy="91.8" r="8.5" fill="#26402f" opacity="1.0"/><circle cx="110.0" cy="83.0" r="8.5" fill="#26402f" opacity="1.0"/><path d="M105.0 85.9 L83.5 106.9 L90.6 115.3 L115.0 97.8 Z" fill="#e8c49e" opacity="1.0"/><circle cx="110.0" cy="91.8" r="7.8" fill="#e8c49e" opacity="1.0"/><circle cx="87.0" cy="111.1" r="5.5" fill="#e8c49e" opacity="1.0"/><path d="M82.0 113.4 L95.0 138.2 L101.8 135.2 L92.0 108.9 Z" fill="#e8c49e" opacity="1.0"/><circle cx="87.0" cy="111.1" r="5.5" fill="#e8c49e" opacity="1.0"/><circle cx="98.4" cy="136.7" r="3.8" fill="#e8c49e" opacity="1.0"/><path d="M97.2 140.8 L109.1 142.9 L110.8 137.1 L99.6 132.6 Z" fill="#b9d492" opacity="1.0"/><circle cx="98.4" cy="136.7" r="4.2" fill="#b9d492" opacity="1.0"/><circle cx="109.9" cy="140.0" r="3.0" fill="#b9d492" opacity="1.0"/><path d="M104.4 85.1 L94.3 96.5 L102.7 106.5 L115.6 98.5 Z" fill="#26402f" opacity="1.0"/><circle cx="110.0" cy="91.8" r="8.8" fill="#26402f" opacity="1.0"/><circle cx="98.5" cy="101.5" r="6.5" fill="#26402f" opacity="1.0"/><path d="M104.6 51.1 L102.5 75.0 L110.9 76.2 L115.4 52.6 Z" fill="#e8c49e" opacity="1.0"/><circle cx="110.0" cy="51.8" r="5.5" fill="#e8c49e" opacity="1.0"/><circle cx="106.7" cy="75.6" r="4.2" fill="#e8c49e" opacity="1.0"/><path d="M102.4 75.3 L101.9 97.3 L108.4 97.8 L110.9 75.9 Z" fill="#e8c49e" opacity="1.0"/><circle cx="106.7" cy="75.6" r="4.2" fill="#e8c49e" opacity="1.0"/><circle cx="105.1" cy="97.5" r="3.2" fill="#e8c49e" opacity="1.0"/><circle cx="105.1" cy="97.5" r="4.2" fill="#e8c49e" opacity="1.0"/><path d="M103.6 50.9 L103.4 63.0 L113.3 64.4 L116.4 52.7 Z" fill="#41604b" opacity="1.0"/><circle cx="110.0" cy="51.8" r="6.5" fill="#41604b" opacity="1.0"/><circle cx="108.3" cy="63.7" r="5.0" fill="#41604b" opacity="1.0"/><path d="M114.2 51.8 L114.0 46.8 L106.0 46.8 L105.8 51.8 Z" fill="#e8c49e" opacity="1.0"/><circle cx="110.0" cy="51.8" r="4.2" fill="#e8c49e" opacity="1.0"/><circle cx="110.0" cy="46.8" r="4.0" fill="#e8c49e" opacity="1.0"/><circle cx="110.0" cy="35.9" r="11.0" fill="#2a3b2e" opacity="1.0"/><circle cx="113.6" cy="37.3" r="9.3" fill="#e8c49e" opacity="1.0"/><rect x="110.9" y="88.5" width="8" height="18" rx="3.2" fill="#8a9c80" opacity="0.7"/><rect x="101.1" y="88.5" width="8" height="18" rx="3.2" fill="#8a9c80" opacity="1.0"/><path d="M176.0 80.0 Q176.0 95.0 176.0 110.0" fill="none" stroke="#7d9a6e" stroke-width="3.4" stroke-linecap="round" opacity="0.95"/><path d="M171.3 101.2 L176.0 110.0 L180.7 101.2" fill="none" stroke="#7d9a6e" stroke-width="3.4" stroke-linecap="round" stroke-linejoin="round" opacity="1.0"/></svg>