<svg xmlns="http://www.w3.org/2000/svg" viewBox="31.0 30.7 182.0 132.3" role="img" aria-label="Incline push-up" xmlns:c2pa="http://c2pa.org/manifest"><metadata><c2pa:manifest>AAAWgmp1bWIAAAAeanVtZGMycGEAEQAQgAAAqgA4m3EDYzJwYQAAABZcanVtYgAAAEdqdW1kYzJtYQARABCAAACqADibcQN1cm46YzJwYTphMzkyM2Y3MS04NDdlLTRkOGMtYjZmYS1hNTkzZGM0NDk0NDEAAAADl2p1bWIAAAApanVtZGMyYXMAEQAQgAAAqgA4m3EDYzJwYS5hc3NlcnRpb25zAAAAALxqdW1iAAAARGp1bWRjYm9yABEAEIAAAKoAOJtxE2MycGEuaW5ncmVkaWVudC52MwAAAAAYYzJzaI2ZhSmVoZISStdxQAG+FDwAAABwY2JvcqNpZGM6Zm9ybWF0bWltYWdlL3N2Zyt4bWxqaW5zdGFuY2VJRHgseG1wOmlpZDoyNTFlZGYwNC0zMmRkLTRiMGEtYTY1Ni1lYTU0MzViYWU1ZGFscmVsYXRpb25zaGlwaHBhcmVudE9mAAAB4mp1bWIAAABBanVtZGNib3IAEQAQgAAAqgA4m3ETYzJwYS5hY3Rpb25zLnYyAAAAABhjMnNoVHSJZj42ENKp2waw3dgP6AAAAZljYm9yomdhY3Rpb25zgqJmYWN0aW9ua2MycGEub3BlbmVkanBhcmFtZXRlcnOha2luZ3JlZGllbnRzgaJjdXJseC1zZWxmI2p1bWJmPWMycGEuYXNzZXJ0aW9ucy9jMnBhLmluZ3JlZGllbnQudjNkaGFzaFggyVrv+mDa/MmDH3zJHpCmQeqhceY1j35ZHgbKhYvmu+WkZmFjdGlvbngdY29tLmFudGhyb3BpYy5jbGF1ZGUucHJvdmlkZWRqcGFyYW1ldGVyc6F4H2NvbS5hbnRocm9waWMub3JpZ2luLWNvbmZpZGVuY2VndW5rbm93bmtkZXNjcmlwdGlvbnhmQ2xhdWRlIHByb3ZpZGVkIHRoaXMgZmlsZSBhdCB0aGUgcmVxdWVzdCBvZiBhIHVzZXIgYW5kIG1heSBoYXZlIGNyZWF0ZWQgb3IgbW9kaWZpZWQgdGhlIGZpbGUgY29udGVudHMubXNvZnR3YXJlQWdlbnShZG5hbWVmQ2xhdWRlcmFsbEFjdGlvbnNJbmNsdWRlZPUAAADIanVtYgAAAEBqdW1kY2JvcgARABCAAACqADibcRNjMnBhLmhhc2guZGF0YQAAAAAYYzJzaGVvAUHm/jTjzxx+seu2zecAAACAY2JvcqVjYWxnZnNoYTI1NmNwYWRNAAAAAAAAAAAAAAAAAGRoYXNoWCC4vAbIQh+9dycivRMwM6Pb03fOGlATGAAl6xqJBxNwbmRuYW1lbmp1bWJmIG1hbmlmZXN0amV4Y2x1c2lvbnOBomVzdGFydBivZmxlbmd0aBkeBAAAAj5qdW1iAAAAJ2p1bWRjMmNsABEAEIAAAKoAOJtxA2MycGEuY2xhaW0udjIAAAACD2Nib3KlY2FsZ2ZzaGEyNTZpc2lnbmF0dXJleE1zZWxmI2p1bWJmPS9jMnBhL3VybjpjMnBhOmEzOTIzZjcxLTg0N2UtNGQ4Yy1iNmZhLWE1OTNkYzQ0OTQ0MS9jMnBhLnNpZ25hdHVyZWppbnN0YW5jZUlEeCx4bXA6aWlkOmRhNWMwMmI5LWRjMDYtNGJiZS1hZmRjLTAzZTFkZjQ0ZmFjMXJjcmVhdGVkX2Fzc2VydGlvbnODomN1cmx4LXNlbGYjanVtYmY9YzJwYS5hc3NlcnRpb25zL2MycGEuaW5ncmVkaWVudC52M2RoYXNoWCDJWu/6YNr8yYMffMkekKZB6qFx5jWPflkeBsqFi+a75aJjdXJseCpzZWxmI2p1bWJmPWMycGEuYXNzZXJ0aW9ucy9jMnBhLmFjdGlvbnMudjJkaGFzaFggkUW2n/WAuHHoGbOnZ5ApjRbh+6XdUxyQOhtZVwyruE2iY3VybHgpc2VsZiNqdW1iZj1jMnBhLmFzc2VydGlvbnMvYzJwYS5oYXNoLmRhdGFkaGFzaFgg7iX9J25QTbIM5Z4r4nMlWNJpCcR/nV3s+aLIKNrvTMJ0Y2xhaW1fZ2VuZXJhdG9yX2luZm+jZG5hbWVvQW50aHJvcGljIEZpbGVzZ3ZlcnNpb25lMS4wLjBrc3BlY1ZlcnNpb25lMi40LjAAABA4anVtYgAAAChqdW1kYzJjcwARABCAAACqADibcQNjMnBhLnNpZ25hdHVyZQAAABAIY2JvctKEWQISogEmGCFZAgowggIGMIIBjaADAgECAhRA5aAK7sI50L64g/oGQgU9Z1UTADAKBggqhkjOPQQDAzBJMRcwFQYDVQQKEw5BbnRocm9waWMsIFBCQzEuMCwGA1UEAxMlQW50aHJvcGljIENvbnRlbnQgQ3JlZGVudGlhbHMgUm9vdCBDQTAeFw0yNjA4MDcxODQzNTZaFw0yODA4MDYxOTQzNTZaMEQxFzAVBgNVBAoTDkFudGhyb3BpYywgUEJDMSkwJwYDVQQDEyBBbnRocm9waWMgQ2xhdWRlIENvbnRlbnQgU2lnbmluZzBZMBMGByqGSM49AgEGCCqGSM49AwEHA0IABJh6CmvLUBgFFNU0vUKlOVtE6djd17L5SuwX0LemFisBM3dkd/3cyjxFA3Qo5S46fX0/ihY0VZ7mfb9KF703t5OjWDBWMA4GA1UdDwEB/wQEAwIHgDAVBgNVHSUEDjAMBgorBgEEAYPoXgIBMAwGA1UdEwEB/wQCMAAwHwYDVR0jBBgwFoAUzlHiBIFOZFsj+OPEz5o+nMHXXMIwCgYIKoZIzj0EAwMDZwAwZAIwMXMdFJ4BetLLVY7ORuE9noqbbAZOZn/aArXyTwFAZfKrPzxF2vPoJNf1+UCdg1XGAjBwX1zd9WGqYkqmL5SFqw1QySjr1zJfpJM9+1rdDwSPLMOPOjKuiXjoU/pUUeG9RwmhY3BhZFkNngAAAAAAAAAAAAAAAAAAAAAAAAAAAAAAAAAAAAAAAAAAAAAAAAAAAAAAAAAAAAAAAAAAAAAAAAAAAAAAAAAAAAAAAAAAAAAAAAAAAAAAAAAAAAAAAAAAAAAAAAAAAAAAAAAAAAAAAAAAAAAAAAAAAAAAAAAAAAAAAAAAAAAAAAAAAAAAAAAAAAAAAAAAAAAAAAAAAAAAAAAAAAAAAAAAAAAAAAAAAAAAAAAAAAAAAAAAAAAAAAAAAAAAAAAAAAAAAAAAAAAAAAAAAAAAAAAAAAAAAAAAAAAAAAAAAAAAAAAAAAAAAAAAAAAAAAAAAAAAAAAAAAAAAAAAAAAAAAAAAAAAAAAAAAAAAAAAAAAAAAAAAAAAAAAAAAAAAAAAAAAAAAAAAAAAAAAAAAAAAAAAAAAAAAAAAAAAAAAAAAAAAAAAAAAAAAAAAAAAAAAAAAAAAAAAAAAAAAAAAAAAAAAAAAAAAAAAAAAAAAAAAAAAAAAAAAAAAAAAAAAAAAAAAAAAAAAAAAAAAAAAAAAAAAAAAAAAAAAAAAAAAAAAAAAAAAAAAAAAAAAAAAAAAAAAAAAAAAAAAAAAAAAAAAAAAAAAAAAAAAAAAAAAAAAAAAAAAAAAAAAAAAAAAAAAAAAAAAAAAAAAAAAAAAAAAAAAAAAAAAAAAAAAAAAAAAAAAAAAAAAAAAAAAAAAAAAAAAAAAAAAAAAAAAAAAAAAAAAAAAAAAAAAAAAAAAAAAAAAAAAAAAAAAAAAAAAAAAAAAAAAAAAAAAAAAAAAAAAAAAAAAAAAAAAAAAAAAAAAAAAAAAAAAAAAAAAAAAAAAAAAAAAAAAAAAAAAAAAAAAAAAAAAAAAAAAAAAAAAAAAAAAAAAAAAAAAAAAAAAAAAAAAAAAAAAAAAAAAAAAAAAAAAAAAAAAAAAAAAAAAAAAAAAAAAAAAAAAAAAAAAAAAAAAAAAAAAAAAAAAAAAAAAAAAAAAAAAAAAAAAAAAAAAAAAAAAAAAAAAAAAAAAAAAAAAAAAAAAAAAAAAAAAAAAAAAAAAAAAAAAAAAAAAAAAAAAAAAAAAAAAAAAAAAAAAAAAAAAAAAAAAAAAAAAAAAAAAAAAAAAAAAAAAAAAAAAAAAAAAAAAAAAAAAAAAAAAAAAAAAAAAAAAAAAAAAAAAAAAAAAAAAAAAAAAAAAAAAAAAAAAAAAAAAAAAAAAAAAAAAAAAAAAAAAAAAAAAAAAAAAAAAAAAAAAAAAAAAAAAAAAAAAAAAAAAAAAAAAAAAAAAAAAAAAAAAAAAAAAAAAAAAAAAAAAAAAAAAAAAAAAAAAAAAAAAAAAAAAAAAAAAAAAAAAAAAAAAAAAAAAAAAAAAAAAAAAAAAAAAAAAAAAAAAAAAAAAAAAAAAAAAAAAAAAAAAAAAAAAAAAAAAAAAAAAAAAAAAAAAAAAAAAAAAAAAAAAAAAAAAAAAAAAAAAAAAAAAAAAAAAAAAAAAAAAAAAAAAAAAAAAAAAAAAAAAAAAAAAAAAAAAAAAAAAAAAAAAAAAAAAAAAAAAAAAAAAAAAAAAAAAAAAAAAAAAAAAAAAAAAAAAAAAAAAAAAAAAAAAAAAAAAAAAAAAAAAAAAAAAAAAAAAAAAAAAAAAAAAAAAAAAAAAAAAAAAAAAAAAAAAAAAAAAAAAAAAAAAAAAAAAAAAAAAAAAAAAAAAAAAAAAAAAAAAAAAAAAAAAAAAAAAAAAAAAAAAAAAAAAAAAAAAAAAAAAAAAAAAAAAAAAAAAAAAAAAAAAAAAAAAAAAAAAAAAAAAAAAAAAAAAAAAAAAAAAAAAAAAAAAAAAAAAAAAAAAAAAAAAAAAAAAAAAAAAAAAAAAAAAAAAAAAAAAAAAAAAAAAAAAAAAAAAAAAAAAAAAAAAAAAAAAAAAAAAAAAAAAAAAAAAAAAAAAAAAAAAAAAAAAAAAAAAAAAAAAAAAAAAAAAAAAAAAAAAAAAAAAAAAAAAAAAAAAAAAAAAAAAAAAAAAAAAAAAAAAAAAAAAAAAAAAAAAAAAAAAAAAAAAAAAAAAAAAAAAAAAAAAAAAAAAAAAAAAAAAAAAAAAAAAAAAAAAAAAAAAAAAAAAAAAAAAAAAAAAAAAAAAAAAAAAAAAAAAAAAAAAAAAAAAAAAAAAAAAAAAAAAAAAAAAAAAAAAAAAAAAAAAAAAAAAAAAAAAAAAAAAAAAAAAAAAAAAAAAAAAAAAAAAAAAAAAAAAAAAAAAAAAAAAAAAAAAAAAAAAAAAAAAAAAAAAAAAAAAAAAAAAAAAAAAAAAAAAAAAAAAAAAAAAAAAAAAAAAAAAAAAAAAAAAAAAAAAAAAAAAAAAAAAAAAAAAAAAAAAAAAAAAAAAAAAAAAAAAAAAAAAAAAAAAAAAAAAAAAAAAAAAAAAAAAAAAAAAAAAAAAAAAAAAAAAAAAAAAAAAAAAAAAAAAAAAAAAAAAAAAAAAAAAAAAAAAAAAAAAAAAAAAAAAAAAAAAAAAAAAAAAAAAAAAAAAAAAAAAAAAAAAAAAAAAAAAAAAAAAAAAAAAAAAAAAAAAAAAAAAAAAAAAAAAAAAAAAAAAAAAAAAAAAAAAAAAAAAAAAAAAAAAAAAAAAAAAAAAAAAAAAAAAAAAAAAAAAAAAAAAAAAAAAAAAAAAAAAAAAAAAAAAAAAAAAAAAAAAAAAAAAAAAAAAAAAAAAAAAAAAAAAAAAAAAAAAAAAAAAAAAAAAAAAAAAAAAAAAAAAAAAAAAAAAAAAAAAAAAAAAAAAAAAAAAAAAAAAAAAAAAAAAAAAAAAAAAAAAAAAAAAAAAAAAAAAAAAAAAAAAAAAAAAAAAAAAAAAAAAAAAAAAAAAAAAAAAAAAAAAAAAAAAAAAAAAAAAAAAAAAAAAAAAAAAAAAAAAAAAAAAAAAAAAAAAAAAAAAAAAAAAAAAAAAAAAAAAAAAAAAAAAAAAAAAAAAAAAAAAAAAAAAAAAAAAAAAAAAAAAAAAAAAAAAAAAAAAAAAAAAAAAAAAAAAAAAAAAAAAAAAAAAAAAAAAAAAAAAAAAAAAAAAAAAAAAAAAAAAAAAAAAAAAAAAAAAAAAAAAAAAAAAAAAAAAAAAAAAAAAAAAAAAAAAAAAAAAAAAAAAAAAAAAAAAAAAAAAAAAAAAAAAAAAAAAAAAAAAAAAAAAAAAAAAAAAAAAAAAAAAAAAAAAAAAAAAAAAAAAAAAAAAAAAAAAAAAAAAAAAAAAAAAAAAAAAAAAAAAAAAAAAAAAAAAAAAAAAAAAAAAAAAAAAAAAAAAAAAAAAAAAAAAAAAAAAAAAAAAAAAAAAAAAAAAAAAAAAAAAAAAAAAAAAAAAAAAAAAAAAAAAAAAAAAAAAAAAAAAAAAAAAAAAAAAAAAAAAAAAAAAAAAAAAAAAAAAAAAAAAAAAAAAAAAAAAAAAAAAAAAAAAAAAAAAAAAAAAAAAAAAAAAAAAAAAAAAAAAAAAAAAAAAAAAAAAAAAAAAAAAAAAAAAAAAAAAAAAAAAAAAAAAAAAAAAAAAAAAAAAAAAAAAAAAAAAAAAAAAAAAAAAAAAAAAAAAAAAAAAAAAAAAAAAAAAAAAAAAAAAAAAAAAAAAAAAAAAAAAAAAAAAAAAAAAAAAAAAAAAAAAAAAAAAAAAAAAAAAAAAAAAAAAAAAAAAAAAAAAAAAAAAAAAAAAAAAAAAAAAAAAAAAAAAAAAAAAAAAAAAAAAAAAAAAAAAAAAAAAAAAAAAAAAAAAAAAAAAAAAAAAAAAAAAAAAAAAAAAAAAAAAAAAAAAAAAAAAAAAAAAAAAAAAAAAAAAAAAAAAAAAAAAAAAAAAAAAAAAAAAAAAAAAAAAAAAAAAAAAAAAAAAAAAAAAAAAAAAAAAAAAAAAAAAAAAAAAAAAAAAAAAAAAAAAAAAAAAAAAAAAAAAAAAAAAAAAAAAAAAAAAAAAAAAAAAAAAAAAAAAAAAAAAAAAAAAAAAAAAAAAAAAAAAAAAAAAAAAAAAAAAAAAAAAAAAAAAAAAAAAAAAAAAAAAAAAAAAAAAAAAAAAAAAAAAAAAAAAAAAAAAAAAAAAAAAAAAAAAAAAAAAAAAAAAAAAAAAAAAAAAAAAAAAAAAAAAAAAAAAAAAAAAAAAAAAAAAAAAAAAAAAAAAAAAAAAAAAAAAAAAAAAAAAAAAAAAAAAAAAAAAAAAAAAAAAAAAAAAAAAAAAAAAAAAAAAAAAAAAAAAAAAAAAAAAAAAAAAAAAAAAAAAAAAAAAAAAAAAAAAAAAAAAAAAAAAAAAAAAAAAAAAAAAAAAAAAAAAAAAAAAAAAAAAAAAAAAAAAAAAAAAAAAAAAAAAAAAAAAAAAAAAAAAAAAAAAAAAAAAAAAAAAAAAAAAAAAAAAAAAAAAAAAAAAAAAAAAAAAAAAAAAAAAAAAAAAAAAAAAAAAAAAAAAAAAAAAAAAAAAAAAAAAAAAAAAAAAAAAAAAAAAAAAAAAAAAAAAAAAAAAAAAAAAAAAAAAAAAAAAAAAAAAAAAAAAAAAAAAAAAAAAAAAAAAAAAAAAAAAAAAAAAAAAAAAAAAAAAAAAAAAAAAAAAAAAAAAAAAAAAAAAAAAAAAAAAAAAAAAAAAAAAAAAAAAAAAAAAAAAAAAAAAAAAAAAAAAAAAAAAAAAAAAAAAAAAAAAAAAAAAAAAAAAAAAAAAAAAAAAAAAAAAAAAAAAAAAPZYQN7QStjYLXTIpImPnc8qzJjO9I674MKyJPBH37R6sDlxmt+Bmp6PM3sRvWBBW7EZZplFxdE8v+dVQBbG2UevPhg=</c2pa:manifest></metadata><title>Incline push-up</title><path d="M40.1 140 L203.9 140" stroke="#cfd8cb" stroke-width="3.71" stroke-linecap="round" fill="none"/><rect x="128" y="84" width="74" height="8" rx="4" fill="#cfd8cb"/><path d="M138.0 92.0 L138.0 140.0" fill="none" stroke="#cfd8cb" stroke-width="4" stroke-linecap="round" stroke-linejoin="round" opacity="1.0"/><path d="M192.0 92.0 L192.0 140.0" fill="none" stroke="#cfd8cb" stroke-width="4" stroke-linecap="round" stroke-linejoin="round" opacity="1.0"/><path d="M91.0 87.9 L69.5 108.9 L76.6 117.3 L101.0 99.8 Z" fill="#cdd9c7" opacity="1.0"/><circle cx="96.0" cy="93.9" r="7.8" fill="#cdd9c7" opacity="1.0"/><circle cx="73.0" cy="113.1" r="5.5" fill="#cdd9c7" opacity="1.0"/><path d="M69.3 109.0 L49.7 129.1 L54.7 134.7 L76.7 117.2 Z" fill="#cdd9c7" opacity="1.0"/><circle cx="73.0" cy="113.1" r="5.5" fill="#cdd9c7" opacity="1.0"/><circle cx="52.2" cy="131.9" r="3.8" fill="#cdd9c7" opacity="1.0"/><path d="M48.2 133.3 L53.5 144.2 L59.1 142.1 L56.2 130.4 Z" fill="#bdcbb7" opacity="1.0"/><circle cx="52.2" cy="131.9" r="4.2" fill="#bdcbb7" opacity="1.0"/><circle cx="56.3" cy="143.1" r="3.0" fill="#bdcbb7" opacity="1.0"/><path d="M90.4 87.1 L80.3 98.5 L88.7 108.5 L101.6 100.6 Z" fill="#bdcbb7" opacity="1.0"/><circle cx="96.0" cy="93.9" r="8.8" fill="#bdcbb7" opacity="1.0"/><circle cx="84.5" cy="103.5" r="6.5" fill="#bdcbb7" opacity="1.0"/><path d="M122.0 69.2 L123.3 93.2 L131.8 93.2 L133.0 69.2 Z" fill="#cdd9c7" opacity="1.0"/><circle cx="127.5" cy="69.2" r="5.5" fill="#cdd9c7" opacity="1.0"/><circle cx="127.5" cy="93.2" r="4.2" fill="#cdd9c7" opacity="1.0"/><path d="M123.3 93.5 L125.8 115.4 L132.3 114.9 L131.8 92.9 Z" fill="#cdd9c7" opacity="1.0"/><circle cx="127.5" cy="93.2" r="4.2" fill="#cdd9c7" opacity="1.0"/><circle cx="129.1" cy="115.2" r="3.2" fill="#cdd9c7" opacity="1.0"/><circle cx="129.1" cy="115.2" r="4.2" fill="#cdd9c7" opacity="1.0"/><path d="M121.0 69.2 L122.5 81.2 L132.5 81.2 L134.0 69.2 Z" fill="#bdcbb7" opacity="1.0"/><circle cx="127.5" cy="69.2" r="6.5" fill="#bdcbb7" opacity="1.0"/><circle cx="127.5" cy="81.2" r="5.0" fill="#bdcbb7" opacity="1.0"/><path d="M100.9 100.2 L133.7 77.1 L121.4 61.3 L91.1 87.5 Z" fill="#bdcbb7" opacity="1.0"/><circle cx="96.0" cy="93.9" r="8.0" fill="#bdcbb7" opacity="1.0"/><circle cx="127.5" cy="69.2" r="10.0" fill="#bdcbb7" opacity="1.0"/><path d="M101.2 100.5 L108.2 95.1 L97.7 81.7 L90.8 87.2 Z" fill="#bdcbb7" opacity="1.0"/><circle cx="96.0" cy="93.9" r="8.5" fill="#bdcbb7" opacity="1.0"/><circle cx="102.9" cy="88.4" r="8.5" fill="#bdcbb7" opacity="1.0"/><path d="M91.4 87.6 L68.5 107.0 L75.0 115.9 L100.6 100.1 Z" fill="#cdd9c7" opacity="1.0"/><circle cx="96.0" cy="93.9" r="7.8" fill="#cdd9c7" opacity="1.0"/><circle cx="71.7" cy="111.5" r="5.5" fill="#cdd9c7" opacity="1.0"/><path d="M68.3 107.2 L47.4 125.8 L52.0 131.7 L75.1 115.8 Z" fill="#cdd9c7" opacity="1.0"/><circle cx="71.7" cy="111.5" r="5.5" fill="#cdd9c7" opacity="1.0"/><circle cx="49.7" cy="128.7" r="3.8" fill="#cdd9c7" opacity="1.0"/><path d="M45.7 130.2 L51.0 141.0 L56.6 139.0 L53.7 127.3 Z" fill="#bdcbb7" opacity="1.0"/><circle cx="49.7" cy="128.7" r="4.2" fill="#bdcbb7" opacity="1.0"/><circle cx="53.8" cy="140.0" r="3.0" fill="#bdcbb7" opacity="1.0"/><path d="M90.9 86.8 L80.0 97.4 L87.7 107.9 L101.1 100.9 Z" fill="#bdcbb7" opacity="1.0"/><circle cx="96.0" cy="93.9" r="8.8" fill="#bdcbb7" opacity="1.0"/><circle cx="83.9" cy="102.7" r="6.5" fill="#bdcbb7" opacity="1.0"/><path d="M122.0 68.8 L121.6 92.9 L130.1 93.5 L133.0 69.6 Z" fill="#cdd9c7" opacity="1.0"/><circle cx="127.5" cy="69.2" r="5.5" fill="#cdd9c7" opacity="1.0"/><circle cx="125.8" cy="93.2" r="4.2" fill="#cdd9c7" opacity="1.0"/><path d="M121.6 93.2 L122.6 115.2 L129.1 115.2 L130.1 93.2 Z" fill="#cdd9c7" opacity="1.0"/><circle cx="125.8" cy="93.2" r="4.2" fill="#cdd9c7" opacity="1.0"/><circle cx="125.8" cy="115.2" r="3.2" fill="#cdd9c7" opacity="1.0"/><circle cx="125.8" cy="115.2" r="4.2" fill="#cdd9c7" opacity="1.0"/><path d="M121.0 68.8 L121.7 80.8 L131.7 81.5 L134.0 69.7 Z" fill="#bdcbb7" opacity="1.0"/><circle cx="127.5" cy="69.2" r="6.5" fill="#bdcbb7" opacity="1.0"/><circle cx="126.7" cy="81.2" r="5.0" fill="#bdcbb7" opacity="1.0"/><path d="M130.1 72.6 L133.9 69.3 L129.0 63.0 L124.9 65.9 Z" fill="#cdd9c7" opacity="1.0"/><circle cx="127.5" cy="69.2" r="4.2" fill="#cdd9c7" opacity="1.0"/><circle cx="131.5" cy="66.1" r="4.0" fill="#cdd9c7" opacity="1.0"/><circle cx="140.0" cy="59.4" r="11.0" fill="#bdcbb7" opacity="1.0"/><circle cx="141.2" cy="63.1" r="9.3" fill="#cdd9c7" opacity="1.0"/><path d="M91.7 92.5 L68.1 111.1 L74.2 120.2 L100.3 105.3 Z" fill="#cfa87f" opacity="1.0"/><circle cx="96.0" cy="98.9" r="7.8" fill="#cfa87f" opacity="1.0"/><circle cx="71.1" cy="115.7" r="5.5" fill="#cfa87f" opacity="1.0"/><path d="M67.9 111.2 L46.3 129.1 L50.7 135.2 L74.4 120.1 Z" fill="#cfa87f" opacity="1.0"/><circle cx="71.1" cy="115.7" r="5.5" fill="#cfa87f" opacity="1.0"/><circle cx="48.5" cy="132.1" r="3.8" fill="#cfa87f" opacity="1.0"/><path d="M44.5 133.6 L49.8 144.4 L55.4 142.4 L52.5 130.7 Z" fill="#9cba76" opacity="1.0"/><circle cx="48.5" cy="132.1" r="4.2" fill="#9cba76" opacity="1.0"/><circle cx="52.6" cy="143.4" r="3.0" fill="#9cba76" opacity="1.0"/><path d="M91.1 91.6 L79.9 101.9 L87.2 112.7 L100.9 106.1 Z" fill="#1d3325" opacity="1.0"/><circle cx="96.0" cy="98.9" r="8.8" fill="#1d3325" opacity="1.0"/><circle cx="83.6" cy="107.3" r="6.5" fill="#1d3325" opacity="1.0"/><path d="M125.6 74.3 L111.8 94.0 L118.5 99.2 L134.3 81.1 Z" fill="#cfa87f" opacity="1.0"/><circle cx="129.9" cy="77.7" r="5.5" fill="#cfa87f" opacity="1.0"/><circle cx="115.1" cy="96.6" r="4.2" fill="#cfa87f" opacity="1.0"/><path d="M113.4 100.5 L133.9 108.5 L136.6 102.6 L116.9 92.7 Z" fill="#cfa87f" opacity="1.0"/><circle cx="115.1" cy="96.6" r="4.2" fill="#cfa87f" opacity="1.0"/><circle cx="135.2" cy="105.5" r="3.2" fill="#cfa87f" opacity="1.0"/><circle cx="135.2" cy="105.5" r="4.2" fill="#cfa87f" opacity="1.0"/><path d="M124.8 73.7 L118.6 84.1 L126.5 90.2 L135.0 81.7 Z" fill="#334d3c" opacity="1.0"/><circle cx="129.9" cy="77.7" r="6.5" fill="#334d3c" opacity="1.0"/><circle cx="122.5" cy="87.1" r="5.0" fill="#334d3c" opacity="1.0"/><path d="M100.2 105.7 L135.2 86.2 L124.6 69.2 L91.8 92.1 Z" fill="#41604b" opacity="1.0"/><circle cx="96.0" cy="98.9" r="8.0" fill="#41604b" opacity="1.0"/><circle cx="129.9" cy="77.7" r="10.0" fill="#41604b" opacity="1.0"/><path d="M100.5 106.1 L108.0 101.4 L99.0 87.0 L91.5 91.7 Z" fill="#26402f" opacity="1.0"/><circle cx="96.0" cy="98.9" r="8.5" fill="#26402f" opacity="1.0"/><circle cx="103.5" cy="94.2" r="8.5" fill="#26402f" opacity="1.0"/><path d="M92.1 92.2 L67.3 109.1 L72.8 118.6 L99.9 105.6 Z" fill="#e8c49e" opacity="1.0"/><circle cx="96.0" cy="98.9" r="7.8" fill="#e8c49e" opacity="1.0"/><circle cx="70.0" cy="113.9" r="5.5" fill="#e8c49e" opacity="1.0"/><path d="M67.1 109.2 L44.3 125.5 L48.3 131.9 L72.9 118.6 Z" fill="#e8c49e" opacity="1.0"/><circle cx="70.0" cy="113.9" r="5.5" fill="#e8c49e" opacity="1.0"/><circle cx="46.3" cy="128.7" r="3.8" fill="#e8c49e" opacity="1.0"/><path d="M42.3 130.2 L47.6 141.0 L53.2 139.0 L50.3 127.3 Z" fill="#b9d492" opacity="1.0"/><circle cx="46.3" cy="128.7" r="4.2" fill="#b9d492" opacity="1.0"/><circle cx="50.4" cy="140.0" r="3.0" fill="#b9d492" opacity="1.0"/><path d="M91.6 91.3 L79.8 100.8 L86.3 112.0 L100.4 106.5 Z" fill="#26402f" opacity="1.0"/><circle cx="96.0" cy="98.9" r="8.8" fill="#26402f" opacity="1.0"/><circle cx="83.0" cy="106.4" r="6.5" fill="#26402f" opacity="1.0"/><path d="M125.8 74.0 L110.7 92.7 L117.0 98.4 L134.0 81.4 Z" fill="#e8c49e" opacity="1.0"/><circle cx="129.9" cy="77.7" r="5.5" fill="#e8c49e" opacity="1.0"/><circle cx="113.9" cy="95.5" r="4.2" fill="#e8c49e" opacity="1.0"/><path d="M111.9 99.3 L131.8 108.7 L134.8 103.0 L115.9 91.8 Z" fill="#e8c49e" opacity="1.0"/><circle cx="113.9" cy="95.5" r="4.2" fill="#e8c49e" opacity="1.0"/><circle cx="133.3" cy="105.9" r="3.2" fill="#e8c49e" opacity="1.0"/><circle cx="133.3" cy="105.9" r="4.2" fill="#e8c49e" opacity="1.0"/><path d="M125.1 73.3 L118.2 83.3 L125.6 90.0 L134.8 82.0 Z" fill="#41604b" opacity="1.0"/><circle cx="129.9" cy="77.7" r="6.5" fill="#41604b" opacity="1.0"/><circle cx="121.9" cy="86.6" r="5.0" fill="#41604b" opacity="1.0"/><path d="M132.2 81.3 L136.3 78.4 L132.0 71.6 L127.7 74.1 Z" fill="#e8c49e" opacity="1.0"/><circle cx="129.9" cy="77.7" r="4.2" fill="#e8c49e" opacity="1.0"/><circle cx="134.2" cy="75.0" r="4.0" fill="#e8c49e" opacity="1.0"/><circle cx="143.4" cy="69.3" r="11.0" fill="#2a3b2e" opacity="1.0"/><circle cx="144.1" cy="73.1" r="9.3" fill="#e8c49e" opacity="1.0"/><path d="M60.0 54.0 Q60.0 65.0 60.0 76.0" fill="none" stroke="#7d9a6e" stroke-width="3.4" stroke-linecap="round" opacity="0.95"/><path d="M55.3 67.2 L60.0 76.0 L64.7 67.2" fill="none" stroke="#7d9a6e" stroke-width="3.4" stroke-linecap="round" stroke-linejoin="round" opacity="1.0"/></svg>