<svg xmlns="http://www.w3.org/2000/svg" viewBox="-4.5 -11.4 229.1 166.6" role="img" aria-label="Jumping jacks" xmlns:c2pa="http://c2pa.org/manifest"><metadata><c2pa:manifest>AAAWgmp1bWIAAAAeanVtZGMycGEAEQAQgAAAqgA4m3EDYzJwYQAAABZcanVtYgAAAEdqdW1kYzJtYQARABCAAACqADibcQN1cm46YzJwYTo0MTkwZTU3NC04ZjViLTQ0OWMtYjYzNS1mM2M1NWNhODJhNDgAAAADl2p1bWIAAAApanVtZGMyYXMAEQAQgAAAqgA4m3EDYzJwYS5hc3NlcnRpb25zAAAAALxqdW1iAAAARGp1bWRjYm9yABEAEIAAAKoAOJtxE2MycGEuaW5ncmVkaWVudC52MwAAAAAYYzJzaER7L/CC2Oc0xx3lTUQK3mAAAABwY2JvcqNpZGM6Zm9ybWF0bWltYWdlL3N2Zyt4bWxqaW5zdGFuY2VJRHgseG1wOmlpZDplNTg1NGI5Yi05ZDVkLTQwYTMtOWI0NC02MzQ1NDEyYWQ3MjNscmVsYXRpb25zaGlwaHBhcmVudE9mAAAB4mp1bWIAAABBanVtZGNib3IAEQAQgAAAqgA4m3ETYzJwYS5hY3Rpb25zLnYyAAAAABhjMnNor40ZGOCy244ZgeCRL9e9ogAAAZljYm9yomdhY3Rpb25zgqJmYWN0aW9ua2MycGEub3BlbmVkanBhcmFtZXRlcnOha2luZ3JlZGllbnRzgaJjdXJseC1zZWxmI2p1bWJmPWMycGEuYXNzZXJ0aW9ucy9jMnBhLmluZ3JlZGllbnQudjNkaGFzaFggYwkMEUhnDl4QTJygHBj9Zn1iGFNqUFy770CLUM3OWqCkZmFjdGlvbngdY29tLmFudGhyb3BpYy5jbGF1ZGUucHJvdmlkZWRqcGFyYW1ldGVyc6F4H2NvbS5hbnRocm9waWMub3JpZ2luLWNvbmZpZGVuY2VndW5rbm93bmtkZXNjcmlwdGlvbnhmQ2xhdWRlIHByb3ZpZGVkIHRoaXMgZmlsZSBhdCB0aGUgcmVxdWVzdCBvZiBhIHVzZXIgYW5kIG1heSBoYXZlIGNyZWF0ZWQgb3IgbW9kaWZpZWQgdGhlIGZpbGUgY29udGVudHMubXNvZnR3YXJlQWdlbnShZG5hbWVmQ2xhdWRlcmFsbEFjdGlvbnNJbmNsdWRlZPUAAADIanVtYgAAAEBqdW1kY2JvcgARABCAAACqADibcRNjMnBhLmhhc2guZGF0YQAAAAAYYzJzaHs/EcLMH/jc6pNW47L8UM8AAACAY2JvcqVjYWxnZnNoYTI1NmNwYWRNAAAAAAAAAAAAAAAAAGRoYXNoWCAMOKVLsbNB+GLWsO5tpgbmPbfPt0NXFulJ8eldTxg4emRuYW1lbmp1bWJmIG1hbmlmZXN0amV4Y2x1c2lvbnOBomVzdGFydBiuZmxlbmd0aBkeBAAAAj5qdW1iAAAAJ2p1bWRjMmNsABEAEIAAAKoAOJtxA2MycGEuY2xhaW0udjIAAAACD2Nib3KlY2FsZ2ZzaGEyNTZpc2lnbmF0dXJleE1zZWxmI2p1bWJmPS9jMnBhL3VybjpjMnBhOjQxOTBlNTc0LThmNWItNDQ5Yy1iNjM1LWYzYzU1Y2E4MmE0OC9jMnBhLnNpZ25hdHVyZWppbnN0YW5jZUlEeCx4bXA6aWlkOmM0YzNkYWY3LWJiOGEtNDkxZS1hZGMxLTkxNTMyZTAyMzkwNXJjcmVhdGVkX2Fzc2VydGlvbnODomN1cmx4LXNlbGYjanVtYmY9YzJwYS5hc3NlcnRpb25zL2MycGEuaW5ncmVkaWVudC52M2RoYXNoWCBjCQwRSGcOXhBMnKAcGP1mfWIYU2pQXLvvQItQzc5aoKJjdXJseCpzZWxmI2p1bWJmPWMycGEuYXNzZXJ0aW9ucy9jMnBhLmFjdGlvbnMudjJkaGFzaFgguenrfgIAs4FyUbYqF24bHrBAqG+d+a3MnXV/ZEKnO2qiY3VybHgpc2VsZiNqdW1iZj1jMnBhLmFzc2VydGlvbnMvYzJwYS5oYXNoLmRhdGFkaGFzaFggNkYjRMMxvgQpkwcoeG2lXeL79+RwAx9kqlsMbsdQiRJ0Y2xhaW1fZ2VuZXJhdG9yX2luZm+jZG5hbWVvQW50aHJvcGljIEZpbGVzZ3ZlcnNpb25lMS4wLjBrc3BlY1ZlcnNpb25lMi40LjAAABA4anVtYgAAAChqdW1kYzJjcwARABCAAACqADibcQNjMnBhLnNpZ25hdHVyZQAAABAIY2JvctKEWQISogEmGCFZAgowggIGMIIBjaADAgECAhRA5aAK7sI50L64g/oGQgU9Z1UTADAKBggqhkjOPQQDAzBJMRcwFQYDVQQKEw5BbnRocm9waWMsIFBCQzEuMCwGA1UEAxMlQW50aHJvcGljIENvbnRlbnQgQ3JlZGVudGlhbHMgUm9vdCBDQTAeFw0yNjA4MDcxODQzNTZaFw0yODA4MDYxOTQzNTZaMEQxFzAVBgNVBAoTDkFudGhyb3BpYywgUEJDMSkwJwYDVQQDEyBBbnRocm9waWMgQ2xhdWRlIENvbnRlbnQgU2lnbmluZzBZMBMGByqGSM49AgEGCCqGSM49AwEHA0IABJh6CmvLUBgFFNU0vUKlOVtE6djd17L5SuwX0LemFisBM3dkd/3cyjxFA3Qo5S46fX0/ihY0VZ7mfb9KF703t5OjWDBWMA4GA1UdDwEB/wQEAwIHgDAVBgNVHSUEDjAMBgorBgEEAYPoXgIBMAwGA1UdEwEB/wQCMAAwHwYDVR0jBBgwFoAUzlHiBIFOZFsj+OPEz5o+nMHXXMIwCgYIKoZIzj0EAwMDZwAwZAIwMXMdFJ4BetLLVY7ORuE9noqbbAZOZn/aArXyTwFAZfKrPzxF2vPoJNf1+UCdg1XGAjBwX1zd9WGqYkqmL5SFqw1QySjr1zJfpJM9+1rdDwSPLMOPOjKuiXjoU/pUUeG9RwmhY3BhZFkNngAAAAAAAAAAAAAAAAAAAAAAAAAAAAAAAAAAAAAAAAAAAAAAAAAAAAAAAAAAAAAAAAAAAAAAAAAAAAAAAAAAAAAAAAAAAAAAAAAAAAAAAAAAAAAAAAAAAAAAAAAAAAAAAAAAAAAAAAAAAAAAAAAAAAAAAAAAAAAAAAAAAAAAAAAAAAAAAAAAAAAAAAAAAAAAAAAAAAAAAAAAAAAAAAAAAAAAAAAAAAAAAAAAAAAAAAAAAAAAAAAAAAAAAAAAAAAAAAAAAAAAAAAAAAAAAAAAAAAAAAAAAAAAAAAAAAAAAAAAAAAAAAAAAAAAAAAAAAAAAAAAAAAAAAAAAAAAAAAAAAAAAAAAAAAAAAAAAAAAAAAAAAAAAAAAAAAAAAAAAAAAAAAAAAAAAAAAAAAAAAAAAAAAAAAAAAAAAAAAAAAAAAAAAAAAAAAAAAAAAAAAAAAAAAAAAAAAAAAAAAAAAAAAAAAAAAAAAAAAAAAAAAAAAAAAAAAAAAAAAAAAAAAAAAAAAAAAAAAAAAAAAAAAAAAAAAAAAAAAAAAAAAAAAAAAAAAAAAAAAAAAAAAAAAAAAAAAAAAAAAAAAAAAAAAAAAAAAAAAAAAAAAAAAAAAAAAAAAAAAAAAAAAAAAAAAAAAAAAAAAAAAAAAAAAAAAAAAAAAAAAAAAAAAAAAAAAAAAAAAAAAAAAAAAAAAAAAAAAAAAAAAAAAAAAAAAAAAAAAAAAAAAAAAAAAAAAAAAAAAAAAAAAAAAAAAAAAAAAAAAAAAAAAAAAAAAAAAAAAAAAAAAAAAAAAAAAAAAAAAAAAAAAAAAAAAAAAAAAAAAAAAAAAAAAAAAAAAAAAAAAAAAAAAAAAAAAAAAAAAAAAAAAAAAAAAAAAAAAAAAAAAAAAAAAAAAAAAAAAAAAAAAAAAAAAAAAAAAAAAAAAAAAAAAAAAAAAAAAAAAAAAAAAAAAAAAAAAAAAAAAAAAAAAAAAAAAAAAAAAAAAAAAAAAAAAAAAAAAAAAAAAAAAAAAAAAAAAAAAAAAAAAAAAAAAAAAAAAAAAAAAAAAAAAAAAAAAAAAAAAAAAAAAAAAAAAAAAAAAAAAAAAAAAAAAAAAAAAAAAAAAAAAAAAAAAAAAAAAAAAAAAAAAAAAAAAAAAAAAAAAAAAAAAAAAAAAAAAAAAAAAAAAAAAAAAAAAAAAAAAAAAAAAAAAAAAAAAAAAAAAAAAAAAAAAAAAAAAAAAAAAAAAAAAAAAAAAAAAAAAAAAAAAAAAAAAAAAAAAAAAAAAAAAAAAAAAAAAAAAAAAAAAAAAAAAAAAAAAAAAAAAAAAAAAAAAAAAAAAAAAAAAAAAAAAAAAAAAAAAAAAAAAAAAAAAAAAAAAAAAAAAAAAAAAAAAAAAAAAAAAAAAAAAAAAAAAAAAAAAAAAAAAAAAAAAAAAAAAAAAAAAAAAAAAAAAAAAAAAAAAAAAAAAAAAAAAAAAAAAAAAAAAAAAAAAAAAAAAAAAAAAAAAAAAAAAAAAAAAAAAAAAAAAAAAAAAAAAAAAAAAAAAAAAAAAAAAAAAAAAAAAAAAAAAAAAAAAAAAAAAAAAAAAAAAAAAAAAAAAAAAAAAAAAAAAAAAAAAAAAAAAAAAAAAAAAAAAAAAAAAAAAAAAAAAAAAAAAAAAAAAAAAAAAAAAAAAAAAAAAAAAAAAAAAAAAAAAAAAAAAAAAAAAAAAAAAAAAAAAAAAAAAAAAAAAAAAAAAAAAAAAAAAAAAAAAAAAAAAAAAAAAAAAAAAAAAAAAAAAAAAAAAAAAAAAAAAAAAAAAAAAAAAAAAAAAAAAAAAAAAAAAAAAAAAAAAAAAAAAAAAAAAAAAAAAAAAAAAAAAAAAAAAAAAAAAAAAAAAAAAAAAAAAAAAAAAAAAAAAAAAAAAAAAAAAAAAAAAAAAAAAAAAAAAAAAAAAAAAAAAAAAAAAAAAAAAAAAAAAAAAAAAAAAAAAAAAAAAAAAAAAAAAAAAAAAAAAAAAAAAAAAAAAAAAAAAAAAAAAAAAAAAAAAAAAAAAAAAAAAAAAAAAAAAAAAAAAAAAAAAAAAAAAAAAAAAAAAAAAAAAAAAAAAAAAAAAAAAAAAAAAAAAAAAAAAAAAAAAAAAAAAAAAAAAAAAAAAAAAAAAAAAAAAAAAAAAAAAAAAAAAAAAAAAAAAAAAAAAAAAAAAAAAAAAAAAAAAAAAAAAAAAAAAAAAAAAAAAAAAAAAAAAAAAAAAAAAAAAAAAAAAAAAAAAAAAAAAAAAAAAAAAAAAAAAAAAAAAAAAAAAAAAAAAAAAAAAAAAAAAAAAAAAAAAAAAAAAAAAAAAAAAAAAAAAAAAAAAAAAAAAAAAAAAAAAAAAAAAAAAAAAAAAAAAAAAAAAAAAAAAAAAAAAAAAAAAAAAAAAAAAAAAAAAAAAAAAAAAAAAAAAAAAAAAAAAAAAAAAAAAAAAAAAAAAAAAAAAAAAAAAAAAAAAAAAAAAAAAAAAAAAAAAAAAAAAAAAAAAAAAAAAAAAAAAAAAAAAAAAAAAAAAAAAAAAAAAAAAAAAAAAAAAAAAAAAAAAAAAAAAAAAAAAAAAAAAAAAAAAAAAAAAAAAAAAAAAAAAAAAAAAAAAAAAAAAAAAAAAAAAAAAAAAAAAAAAAAAAAAAAAAAAAAAAAAAAAAAAAAAAAAAAAAAAAAAAAAAAAAAAAAAAAAAAAAAAAAAAAAAAAAAAAAAAAAAAAAAAAAAAAAAAAAAAAAAAAAAAAAAAAAAAAAAAAAAAAAAAAAAAAAAAAAAAAAAAAAAAAAAAAAAAAAAAAAAAAAAAAAAAAAAAAAAAAAAAAAAAAAAAAAAAAAAAAAAAAAAAAAAAAAAAAAAAAAAAAAAAAAAAAAAAAAAAAAAAAAAAAAAAAAAAAAAAAAAAAAAAAAAAAAAAAAAAAAAAAAAAAAAAAAAAAAAAAAAAAAAAAAAAAAAAAAAAAAAAAAAAAAAAAAAAAAAAAAAAAAAAAAAAAAAAAAAAAAAAAAAAAAAAAAAAAAAAAAAAAAAAAAAAAAAAAAAAAAAAAAAAAAAAAAAAAAAAAAAAAAAAAAAAAAAAAAAAAAAAAAAAAAAAAAAAAAAAAAAAAAAAAAAAAAAAAAAAAAAAAAAAAAAAAAAAAAAAAAAAAAAAAAAAAAAAAAAAAAAAAAAAAAAAAAAAAAAAAAAAAAAAAAAAAAAAAAAAAAAAAAAAAAAAAAAAAAAAAAAAAAAAAAAAAAAAAAAAAAAAAAAAAAAAAAAAAAAAAAAAAAAAAAAAAAAAAAAAAAAAAAAAAAAAAAAAAAAAAAAAAAAAAAAAAAAAAAAAAAAAAAAAAAAAAAAAAAAAAAAAAAAAAAAAAAAAAAAAAAAAAAAAAAAAAAAAAAAAAAAAAAAAAAAAAAAAAAAAAAAAAAAAAAAAAAAAAAAAAAAAAAAAAAAAAAAAAAAAAAAAAAAAAAAAAAAAAAAAAAAAAAAAAAAAAAAAAAAAAAAAAAAAAAAAAAAAAAAAAAAAAAAAAAAAAAAAAAAAAAAAAAAAAAAAAAAAAAAAAAAAAAAAAAAAAAAAAAAAAAAAAAAAAAAAAAAAAAAAAAAAAAAAAAAAAAAAAAAAAAAAAAAAAAAAAAAAAAAAAAAAAAAAAAAAAAAAAAAAAAAAAAAAAAAAAAAAAAAAAAAAAAAAAAAAAAAAAAAAAAAAAAAAAAAAAAAAAAAAAAAAAAAAAAAAAAAAAAAAAAAAAAAAAAAAAAAAAAAAAAAAAAAAAAAAAAAAAAAAAAAAAAAAAAAAAAAAAAAAAAAAAAAAAAAAAAAAAAAAAAAAAAAAAAAAAAAAAAAAAAAAAAAAAAAAAAAAAAAAAAAAAAAAAAAAAAAAAAAAAAAAAAAAAAAAAAAAAAAAAAAAAAAAAAAAAAAAAAAAAAAAAAAAAAAAAAAAAAAAAAAAAAAAAAAAAAAAAAAAAAAAAAAAAAAAAAAAAAAAAAAAAAAAAAAAAAAAAAAAAAAAAAAAAAAAAAAAAAAAAAAAAAAAAAAAAAAAAAAAAAAAAAAAAAAAAAAAAAAAAAAAAAAAAAAAAAAAAAAAAAAAAAAAAAAAAAAAAAAAAAAAAAAAAAAAAAAAAAAAAAAAAAAAAAAAAAAAAAAAAAAAAAAAAAAAAAAAAAAAAAAAAAAAAAAAAAAAAAAAAAAAAAAAAAAAAAAAAAAAAAAAAAAAAAAAAAAAAAAAAAAAAAAAAAAAAAAAAAAAAAAAAAAAAAAAAAAAAAAAAAAAAAAAAAAAAAAAAAAAAAAAAAAAAAAAAAAAAAAAAAAAAAAAAAAAAAAAAAAAAAAAAAAAAAAAAAAAAAAAAAAAAAAAAAAAAAAAAAAAAAAAAAAAAAAAAAAAAAAAAAAAAAAAAAAAAAAAAAAAAAAAAAAAAAAAAAAAAAAAAAAAAAAAAAAAAAAAAAAAAAAAAAAAAAAAAAAAAAAAAAAAAAAAAAAAAAAAAAAAAAAAAAAAAAAAAAAAAAAAAAAAAAAAAAAAAAAAAAAAAAAAAAAAAAAAAAAAAAAAAAAAAAAAAAAAAAAAAAAAAAAAAAAAAAAAAAAAAAAAAAAAAAAAAAAAAAAAAAAAAAAAAAAAAAAAAAAAAAAAAAAAAAAAAAAAAAAAAAAAAAAAAAAAAAAAAAAAAAAAAAAAAAAAAAAAAAAAAAAAAAAAAAAAAAAAAAAAAPZYQE+IYuIbM6ByE1Zs0VabPoolu+oTsRZ0f7ZetPEte9YOTRc0odt7J4I9nCBQoqguKCySvxoE9ClEnUUKF61m4b0=</c2pa:manifest></metadata><title>Jumping jacks</title><path d="M6.9 140 L213.1 140" stroke="#cfd8cb" stroke-width="4.67" stroke-linecap="round" fill="none"/><path d="M102.3 82.1 L105.0 112.1 L116.0 111.9 L117.7 81.9 Z" fill="#cdd9c7" opacity="1.0"/><circle cx="110.0" cy="82.0" r="7.8" fill="#cdd9c7" opacity="1.0"/><circle cx="110.5" cy="112.0" r="5.5" fill="#cdd9c7" opacity="1.0"/><path d="M105.0 112.0 L106.8 140.0 L114.3 140.0 L116.0 112.0 Z" fill="#cdd9c7" opacity="1.0"/><circle cx="110.5" cy="112.0" r="5.5" fill="#cdd9c7" opacity="1.0"/><circle cx="110.5" cy="140.0" r="3.8" fill="#cdd9c7" opacity="1.0"/><path d="M110.5 144.2 L122.5 143.0 L122.5 137.0 L110.5 135.8 Z" fill="#bdcbb7" opacity="1.0"/><circle cx="110.5" cy="140.0" r="4.2" fill="#bdcbb7" opacity="1.0"/><circle cx="122.5" cy="140.0" r="3.0" fill="#bdcbb7" opacity="1.0"/><path d="M101.3 82.2 L103.8 97.1 L116.8 96.9 L118.7 81.9 Z" fill="#bdcbb7" opacity="1.0"/><circle cx="110.0" cy="82.0" r="8.8" fill="#bdcbb7" opacity="1.0"/><circle cx="110.3" cy="97.0" r="6.5" fill="#bdcbb7" opacity="1.0"/><path d="M104.5 42.6 L108.3 66.3 L116.7 65.4 L115.5 41.4 Z" fill="#cdd9c7" opacity="1.0"/><circle cx="110.0" cy="42.0" r="5.5" fill="#cdd9c7" opacity="1.0"/><circle cx="112.5" cy="65.9" r="4.2" fill="#cdd9c7" opacity="1.0"/><path d="M108.3 66.2 L110.8 88.0 L117.3 87.6 L116.7 65.6 Z" fill="#cdd9c7" opacity="1.0"/><circle cx="112.5" cy="65.9" r="4.2" fill="#cdd9c7" opacity="1.0"/><circle cx="114.0" cy="87.8" r="3.2" fill="#cdd9c7" opacity="1.0"/><circle cx="114.0" cy="87.8" r="4.2" fill="#cdd9c7" opacity="1.0"/><path d="M103.5 42.7 L106.3 54.5 L116.2 53.4 L116.5 41.3 Z" fill="#bdcbb7" opacity="1.0"/><circle cx="110.0" cy="42.0" r="6.5" fill="#bdcbb7" opacity="1.0"/><circle cx="111.3" cy="53.9" r="5.0" fill="#bdcbb7" opacity="1.0"/><path d="M118.0 82.0 L120.0 42.0 L100.0 42.0 L102.0 82.0 Z" fill="#bdcbb7" opacity="1.0"/><circle cx="110.0" cy="82.0" r="8.0" fill="#bdcbb7" opacity="1.0"/><circle cx="110.0" cy="42.0" r="10.0" fill="#bdcbb7" opacity="1.0"/><path d="M118.5 82.0 L118.5 73.2 L101.5 73.2 L101.5 82.0 Z" fill="#bdcbb7" opacity="1.0"/><circle cx="110.0" cy="82.0" r="8.5" fill="#bdcbb7" opacity="1.0"/><circle cx="110.0" cy="73.2" r="8.5" fill="#bdcbb7" opacity="1.0"/><path d="M102.3 81.9 L104.0 111.9 L115.0 112.1 L117.7 82.1 Z" fill="#cdd9c7" opacity="1.0"/><circle cx="110.0" cy="82.0" r="7.8" fill="#cdd9c7" opacity="1.0"/><circle cx="109.5" cy="112.0" r="5.5" fill="#cdd9c7" opacity="1.0"/><path d="M104.0 112.0 L105.7 140.0 L113.2 140.0 L115.0 112.0 Z" fill="#cdd9c7" opacity="1.0"/><circle cx="109.5" cy="112.0" r="5.5" fill="#cdd9c7" opacity="1.0"/><circle cx="109.5" cy="140.0" r="3.8" fill="#cdd9c7" opacity="1.0"/><path d="M109.5 144.2 L121.5 143.0 L121.5 137.0 L109.5 135.8 Z" fill="#bdcbb7" opacity="1.0"/><circle cx="109.5" cy="140.0" r="4.2" fill="#bdcbb7" opacity="1.0"/><circle cx="121.5" cy="140.0" r="3.0" fill="#bdcbb7" opacity="1.0"/><path d="M101.3 81.9 L103.2 96.9 L116.2 97.1 L118.7 82.2 Z" fill="#bdcbb7" opacity="1.0"/><circle cx="110.0" cy="82.0" r="8.8" fill="#bdcbb7" opacity="1.0"/><circle cx="109.7" cy="97.0" r="6.5" fill="#bdcbb7" opacity="1.0"/><path d="M104.5 41.4 L103.3 65.4 L111.7 66.3 L115.5 42.6 Z" fill="#cdd9c7" opacity="1.0"/><circle cx="110.0" cy="42.0" r="5.5" fill="#cdd9c7" opacity="1.0"/><circle cx="107.5" cy="65.9" r="4.2" fill="#cdd9c7" opacity="1.0"/><path d="M103.3 65.6 L102.7 87.6 L109.2 88.0 L111.7 66.2 Z" fill="#cdd9c7" opacity="1.0"/><circle cx="107.5" cy="65.9" r="4.2" fill="#cdd9c7" opacity="1.0"/><circle cx="106.0" cy="87.8" r="3.2" fill="#cdd9c7" opacity="1.0"/><circle cx="106.0" cy="87.8" r="4.2" fill="#cdd9c7" opacity="1.0"/><path d="M103.5 41.3 L103.8 53.4 L113.7 54.5 L116.5 42.7 Z" fill="#bdcbb7" opacity="1.0"/><circle cx="110.0" cy="42.0" r="6.5" fill="#bdcbb7" opacity="1.0"/><circle cx="108.7" cy="53.9" r="5.0" fill="#bdcbb7" opacity="1.0"/><path d="M114.2 42.0 L114.0 37.0 L106.0 37.0 L105.8 42.0 Z" fill="#cdd9c7" opacity="1.0"/><circle cx="110.0" cy="42.0" r="4.2" fill="#cdd9c7" opacity="1.0"/><circle cx="110.0" cy="37.0" r="4.0" fill="#cdd9c7" opacity="1.0"/><circle cx="110.0" cy="26.1" r="11.0" fill="#bdcbb7" opacity="1.0"/><circle cx="113.6" cy="27.5" r="9.3" fill="#cdd9c7" opacity="1.0"/><path d="M103.4 88.9 L121.2 113.1 L130.6 107.3 L116.6 80.6 Z" fill="#cfa87f" opacity="1.0"/><circle cx="110.0" cy="84.7" r="7.8" fill="#cfa87f" opacity="1.0"/><circle cx="125.9" cy="110.2" r="5.5" fill="#cfa87f" opacity="1.0"/><path d="M120.5 111.0 L126.1 138.4 L133.5 137.4 L131.3 109.4 Z" fill="#cfa87f" opacity="1.0"/><circle cx="125.9" cy="110.2" r="5.5" fill="#cfa87f" opacity="1.0"/><circle cx="129.8" cy="137.9" r="3.8" fill="#cfa87f" opacity="1.0"/><path d="M130.5 142.1 L142.1 138.8 L141.1 132.9 L129.1 133.7 Z" fill="#9cba76" opacity="1.0"/><circle cx="129.8" cy="137.9" r="4.2" fill="#9cba76" opacity="1.0"/><circle cx="141.6" cy="135.8" r="3.0" fill="#9cba76" opacity="1.0"/><path d="M102.6 89.4 L112.4 100.9 L123.5 94.0 L117.4 80.1 Z" fill="#1d3325" opacity="1.0"/><circle cx="110.0" cy="84.7" r="8.8" fill="#1d3325" opacity="1.0"/><circle cx="117.9" cy="97.5" r="6.5" fill="#1d3325" opacity="1.0"/><path d="M114.9 47.3 L125.0 25.6 L117.5 21.6 L105.1 42.2 Z" fill="#cfa87f" opacity="1.0"/><circle cx="110.0" cy="44.7" r="5.5" fill="#cfa87f" opacity="1.0"/><circle cx="121.3" cy="23.6" r="4.2" fill="#cfa87f" opacity="1.0"/><path d="M125.3 25.0 L131.8 4.0 L125.7 1.8 L117.3 22.1 Z" fill="#cfa87f" opacity="1.0"/><circle cx="121.3" cy="23.6" r="4.2" fill="#cfa87f" opacity="1.0"/><circle cx="128.8" cy="2.9" r="3.2" fill="#cfa87f" opacity="1.0"/><circle cx="128.8" cy="2.9" r="4.2" fill="#cfa87f" opacity="1.0"/><path d="M115.7 47.8 L120.0 36.5 L111.2 31.8 L104.3 41.7 Z" fill="#334d3c" opacity="1.0"/><circle cx="110.0" cy="44.7" r="6.5" fill="#334d3c" opacity="1.0"/><circle cx="115.6" cy="34.2" r="5.0" fill="#334d3c" opacity="1.0"/><path d="M118.0 84.7 L120.0 44.7 L100.0 44.7 L102.0 84.7 Z" fill="#41604b" opacity="1.0"/><circle cx="110.0" cy="84.7" r="8.0" fill="#41604b" opacity="1.0"/><circle cx="110.0" cy="44.7" r="10.0" fill="#41604b" opacity="1.0"/><path d="M118.5 84.7 L118.5 75.9 L101.5 75.9 L101.5 84.7 Z" fill="#26402f" opacity="1.0"/><circle cx="110.0" cy="84.7" r="8.5" fill="#26402f" opacity="1.0"/><circle cx="110.0" cy="75.9" r="8.5" fill="#26402f" opacity="1.0"/><path d="M103.4 80.6 L89.4 107.3 L98.8 113.1 L116.6 88.9 Z" fill="#e8c49e" opacity="1.0"/><circle cx="110.0" cy="84.7" r="7.8" fill="#e8c49e" opacity="1.0"/><circle cx="94.1" cy="110.2" r="5.5" fill="#e8c49e" opacity="1.0"/><path d="M88.7 109.4 L86.5 137.4 L93.9 138.4 L99.5 111.0 Z" fill="#e8c49e" opacity="1.0"/><circle cx="94.1" cy="110.2" r="5.5" fill="#e8c49e" opacity="1.0"/><circle cx="90.2" cy="137.9" r="3.8" fill="#e8c49e" opacity="1.0"/><path d="M89.5 142.1 L101.5 143.0 L102.5 137.0 L90.9 133.7 Z" fill="#b9d492" opacity="1.0"/><circle cx="90.2" cy="137.9" r="4.2" fill="#b9d492" opacity="1.0"/><circle cx="102.0" cy="140.0" r="3.0" fill="#b9d492" opacity="1.0"/><path d="M102.6 80.1 L96.5 94.0 L107.6 100.9 L117.4 89.4 Z" fill="#26402f" opacity="1.0"/><circle cx="110.0" cy="84.7" r="8.8" fill="#26402f" opacity="1.0"/><circle cx="102.1" cy="97.5" r="6.5" fill="#26402f" opacity="1.0"/><path d="M114.9 42.2 L102.5 21.6 L95.0 25.6 L105.1 47.3 Z" fill="#e8c49e" opacity="1.0"/><circle cx="110.0" cy="44.7" r="5.5" fill="#e8c49e" opacity="1.0"/><circle cx="98.7" cy="23.6" r="4.2" fill="#e8c49e" opacity="1.0"/><path d="M102.7 22.1 L94.3 1.8 L88.2 4.0 L94.7 25.0 Z" fill="#e8c49e" opacity="1.0"/><circle cx="98.7" cy="23.6" r="4.2" fill="#e8c49e" opacity="1.0"/><circle cx="91.2" cy="2.9" r="3.2" fill="#e8c49e" opacity="1.0"/><circle cx="91.2" cy="2.9" r="4.2" fill="#e8c49e" opacity="1.0"/><path d="M115.7 41.7 L108.8 31.8 L100.0 36.5 L104.3 47.8 Z" fill="#41604b" opacity="1.0"/><circle cx="110.0" cy="44.7" r="6.5" fill="#41604b" opacity="1.0"/><circle cx="104.4" cy="34.2" r="5.0" fill="#41604b" opacity="1.0"/><path d="M114.2 44.7 L114.0 39.7 L106.0 39.7 L105.8 44.7 Z" fill="#e8c49e" opacity="1.0"/><circle cx="110.0" cy="44.7" r="4.2" fill="#e8c49e" opacity="1.0"/><circle cx="110.0" cy="39.7" r="4.0" fill="#e8c49e" opacity="1.0"/><circle cx="110.0" cy="28.8" r="11.0" fill="#2a3b2e" opacity="1.0"/><circle cx="113.6" cy="30.2" r="9.3" fill="#e8c49e" opacity="1.0"/><path d="M100.3 93.1 A56 56 0 0 1 54.0 40.0" fill="none" stroke="#7d9a6e" stroke-width="3.2" stroke-linecap="round"/><path d="M58.8 48.2 L54.0 40.0 L49.9 48.5" fill="none" stroke="#7d9a6e" stroke-width="3.2" stroke-linecap="round" stroke-linejoin="round" opacity="1.0"/><path d="M119.7 93.1 A56 56 0 0 0 166.0 40.0" fill="none" stroke="#7d9a6e" stroke-width="3.2" stroke-linecap="round"/><path d="M170.1 48.5 L166.0 40.0 L161.2 48.2" fill="none" stroke="#7d9a6e" stroke-width="3.2" stroke-linecap="round" stroke-linejoin="round" opacity="1.0"/></svg>