<svg xmlns="http://www.w3.org/2000/svg" viewBox="21.6 3.5 215.6 156.8" role="img" aria-label="Standing knee lifts" xmlns:c2pa="http://c2pa.org/manifest"><metadata><c2pa:manifest>AAAWgmp1bWIAAAAeanVtZGMycGEAEQAQgAAAqgA4m3EDYzJwYQAAABZcanVtYgAAAEdqdW1kYzJtYQARABCAAACqADibcQN1cm46YzJwYTpkNzQwNWU5ZS02MmFhLTQ5NzktYmQ3OS1iZjJiMDNiYzU1NTEAAAADl2p1bWIAAAApanVtZGMyYXMAEQAQgAAAqgA4m3EDYzJwYS5hc3NlcnRpb25zAAAAALxqdW1iAAAARGp1bWRjYm9yABEAEIAAAKoAOJtxE2MycGEuaW5ncmVkaWVudC52MwAAAAAYYzJzaFiCLLXme2lE23hh5sUuv/QAAABwY2JvcqNpZGM6Zm9ybWF0bWltYWdlL3N2Zyt4bWxqaW5zdGFuY2VJRHgseG1wOmlpZDpjZWJlMjdjMC01ZWE0LTQwY2YtOWE2Zi03NDZhZWIyNDM1YzhscmVsYXRpb25zaGlwaHBhcmVudE9mAAAB4mp1bWIAAABBanVtZGNib3IAEQAQgAAAqgA4m3ETYzJwYS5hY3Rpb25zLnYyAAAAABhjMnNo/XlNzecuCME+WkNCE0WI+QAAAZljYm9yomdhY3Rpb25zgqJmYWN0aW9ua2MycGEub3BlbmVkanBhcmFtZXRlcnOha2luZ3JlZGllbnRzgaJjdXJseC1zZWxmI2p1bWJmPWMycGEuYXNzZXJ0aW9ucy9jMnBhLmluZ3JlZGllbnQudjNkaGFzaFggc9jsUa3HyTrbV7/tLxk7hC3gXYoQk0G6TnPy7kqMrlqkZmFjdGlvbngdY29tLmFudGhyb3BpYy5jbGF1ZGUucHJvdmlkZWRqcGFyYW1ldGVyc6F4H2NvbS5hbnRocm9waWMub3JpZ2luLWNvbmZpZGVuY2VndW5rbm93bmtkZXNjcmlwdGlvbnhmQ2xhdWRlIHByb3ZpZGVkIHRoaXMgZmlsZSBhdCB0aGUgcmVxdWVzdCBvZiBhIHVzZXIgYW5kIG1heSBoYXZlIGNyZWF0ZWQgb3IgbW9kaWZpZWQgdGhlIGZpbGUgY29udGVudHMubXNvZnR3YXJlQWdlbnShZG5hbWVmQ2xhdWRlcmFsbEFjdGlvbnNJbmNsdWRlZPUAAADIanVtYgAAAEBqdW1kY2JvcgARABCAAACqADibcRNjMnBhLmhhc2guZGF0YQAAAAAYYzJzaDMoaRoGGgHpVaz1wfoWDHQAAACAY2JvcqVjYWxnZnNoYTI1NmNwYWRNAAAAAAAAAAAAAAAAAGRoYXNoWCCKIJtaP3tfBCKoZDxMMt+S304l6L7cJ1GkblsafvF5n2RuYW1lbmp1bWJmIG1hbmlmZXN0amV4Y2x1c2lvbnOBomVzdGFydBiyZmxlbmd0aBkeBAAAAj5qdW1iAAAAJ2p1bWRjMmNsABEAEIAAAKoAOJtxA2MycGEuY2xhaW0udjIAAAACD2Nib3KlY2FsZ2ZzaGEyNTZpc2lnbmF0dXJleE1zZWxmI2p1bWJmPS9jMnBhL3VybjpjMnBhOmQ3NDA1ZTllLTYyYWEtNDk3OS1iZDc5LWJmMmIwM2JjNTU1MS9jMnBhLnNpZ25hdHVyZWppbnN0YW5jZUlEeCx4bXA6aWlkOjNhZTYzZjdiLWY0NWEtNDBmZS1hYzhmLTY5ZmMxMTg4ZDE4M3JjcmVhdGVkX2Fzc2VydGlvbnODomN1cmx4LXNlbGYjanVtYmY9YzJwYS5hc3NlcnRpb25zL2MycGEuaW5ncmVkaWVudC52M2RoYXNoWCBz2OxRrcfJOttXv+0vGTuELeBdihCTQbpOc/LuSoyuWqJjdXJseCpzZWxmI2p1bWJmPWMycGEuYXNzZXJ0aW9ucy9jMnBhLmFjdGlvbnMudjJkaGFzaFggz3gzqPGAFyu0LGDzFvF1lod10vi1KYo+oGbUGDV+jC6iY3VybHgpc2VsZiNqdW1iZj1jMnBhLmFzc2VydGlvbnMvYzJwYS5oYXNoLmRhdGFkaGFzaFgg4em1L1npOXOVz/4hgLFQ2e8AsF56vCBjVP2GMHz7ykV0Y2xhaW1fZ2VuZXJhdG9yX2luZm+jZG5hbWVvQW50aHJvcGljIEZpbGVzZ3ZlcnNpb25lMS4wLjBrc3BlY1ZlcnNpb25lMi40LjAAABA4anVtYgAAAChqdW1kYzJjcwARABCAAACqADibcQNjMnBhLnNpZ25hdHVyZQAAABAIY2JvctKEWQISogEmGCFZAgowggIGMIIBjaADAgECAhRA5aAK7sI50L64g/oGQgU9Z1UTADAKBggqhkjOPQQDAzBJMRcwFQYDVQQKEw5BbnRocm9waWMsIFBCQzEuMCwGA1UEAxMlQW50aHJvcGljIENvbnRlbnQgQ3JlZGVudGlhbHMgUm9vdCBDQTAeFw0yNjA4MDcxODQzNTZaFw0yODA4MDYxOTQzNTZaMEQxFzAVBgNVBAoTDkFudGhyb3BpYywgUEJDMSkwJwYDVQQDEyBBbnRocm9waWMgQ2xhdWRlIENvbnRlbnQgU2lnbmluZzBZMBMGByqGSM49AgEGCCqGSM49AwEHA0IABJh6CmvLUBgFFNU0vUKlOVtE6djd17L5SuwX0LemFisBM3dkd/3cyjxFA3Qo5S46fX0/ihY0VZ7mfb9KF703t5OjWDBWMA4GA1UdDwEB/wQEAwIHgDAVBgNVHSUEDjAMBgorBgEEAYPoXgIBMAwGA1UdEwEB/wQCMAAwHwYDVR0jBBgwFoAUzlHiBIFOZFsj+OPEz5o+nMHXXMIwCgYIKoZIzj0EAwMDZwAwZAIwMXMdFJ4BetLLVY7ORuE9noqbbAZOZn/aArXyTwFAZfKrPzxF2vPoJNf1+UCdg1XGAjBwX1zd9WGqYkqmL5SFqw1QySjr1zJfpJM9+1rdDwSPLMOPOjKuiXjoU/pUUeG9RwmhY3BhZFkNngAAAAAAAAAAAAAAAAAAAAAAAAAAAAAAAAAAAAAAAAAAAAAAAAAAAAAAAAAAAAAAAAAAAAAAAAAAAAAAAAAAAAAAAAAAAAAAAAAAAAAAAAAAAAAAAAAAAAAAAAAAAAAAAAAAAAAAAAAAAAAAAAAAAAAAAAAAAAAAAAAAAAAAAAAAAAAAAAAAAAAAAAAAAAAAAAAAAAAAAAAAAAAAAAAAAAAAAAAAAAAAAAAAAAAAAAAAAAAAAAAAAAAAAAAAAAAAAAAAAAAAAAAAAAAAAAAAAAAAAAAAAAAAAAAAAAAAAAAAAAAAAAAAAAAAAAAAAAAAAAAAAAAAAAAAAAAAAAAAAAAAAAAAAAAAAAAAAAAAAAAAAAAAAAAAAAAAAAAAAAAAAAAAAAAAAAAAAAAAAAAAAAAAAAAAAAAAAAAAAAAAAAAAAAAAAAAAAAAAAAAAAAAAAAAAAAAAAAAAAAAAAAAAAAAAAAAAAAAAAAAAAAAAAAAAAAAAAAAAAAAAAAAAAAAAAAAAAAAAAAAAAAAAAAAAAAAAAAAAAAAAAAAAAAAAAAAAAAAAAAAAAAAAAAAAAAAAAAAAAAAAAAAAAAAAAAAAAAAAAAAAAAAAAAAAAAAAAAAAAAAAAAAAAAAAAAAAAAAAAAAAAAAAAAAAAAAAAAAAAAAAAAAAAAAAAAAAAAAAAAAAAAAAAAAAAAAAAAAAAAAAAAAAAAAAAAAAAAAAAAAAAAAAAAAAAAAAAAAAAAAAAAAAAAAAAAAAAAAAAAAAAAAAAAAAAAAAAAAAAAAAAAAAAAAAAAAAAAAAAAAAAAAAAAAAAAAAAAAAAAAAAAAAAAAAAAAAAAAAAAAAAAAAAAAAAAAAAAAAAAAAAAAAAAAAAAAAAAAAAAAAAAAAAAAAAAAAAAAAAAAAAAAAAAAAAAAAAAAAAAAAAAAAAAAAAAAAAAAAAAAAAAAAAAAAAAAAAAAAAAAAAAAAAAAAAAAAAAAAAAAAAAAAAAAAAAAAAAAAAAAAAAAAAAAAAAAAAAAAAAAAAAAAAAAAAAAAAAAAAAAAAAAAAAAAAAAAAAAAAAAAAAAAAAAAAAAAAAAAAAAAAAAAAAAAAAAAAAAAAAAAAAAAAAAAAAAAAAAAAAAAAAAAAAAAAAAAAAAAAAAAAAAAAAAAAAAAAAAAAAAAAAAAAAAAAAAAAAAAAAAAAAAAAAAAAAAAAAAAAAAAAAAAAAAAAAAAAAAAAAAAAAAAAAAAAAAAAAAAAAAAAAAAAAAAAAAAAAAAAAAAAAAAAAAAAAAAAAAAAAAAAAAAAAAAAAAAAAAAAAAAAAAAAAAAAAAAAAAAAAAAAAAAAAAAAAAAAAAAAAAAAAAAAAAAAAAAAAAAAAAAAAAAAAAAAAAAAAAAAAAAAAAAAAAAAAAAAAAAAAAAAAAAAAAAAAAAAAAAAAAAAAAAAAAAAAAAAAAAAAAAAAAAAAAAAAAAAAAAAAAAAAAAAAAAAAAAAAAAAAAAAAAAAAAAAAAAAAAAAAAAAAAAAAAAAAAAAAAAAAAAAAAAAAAAAAAAAAAAAAAAAAAAAAAAAAAAAAAAAAAAAAAAAAAAAAAAAAAAAAAAAAAAAAAAAAAAAAAAAAAAAAAAAAAAAAAAAAAAAAAAAAAAAAAAAAAAAAAAAAAAAAAAAAAAAAAAAAAAAAAAAAAAAAAAAAAAAAAAAAAAAAAAAAAAAAAAAAAAAAAAAAAAAAAAAAAAAAAAAAAAAAAAAAAAAAAAAAAAAAAAAAAAAAAAAAAAAAAAAAAAAAAAAAAAAAAAAAAAAAAAAAAAAAAAAAAAAAAAAAAAAAAAAAAAAAAAAAAAAAAAAAAAAAAAAAAAAAAAAAAAAAAAAAAAAAAAAAAAAAAAAAAAAAAAAAAAAAAAAAAAAAAAAAAAAAAAAAAAAAAAAAAAAAAAAAAAAAAAAAAAAAAAAAAAAAAAAAAAAAAAAAAAAAAAAAAAAAAAAAAAAAAAAAAAAAAAAAAAAAAAAAAAAAAAAAAAAAAAAAAAAAAAAAAAAAAAAAAAAAAAAAAAAAAAAAAAAAAAAAAAAAAAAAAAAAAAAAAAAAAAAAAAAAAAAAAAAAAAAAAAAAAAAAAAAAAAAAAAAAAAAAAAAAAAAAAAAAAAAAAAAAAAAAAAAAAAAAAAAAAAAAAAAAAAAAAAAAAAAAAAAAAAAAAAAAAAAAAAAAAAAAAAAAAAAAAAAAAAAAAAAAAAAAAAAAAAAAAAAAAAAAAAAAAAAAAAAAAAAAAAAAAAAAAAAAAAAAAAAAAAAAAAAAAAAAAAAAAAAAAAAAAAAAAAAAAAAAAAAAAAAAAAAAAAAAAAAAAAAAAAAAAAAAAAAAAAAAAAAAAAAAAAAAAAAAAAAAAAAAAAAAAAAAAAAAAAAAAAAAAAAAAAAAAAAAAAAAAAAAAAAAAAAAAAAAAAAAAAAAAAAAAAAAAAAAAAAAAAAAAAAAAAAAAAAAAAAAAAAAAAAAAAAAAAAAAAAAAAAAAAAAAAAAAAAAAAAAAAAAAAAAAAAAAAAAAAAAAAAAAAAAAAAAAAAAAAAAAAAAAAAAAAAAAAAAAAAAAAAAAAAAAAAAAAAAAAAAAAAAAAAAAAAAAAAAAAAAAAAAAAAAAAAAAAAAAAAAAAAAAAAAAAAAAAAAAAAAAAAAAAAAAAAAAAAAAAAAAAAAAAAAAAAAAAAAAAAAAAAAAAAAAAAAAAAAAAAAAAAAAAAAAAAAAAAAAAAAAAAAAAAAAAAAAAAAAAAAAAAAAAAAAAAAAAAAAAAAAAAAAAAAAAAAAAAAAAAAAAAAAAAAAAAAAAAAAAAAAAAAAAAAAAAAAAAAAAAAAAAAAAAAAAAAAAAAAAAAAAAAAAAAAAAAAAAAAAAAAAAAAAAAAAAAAAAAAAAAAAAAAAAAAAAAAAAAAAAAAAAAAAAAAAAAAAAAAAAAAAAAAAAAAAAAAAAAAAAAAAAAAAAAAAAAAAAAAAAAAAAAAAAAAAAAAAAAAAAAAAAAAAAAAAAAAAAAAAAAAAAAAAAAAAAAAAAAAAAAAAAAAAAAAAAAAAAAAAAAAAAAAAAAAAAAAAAAAAAAAAAAAAAAAAAAAAAAAAAAAAAAAAAAAAAAAAAAAAAAAAAAAAAAAAAAAAAAAAAAAAAAAAAAAAAAAAAAAAAAAAAAAAAAAAAAAAAAAAAAAAAAAAAAAAAAAAAAAAAAAAAAAAAAAAAAAAAAAAAAAAAAAAAAAAAAAAAAAAAAAAAAAAAAAAAAAAAAAAAAAAAAAAAAAAAAAAAAAAAAAAAAAAAAAAAAAAAAAAAAAAAAAAAAAAAAAAAAAAAAAAAAAAAAAAAAAAAAAAAAAAAAAAAAAAAAAAAAAAAAAAAAAAAAAAAAAAAAAAAAAAAAAAAAAAAAAAAAAAAAAAAAAAAAAAAAAAAAAAAAAAAAAAAAAAAAAAAAAAAAAAAAAAAAAAAAAAAAAAAAAAAAAAAAAAAAAAAAAAAAAAAAAAAAAAAAAAAAAAAAAAAAAAAAAAAAAAAAAAAAAAAAAAAAAAAAAAAAAAAAAAAAAAAAAAAAAAAAAAAAAAAAAAAAAAAAAAAAAAAAAAAAAAAAAAAAAAAAAAAAAAAAAAAAAAAAAAAAAAAAAAAAAAAAAAAAAAAAAAAAAAAAAAAAAAAAAAAAAAAAAAAAAAAAAAAAAAAAAAAAAAAAAAAAAAAAAAAAAAAAAAAAAAAAAAAAAAAAAAAAAAAAAAAAAAAAAAAAAAAAAAAAAAAAAAAAAAAAAAAAAAAAAAAAAAAAAAAAAAAAAAAAAAAAAAAAAAAAAAAAAAAAAAAAAAAAAAAAAAAAAAAAAAAAAAAAAAAAAAAAAAAAAAAAAAAAAAAAAAAAAAAAAAAAAAAAAAAAAAAAAAAAAAAAAAAAAAAAAAAAAAAAAAAAAAAAAAAAAAAAAAAAAAAAAAAAAAAAAAAAAAAAAAAAAAAAAAAAAAAAAAAAAAAAAAAAAAAAAAAAAAAAAAAAAAAAAAAAAAAAAAAAAAAAAAAAAAAAAAAAAAAAAAAAAAAAAAAAAAAAAAAAAAAAAAAAAAAAAAAAAAAAAAAAAAAAAAAAAAAAAAAAAAAAAAAAAAAAAAAAAAAAAAAAAAAAAAAAAAAAAAAAAAAAAAAAAAAAAAAAAAAAAAAAAAAAAAAAAAAAAAAAAAAAAAAAAAAAAAAAAAAAAAAAAAAAAAAAAAAAAAAAAAAAAAAAAAAAAAAAAAAAAAAAAAAAAAAAAAAAAAAAAAAAAAAAAAAAAAAAAAAAAAAAAAAAAAAAAAAAAAAAAAAAAAAAAAAAAAAAAAAAAAAAAAAAAAAAAAAAAAAAAAAAAAAAAAAAAAAAAAAAAAAAAAAAAAAAAAAAAAAAAAAAAAAAAAAAAAAAAAAAAAAAAAAAAAAAAAAAAAAAAAAAAAAAAAAAAAAAAAAAAAAAAAAAAAAAAAAAAAAAAAAAAAAAAAAAAAAAAAAAAAAAAAAAAAAAAAAAAAAAAAAAAAAAAAAAAAAAAAAAAAAAAAAAAAAAAAAAAAAAAAAAAAAAAAAAAAAAAAAAAAAAAAAAAAAAAAAAAAAAAAAAAAAAAAAAAAAAAAAAAAAAAAAAAAAAAAAAAAAAAAAAAAAAAAAAAAAAAAAAAAAAAAAAAAAAAAAAAAAAAAAAAAAAAAAAAAAAAAAAAAAAAAAPZYQAKLq4DHDU6axVOUMa4vMspCJ/CHmHE9QCAW5Sv3LPzO4UdEUJ7YitJyBkUVvf00g9Se+YutWmvuNOOFEkaE5HE=</c2pa:manifest></metadata><title>Standing knee lifts</title><path d="M32.4 140 L226.5 140" stroke="#cfd8cb" stroke-width="4.39" stroke-linecap="round" fill="none"/><path d="M102.2 82.0 L104.5 112.0 L115.5 112.0 L117.8 82.0 Z" fill="#cdd9c7" opacity="1.0"/><circle cx="110.0" cy="82.0" r="7.8" fill="#cdd9c7" opacity="1.0"/><circle cx="110.0" cy="112.0" r="5.5" fill="#cdd9c7" opacity="1.0"/><path d="M104.5 112.0 L106.2 140.0 L113.8 140.0 L115.5 112.0 Z" fill="#cdd9c7" opacity="1.0"/><circle cx="110.0" cy="112.0" r="5.5" fill="#cdd9c7" opacity="1.0"/><circle cx="110.0" cy="140.0" r="3.8" fill="#cdd9c7" opacity="1.0"/><path d="M110.0 144.2 L122.0 143.0 L122.0 137.0 L110.0 135.8 Z" fill="#bdcbb7" opacity="1.0"/><circle cx="110.0" cy="140.0" r="4.2" fill="#bdcbb7" opacity="1.0"/><circle cx="122.0" cy="140.0" r="3.0" fill="#bdcbb7" opacity="1.0"/><path d="M101.2 82.0 L103.5 97.0 L116.5 97.0 L118.8 82.0 Z" fill="#bdcbb7" opacity="1.0"/><circle cx="110.0" cy="82.0" r="8.8" fill="#bdcbb7" opacity="1.0"/><circle cx="110.0" cy="97.0" r="6.5" fill="#bdcbb7" opacity="1.0"/><path d="M104.6 43.0 L110.0 66.4 L118.4 64.9 L115.4 41.0 Z" fill="#cdd9c7" opacity="1.0"/><circle cx="110.0" cy="42.0" r="5.5" fill="#cdd9c7" opacity="1.0"/><circle cx="114.2" cy="65.6" r="4.2" fill="#cdd9c7" opacity="1.0"/><path d="M110.1 66.9 L117.9 87.6 L124.1 85.6 L118.2 64.3 Z" fill="#cdd9c7" opacity="1.0"/><circle cx="114.2" cy="65.6" r="4.2" fill="#cdd9c7" opacity="1.0"/><circle cx="121.0" cy="86.6" r="3.2" fill="#cdd9c7" opacity="1.0"/><circle cx="121.0" cy="86.6" r="4.2" fill="#cdd9c7" opacity="1.0"/><path d="M103.6 43.1 L107.2 54.7 L117.0 52.9 L116.4 40.9 Z" fill="#bdcbb7" opacity="1.0"/><circle cx="110.0" cy="42.0" r="6.5" fill="#bdcbb7" opacity="1.0"/><circle cx="112.1" cy="53.8" r="5.0" fill="#bdcbb7" opacity="1.0"/><path d="M118.0 82.0 L120.0 42.0 L100.0 42.0 L102.0 82.0 Z" fill="#bdcbb7" opacity="1.0"/><circle cx="110.0" cy="82.0" r="8.0" fill="#bdcbb7" opacity="1.0"/><circle cx="110.0" cy="42.0" r="10.0" fill="#bdcbb7" opacity="1.0"/><path d="M118.5 82.0 L118.5 73.2 L101.5 73.2 L101.5 82.0 Z" fill="#bdcbb7" opacity="1.0"/><circle cx="110.0" cy="82.0" r="8.5" fill="#bdcbb7" opacity="1.0"/><circle cx="110.0" cy="73.2" r="8.5" fill="#bdcbb7" opacity="1.0"/><path d="M102.2 82.0 L104.5 112.0 L115.5 112.0 L117.8 82.0 Z" fill="#cdd9c7" opacity="1.0"/><circle cx="110.0" cy="82.0" r="7.8" fill="#cdd9c7" opacity="1.0"/><circle cx="110.0" cy="112.0" r="5.5" fill="#cdd9c7" opacity="1.0"/><path d="M104.5 112.0 L106.2 140.0 L113.8 140.0 L115.5 112.0 Z" fill="#cdd9c7" opacity="1.0"/><circle cx="110.0" cy="112.0" r="5.5" fill="#cdd9c7" opacity="1.0"/><circle cx="110.0" cy="140.0" r="3.8" fill="#cdd9c7" opacity="1.0"/><path d="M110.0 144.2 L122.0 143.0 L122.0 137.0 L110.0 135.8 Z" fill="#bdcbb7" opacity="1.0"/><circle cx="110.0" cy="140.0" r="4.2" fill="#bdcbb7" opacity="1.0"/><circle cx="122.0" cy="140.0" r="3.0" fill="#bdcbb7" opacity="1.0"/><path d="M101.2 82.0 L103.5 97.0 L116.5 97.0 L118.8 82.0 Z" fill="#bdcbb7" opacity="1.0"/><circle cx="110.0" cy="82.0" r="8.8" fill="#bdcbb7" opacity="1.0"/><circle cx="110.0" cy="97.0" r="6.5" fill="#bdcbb7" opacity="1.0"/><path d="M104.6 41.0 L101.6 64.9 L110.0 66.4 L115.4 43.0 Z" fill="#cdd9c7" opacity="1.0"/><circle cx="110.0" cy="42.0" r="5.5" fill="#cdd9c7" opacity="1.0"/><circle cx="105.8" cy="65.6" r="4.2" fill="#cdd9c7" opacity="1.0"/><path d="M101.6 65.5 L101.8 87.5 L108.3 87.7 L110.1 65.8 Z" fill="#cdd9c7" opacity="1.0"/><circle cx="105.8" cy="65.6" r="4.2" fill="#cdd9c7" opacity="1.0"/><circle cx="105.1" cy="87.6" r="3.2" fill="#cdd9c7" opacity="1.0"/><circle cx="105.1" cy="87.6" r="4.2" fill="#cdd9c7" opacity="1.0"/><path d="M103.6 40.9 L103.0 52.9 L112.8 54.7 L116.4 43.1 Z" fill="#bdcbb7" opacity="1.0"/><circle cx="110.0" cy="42.0" r="6.5" fill="#bdcbb7" opacity="1.0"/><circle cx="107.9" cy="53.8" r="5.0" fill="#bdcbb7" opacity="1.0"/><path d="M114.2 42.0 L114.0 37.0 L106.0 37.0 L105.8 42.0 Z" fill="#cdd9c7" opacity="1.0"/><circle cx="110.0" cy="42.0" r="4.2" fill="#cdd9c7" opacity="1.0"/><circle cx="110.0" cy="37.0" r="4.0" fill="#cdd9c7" opacity="1.0"/><circle cx="110.0" cy="26.1" r="11.0" fill="#bdcbb7" opacity="1.0"/><circle cx="113.6" cy="27.5" r="9.3" fill="#cdd9c7" opacity="1.0"/><path d="M102.2 87.1 L104.5 117.1 L115.5 117.1 L117.8 87.1 Z" fill="#cfa87f" opacity="1.0"/><circle cx="110.0" cy="87.1" r="7.8" fill="#cfa87f" opacity="1.0"/><circle cx="110.0" cy="117.1" r="5.5" fill="#cfa87f" opacity="1.0"/><path d="M104.5 117.1 L106.2 145.1 L113.8 145.1 L115.5 117.1 Z" fill="#cfa87f" opacity="1.0"/><circle cx="110.0" cy="117.1" r="5.5" fill="#cfa87f" opacity="1.0"/><circle cx="110.0" cy="145.1" r="3.8" fill="#cfa87f" opacity="1.0"/><path d="M111.8 148.9 L122.1 142.7 L119.6 137.3 L108.2 141.2 Z" fill="#9cba76" opacity="1.0"/><circle cx="110.0" cy="145.1" r="4.2" fill="#9cba76" opacity="1.0"/><circle cx="120.9" cy="140.0" r="3.0" fill="#9cba76" opacity="1.0"/><path d="M101.2 87.1 L103.5 102.1 L116.5 102.1 L118.8 87.1 Z" fill="#1d3325" opacity="1.0"/><circle cx="110.0" cy="87.1" r="8.8" fill="#1d3325" opacity="1.0"/><circle cx="110.0" cy="102.1" r="6.5" fill="#1d3325" opacity="1.0"/><path d="M104.6 46.1 L101.6 70.0 L110.0 71.4 L115.4 48.0 Z" fill="#cfa87f" opacity="1.0"/><circle cx="110.0" cy="47.1" r="5.5" fill="#cfa87f" opacity="1.0"/><circle cx="105.8" cy="70.7" r="4.2" fill="#cfa87f" opacity="1.0"/><path d="M101.6 70.7 L102.6 92.7 L109.1 92.7 L110.1 70.7 Z" fill="#cfa87f" opacity="1.0"/><circle cx="105.8" cy="70.7" r="4.2" fill="#cfa87f" opacity="1.0"/><circle cx="105.8" cy="92.7" r="3.2" fill="#cfa87f" opacity="1.0"/><circle cx="105.8" cy="92.7" r="4.2" fill="#cfa87f" opacity="1.0"/><path d="M103.6 45.9 L103.0 58.0 L112.8 59.8 L116.4 48.2 Z" fill="#334d3c" opacity="1.0"/><circle cx="110.0" cy="47.1" r="6.5" fill="#334d3c" opacity="1.0"/><circle cx="107.9" cy="58.9" r="5.0" fill="#334d3c" opacity="1.0"/><path d="M118.0 87.1 L120.0 47.1 L100.0 47.1 L102.0 87.1 Z" fill="#41604b" opacity="1.0"/><circle cx="110.0" cy="87.1" r="8.0" fill="#41604b" opacity="1.0"/><circle cx="110.0" cy="47.1" r="10.0" fill="#41604b" opacity="1.0"/><path d="M118.5 87.1 L118.5 78.3 L101.5 78.3 L101.5 87.1 Z" fill="#26402f" opacity="1.0"/><circle cx="110.0" cy="87.1" r="8.5" fill="#26402f" opacity="1.0"/><circle cx="110.0" cy="78.3" r="8.5" fill="#26402f" opacity="1.0"/><path d="M108.4 94.7 L138.2 98.7 L140.5 87.9 L111.6 79.5 Z" fill="#e8c49e" opacity="1.0"/><circle cx="110.0" cy="87.1" r="7.8" fill="#e8c49e" opacity="1.0"/><circle cx="139.3" cy="93.3" r="5.5" fill="#e8c49e" opacity="1.0"/><path d="M134.1 95.0 L144.4 121.1 L151.6 118.8 L144.6 91.6 Z" fill="#e8c49e" opacity="1.0"/><circle cx="139.3" cy="93.3" r="5.5" fill="#e8c49e" opacity="1.0"/><circle cx="148.0" cy="119.9" r="3.8" fill="#e8c49e" opacity="1.0"/><path d="M149.8 123.8 L160.1 117.6 L157.6 112.1 L146.2 116.1 Z" fill="#b9d492" opacity="1.0"/><circle cx="148.0" cy="119.9" r="4.2" fill="#b9d492" opacity="1.0"/><circle cx="158.9" cy="114.9" r="3.0" fill="#b9d492" opacity="1.0"/><path d="M108.2 95.6 L123.3 96.5 L126.0 83.8 L111.8 78.5 Z" fill="#26402f" opacity="1.0"/><circle cx="110.0" cy="87.1" r="8.8" fill="#26402f" opacity="1.0"/><circle cx="124.7" cy="90.2" r="6.5" fill="#26402f" opacity="1.0"/><path d="M105.1 49.5 L116.7 70.5 L124.3 66.8 L114.9 44.7 Z" fill="#e8c49e" opacity="1.0"/><circle cx="110.0" cy="47.1" r="5.5" fill="#e8c49e" opacity="1.0"/><circle cx="120.5" cy="68.6" r="4.2" fill="#e8c49e" opacity="1.0"/><path d="M119.1 72.6 L140.1 79.2 L142.3 73.1 L122.0 64.6 Z" fill="#e8c49e" opacity="1.0"/><circle cx="120.5" cy="68.6" r="4.2" fill="#e8c49e" opacity="1.0"/><circle cx="141.2" cy="76.2" r="3.2" fill="#e8c49e" opacity="1.0"/><circle cx="141.2" cy="76.2" r="4.2" fill="#e8c49e" opacity="1.0"/><path d="M104.2 49.9 L110.8 60.0 L119.8 55.7 L115.8 44.2 Z" fill="#41604b" opacity="1.0"/><circle cx="110.0" cy="47.1" r="6.5" fill="#41604b" opacity="1.0"/><circle cx="115.3" cy="57.9" r="5.0" fill="#41604b" opacity="1.0"/><path d="M114.2 47.1 L114.0 42.1 L106.0 42.1 L105.8 47.1 Z" fill="#e8c49e" opacity="1.0"/><circle cx="110.0" cy="47.1" r="4.2" fill="#e8c49e" opacity="1.0"/><circle cx="110.0" cy="42.1" r="4.0" fill="#e8c49e" opacity="1.0"/><circle cx="110.0" cy="31.2" r="11.0" fill="#2a3b2e" opacity="1.0"/><circle cx="113.6" cy="32.6" r="9.3" fill="#e8c49e" opacity="1.0"/><path d="M127.9 118.2 A44 44 0 0 0 153.8 82.6" fill="none" stroke="#7d9a6e" stroke-width="3.2" stroke-linecap="round"/><path d="M157.3 91.4 L153.8 82.6 L148.4 90.5" fill="none" stroke="#7d9a6e" stroke-width="3.2" stroke-linecap="round" stroke-linejoin="round" opacity="1.0"/></svg>