<svg xmlns="http://www.w3.org/2000/svg" viewBox="5.7 -10.7 228.1 165.9" role="img" aria-label="Standing side reaches" xmlns:c2pa="http://c2pa.org/manifest"><metadata><c2pa:manifest>AAAWgmp1bWIAAAAeanVtZGMycGEAEQAQgAAAqgA4m3EDYzJwYQAAABZcanVtYgAAAEdqdW1kYzJtYQARABCAAACqADibcQN1cm46YzJwYTowNzhmMWFlZi1hMGEyLTRlYWEtOTNkOS04ZjAxMDAwMjZiMWQAAAADl2p1bWIAAAApanVtZGMyYXMAEQAQgAAAqgA4m3EDYzJwYS5hc3NlcnRpb25zAAAAALxqdW1iAAAARGp1bWRjYm9yABEAEIAAAKoAOJtxE2MycGEuaW5ncmVkaWVudC52MwAAAAAYYzJzaOsHc469rBNuxH14FZ9tz30AAABwY2JvcqNpZGM6Zm9ybWF0bWltYWdlL3N2Zyt4bWxqaW5zdGFuY2VJRHgseG1wOmlpZDo2NjYwMDQyOC1iM2MwLTRjMGEtYTFjNS0xZDFkOTdjOTczYTdscmVsYXRpb25zaGlwaHBhcmVudE9mAAAB4mp1bWIAAABBanVtZGNib3IAEQAQgAAAqgA4m3ETYzJwYS5hY3Rpb25zLnYyAAAAABhjMnNowrr3UQXaCKxoSkGEUSpBtQAAAZljYm9yomdhY3Rpb25zgqJmYWN0aW9ua2MycGEub3BlbmVkanBhcmFtZXRlcnOha2luZ3JlZGllbnRzgaJjdXJseC1zZWxmI2p1bWJmPWMycGEuYXNzZXJ0aW9ucy9jMnBhLmluZ3JlZGllbnQudjNkaGFzaFggDWIBjbQNddU/GqBmJWW+pg0zodudVk8llvY+xLVlQzikZmFjdGlvbngdY29tLmFudGhyb3BpYy5jbGF1ZGUucHJvdmlkZWRqcGFyYW1ldGVyc6F4H2NvbS5hbnRocm9waWMub3JpZ2luLWNvbmZpZGVuY2VndW5rbm93bmtkZXNjcmlwdGlvbnhmQ2xhdWRlIHByb3ZpZGVkIHRoaXMgZmlsZSBhdCB0aGUgcmVxdWVzdCBvZiBhIHVzZXIgYW5kIG1heSBoYXZlIGNyZWF0ZWQgb3IgbW9kaWZpZWQgdGhlIGZpbGUgY29udGVudHMubXNvZnR3YXJlQWdlbnShZG5hbWVmQ2xhdWRlcmFsbEFjdGlvbnNJbmNsdWRlZPUAAADIanVtYgAAAEBqdW1kY2JvcgARABCAAACqADibcRNjMnBhLmhhc2guZGF0YQAAAAAYYzJzaID5+m81Yu2lBLPKp/XEGUUAAACAY2JvcqVjYWxnZnNoYTI1NmNwYWRNAAAAAAAAAAAAAAAAAGRoYXNoWCCV99P7A5e1twCfMXZVdUn1t3QI95aJbnn7dsJ8Qvh7Q2RuYW1lbmp1bWJmIG1hbmlmZXN0amV4Y2x1c2lvbnOBomVzdGFydBi1Zmxlbmd0aBkeBAAAAj5qdW1iAAAAJ2p1bWRjMmNsABEAEIAAAKoAOJtxA2MycGEuY2xhaW0udjIAAAACD2Nib3KlY2FsZ2ZzaGEyNTZpc2lnbmF0dXJleE1zZWxmI2p1bWJmPS9jMnBhL3VybjpjMnBhOjA3OGYxYWVmLWEwYTItNGVhYS05M2Q5LThmMDEwMDAyNmIxZC9jMnBhLnNpZ25hdHVyZWppbnN0YW5jZUlEeCx4bXA6aWlkOjEwMzRkOWNiLWIxYzctNGIwZS05YjkxLWM4NmUwMjVkZDI4NnJjcmVhdGVkX2Fzc2VydGlvbnODomN1cmx4LXNlbGYjanVtYmY9YzJwYS5hc3NlcnRpb25zL2MycGEuaW5ncmVkaWVudC52M2RoYXNoWCANYgGNtA111T8aoGYlZb6mDTOh251WTyWW9j7EtWVDOKJjdXJseCpzZWxmI2p1bWJmPWMycGEuYXNzZXJ0aW9ucy9jMnBhLmFjdGlvbnMudjJkaGFzaFggHfcon0jAor3g5hPqvZc5CBsXwPh1p3QfghpeDGAbdPGiY3VybHgpc2VsZiNqdW1iZj1jMnBhLmFzc2VydGlvbnMvYzJwYS5oYXNoLmRhdGFkaGFzaFgglhraCk2foqT8+nMMNSkMUv38ahxGOWTGdFo0b7uukSd0Y2xhaW1fZ2VuZXJhdG9yX2luZm+jZG5hbWVvQW50aHJvcGljIEZpbGVzZ3ZlcnNpb25lMS4wLjBrc3BlY1ZlcnNpb25lMi40LjAAABA4anVtYgAAAChqdW1kYzJjcwARABCAAACqADibcQNjMnBhLnNpZ25hdHVyZQAAABAIY2JvctKEWQISogEmGCFZAgowggIGMIIBjaADAgECAhRA5aAK7sI50L64g/oGQgU9Z1UTADAKBggqhkjOPQQDAzBJMRcwFQYDVQQKEw5BbnRocm9waWMsIFBCQzEuMCwGA1UEAxMlQW50aHJvcGljIENvbnRlbnQgQ3JlZGVudGlhbHMgUm9vdCBDQTAeFw0yNjA4MDcxODQzNTZaFw0yODA4MDYxOTQzNTZaMEQxFzAVBgNVBAoTDkFudGhyb3BpYywgUEJDMSkwJwYDVQQDEyBBbnRocm9waWMgQ2xhdWRlIENvbnRlbnQgU2lnbmluZzBZMBMGByqGSM49AgEGCCqGSM49AwEHA0IABJh6CmvLUBgFFNU0vUKlOVtE6djd17L5SuwX0LemFisBM3dkd/3cyjxFA3Qo5S46fX0/ihY0VZ7mfb9KF703t5OjWDBWMA4GA1UdDwEB/wQEAwIHgDAVBgNVHSUEDjAMBgorBgEEAYPoXgIBMAwGA1UdEwEB/wQCMAAwHwYDVR0jBBgwFoAUzlHiBIFOZFsj+OPEz5o+nMHXXMIwCgYIKoZIzj0EAwMDZwAwZAIwMXMdFJ4BetLLVY7ORuE9noqbbAZOZn/aArXyTwFAZfKrPzxF2vPoJNf1+UCdg1XGAjBwX1zd9WGqYkqmL5SFqw1QySjr1zJfpJM9+1rdDwSPLMOPOjKuiXjoU/pUUeG9RwmhY3BhZFkNngAAAAAAAAAAAAAAAAAAAAAAAAAAAAAAAAAAAAAAAAAAAAAAAAAAAAAAAAAAAAAAAAAAAAAAAAAAAAAAAAAAAAAAAAAAAAAAAAAAAAAAAAAAAAAAAAAAAAAAAAAAAAAAAAAAAAAAAAAAAAAAAAAAAAAAAAAAAAAAAAAAAAAAAAAAAAAAAAAAAAAAAAAAAAAAAAAAAAAAAAAAAAAAAAAAAAAAAAAAAAAAAAAAAAAAAAAAAAAAAAAAAAAAAAAAAAAAAAAAAAAAAAAAAAAAAAAAAAAAAAAAAAAAAAAAAAAAAAAAAAAAAAAAAAAAAAAAAAAAAAAAAAAAAAAAAAAAAAAAAAAAAAAAAAAAAAAAAAAAAAAAAAAAAAAAAAAAAAAAAAAAAAAAAAAAAAAAAAAAAAAAAAAAAAAAAAAAAAAAAAAAAAAAAAAAAAAAAAAAAAAAAAAAAAAAAAAAAAAAAAAAAAAAAAAAAAAAAAAAAAAAAAAAAAAAAAAAAAAAAAAAAAAAAAAAAAAAAAAAAAAAAAAAAAAAAAAAAAAAAAAAAAAAAAAAAAAAAAAAAAAAAAAAAAAAAAAAAAAAAAAAAAAAAAAAAAAAAAAAAAAAAAAAAAAAAAAAAAAAAAAAAAAAAAAAAAAAAAAAAAAAAAAAAAAAAAAAAAAAAAAAAAAAAAAAAAAAAAAAAAAAAAAAAAAAAAAAAAAAAAAAAAAAAAAAAAAAAAAAAAAAAAAAAAAAAAAAAAAAAAAAAAAAAAAAAAAAAAAAAAAAAAAAAAAAAAAAAAAAAAAAAAAAAAAAAAAAAAAAAAAAAAAAAAAAAAAAAAAAAAAAAAAAAAAAAAAAAAAAAAAAAAAAAAAAAAAAAAAAAAAAAAAAAAAAAAAAAAAAAAAAAAAAAAAAAAAAAAAAAAAAAAAAAAAAAAAAAAAAAAAAAAAAAAAAAAAAAAAAAAAAAAAAAAAAAAAAAAAAAAAAAAAAAAAAAAAAAAAAAAAAAAAAAAAAAAAAAAAAAAAAAAAAAAAAAAAAAAAAAAAAAAAAAAAAAAAAAAAAAAAAAAAAAAAAAAAAAAAAAAAAAAAAAAAAAAAAAAAAAAAAAAAAAAAAAAAAAAAAAAAAAAAAAAAAAAAAAAAAAAAAAAAAAAAAAAAAAAAAAAAAAAAAAAAAAAAAAAAAAAAAAAAAAAAAAAAAAAAAAAAAAAAAAAAAAAAAAAAAAAAAAAAAAAAAAAAAAAAAAAAAAAAAAAAAAAAAAAAAAAAAAAAAAAAAAAAAAAAAAAAAAAAAAAAAAAAAAAAAAAAAAAAAAAAAAAAAAAAAAAAAAAAAAAAAAAAAAAAAAAAAAAAAAAAAAAAAAAAAAAAAAAAAAAAAAAAAAAAAAAAAAAAAAAAAAAAAAAAAAAAAAAAAAAAAAAAAAAAAAAAAAAAAAAAAAAAAAAAAAAAAAAAAAAAAAAAAAAAAAAAAAAAAAAAAAAAAAAAAAAAAAAAAAAAAAAAAAAAAAAAAAAAAAAAAAAAAAAAAAAAAAAAAAAAAAAAAAAAAAAAAAAAAAAAAAAAAAAAAAAAAAAAAAAAAAAAAAAAAAAAAAAAAAAAAAAAAAAAAAAAAAAAAAAAAAAAAAAAAAAAAAAAAAAAAAAAAAAAAAAAAAAAAAAAAAAAAAAAAAAAAAAAAAAAAAAAAAAAAAAAAAAAAAAAAAAAAAAAAAAAAAAAAAAAAAAAAAAAAAAAAAAAAAAAAAAAAAAAAAAAAAAAAAAAAAAAAAAAAAAAAAAAAAAAAAAAAAAAAAAAAAAAAAAAAAAAAAAAAAAAAAAAAAAAAAAAAAAAAAAAAAAAAAAAAAAAAAAAAAAAAAAAAAAAAAAAAAAAAAAAAAAAAAAAAAAAAAAAAAAAAAAAAAAAAAAAAAAAAAAAAAAAAAAAAAAAAAAAAAAAAAAAAAAAAAAAAAAAAAAAAAAAAAAAAAAAAAAAAAAAAAAAAAAAAAAAAAAAAAAAAAAAAAAAAAAAAAAAAAAAAAAAAAAAAAAAAAAAAAAAAAAAAAAAAAAAAAAAAAAAAAAAAAAAAAAAAAAAAAAAAAAAAAAAAAAAAAAAAAAAAAAAAAAAAAAAAAAAAAAAAAAAAAAAAAAAAAAAAAAAAAAAAAAAAAAAAAAAAAAAAAAAAAAAAAAAAAAAAAAAAAAAAAAAAAAAAAAAAAAAAAAAAAAAAAAAAAAAAAAAAAAAAAAAAAAAAAAAAAAAAAAAAAAAAAAAAAAAAAAAAAAAAAAAAAAAAAAAAAAAAAAAAAAAAAAAAAAAAAAAAAAAAAAAAAAAAAAAAAAAAAAAAAAAAAAAAAAAAAAAAAAAAAAAAAAAAAAAAAAAAAAAAAAAAAAAAAAAAAAAAAAAAAAAAAAAAAAAAAAAAAAAAAAAAAAAAAAAAAAAAAAAAAAAAAAAAAAAAAAAAAAAAAAAAAAAAAAAAAAAAAAAAAAAAAAAAAAAAAAAAAAAAAAAAAAAAAAAAAAAAAAAAAAAAAAAAAAAAAAAAAAAAAAAAAAAAAAAAAAAAAAAAAAAAAAAAAAAAAAAAAAAAAAAAAAAAAAAAAAAAAAAAAAAAAAAAAAAAAAAAAAAAAAAAAAAAAAAAAAAAAAAAAAAAAAAAAAAAAAAAAAAAAAAAAAAAAAAAAAAAAAAAAAAAAAAAAAAAAAAAAAAAAAAAAAAAAAAAAAAAAAAAAAAAAAAAAAAAAAAAAAAAAAAAAAAAAAAAAAAAAAAAAAAAAAAAAAAAAAAAAAAAAAAAAAAAAAAAAAAAAAAAAAAAAAAAAAAAAAAAAAAAAAAAAAAAAAAAAAAAAAAAAAAAAAAAAAAAAAAAAAAAAAAAAAAAAAAAAAAAAAAAAAAAAAAAAAAAAAAAAAAAAAAAAAAAAAAAAAAAAAAAAAAAAAAAAAAAAAAAAAAAAAAAAAAAAAAAAAAAAAAAAAAAAAAAAAAAAAAAAAAAAAAAAAAAAAAAAAAAAAAAAAAAAAAAAAAAAAAAAAAAAAAAAAAAAAAAAAAAAAAAAAAAAAAAAAAAAAAAAAAAAAAAAAAAAAAAAAAAAAAAAAAAAAAAAAAAAAAAAAAAAAAAAAAAAAAAAAAAAAAAAAAAAAAAAAAAAAAAAAAAAAAAAAAAAAAAAAAAAAAAAAAAAAAAAAAAAAAAAAAAAAAAAAAAAAAAAAAAAAAAAAAAAAAAAAAAAAAAAAAAAAAAAAAAAAAAAAAAAAAAAAAAAAAAAAAAAAAAAAAAAAAAAAAAAAAAAAAAAAAAAAAAAAAAAAAAAAAAAAAAAAAAAAAAAAAAAAAAAAAAAAAAAAAAAAAAAAAAAAAAAAAAAAAAAAAAAAAAAAAAAAAAAAAAAAAAAAAAAAAAAAAAAAAAAAAAAAAAAAAAAAAAAAAAAAAAAAAAAAAAAAAAAAAAAAAAAAAAAAAAAAAAAAAAAAAAAAAAAAAAAAAAAAAAAAAAAAAAAAAAAAAAAAAAAAAAAAAAAAAAAAAAAAAAAAAAAAAAAAAAAAAAAAAAAAAAAAAAAAAAAAAAAAAAAAAAAAAAAAAAAAAAAAAAAAAAAAAAAAAAAAAAAAAAAAAAAAAAAAAAAAAAAAAAAAAAAAAAAAAAAAAAAAAAAAAAAAAAAAAAAAAAAAAAAAAAAAAAAAAAAAAAAAAAAAAAAAAAAAAAAAAAAAAAAAAAAAAAAAAAAAAAAAAAAAAAAAAAAAAAAAAAAAAAAAAAAAAAAAAAAAAAAAAAAAAAAAAAAAAAAAAAAAAAAAAAAAAAAAAAAAAAAAAAAAAAAAAAAAAAAAAAAAAAAAAAAAAAAAAAAAAAAAAAAAAAAAAAAAAAAAAAAAAAAAAAAAAAAAAAAAAAAAAAAAAAAAAAAAAAAAAAAAAAAAAAAAAAAAAAAAAAAAAAAAAAAAAAAAAAAAAAAAAAAAAAAAAAAAAAAAAAAAAAAAAAAAAAAAAAAAAAAAAAAAAAAAAAAAAAAAAAAAAAAAAAAAAAAAAAAAAAAAAAAAAAAAAAAAAAAAAAAAAAAAAAAAAAAAAAAAAAAAAAAAAAAAAAAAAAAAAAAAAAAAAAAAAAAAAAAAAAAAAAAAAAAAAAAAAAAAAAAAAAAAAAAAAAAAAAAAAAAAAAAAAAAAAAAAAAAAAAAAAAAAAAAAAAAAAAAAAAAAAAAAAAAAAAAAAAAAAAAAAAAAAAAAAAAAAAAAAAAAAAAAAAAAAAAAAAAAAAAAAAAAAAAAAAAAAAAAAAAAAAAAAAAAAAAAAAAAAAAAAAAAAAAAAAAAAAAAAAAAAAAAAAAAAAAAAAAAAAAAAAAAAAAAAAAAAAAAAAAAAAAAAAAAAAAAAAAAAAAAAAAAAAAAAAAAAAAAAAAAAAAAAAAAAAAAAAAAAAAAAAAAAAAAAAAAAAAAAAAAAAAAAAAAAAAAAAAAAAAAAAAAAAAAAAAAAAAAAAAAAAAAAAAAAAAAAAAAAAAAAAAAAAAAAAAAAAAAAAAAAAAAAAAAAAAAAAAAAAAAAAAAAAAAAAAAAAAAAAAAAAAAAAAAAAAAAAAAAAAAAAAAAAAAAAAAAAAAAAAAAAAAAAAAAAAAAAAAAAAAAAAAAAAAAAAAAAAAAAAAAAAAAAAAAAAAAAAAAAAAAAAAAAAAAAAAAAAAAAAAAAAAAAAAAAAAAAAAAAAAAAAAAAAAAAAAAAAAAAAAAAAAAAAAAAAAAAAPZYQA1uIW7ZB8XMJ0+N5ZdwPkEBSMn/DdkSQoCEs/VVZpjQYcGZ1k0YVln2Nmn6BNMFkzZld4rpPgBtgKkphH3LI7g=</c2pa:manifest></metadata><title>Standing side reaches</title><path d="M17.1 140 L222.4 140" stroke="#cfd8cb" stroke-width="4.65" stroke-linecap="round" fill="none"/><path d="M82.3 82.3 L85.6 112.2 L96.5 111.8 L97.7 81.7 Z" fill="#cdd9c7" opacity="1.0"/><circle cx="90.0" cy="82.0" r="7.8" fill="#cdd9c7" opacity="1.0"/><circle cx="91.0" cy="112.0" r="5.5" fill="#cdd9c7" opacity="1.0"/><path d="M85.5 112.0 L87.3 140.0 L94.8 140.0 L96.5 112.0 Z" fill="#cdd9c7" opacity="1.0"/><circle cx="91.0" cy="112.0" r="5.5" fill="#cdd9c7" opacity="1.0"/><circle cx="91.0" cy="140.0" r="3.8" fill="#cdd9c7" opacity="1.0"/><path d="M91.0 144.2 L103.0 143.0 L103.0 137.0 L91.0 135.8 Z" fill="#bdcbb7" opacity="1.0"/><circle cx="91.0" cy="140.0" r="4.2" fill="#bdcbb7" opacity="1.0"/><circle cx="103.0" cy="140.0" r="3.0" fill="#bdcbb7" opacity="1.0"/><path d="M81.3 82.3 L84.0 97.2 L97.0 96.8 L98.7 81.7 Z" fill="#bdcbb7" opacity="1.0"/><circle cx="90.0" cy="82.0" r="8.8" fill="#bdcbb7" opacity="1.0"/><circle cx="90.5" cy="97.0" r="6.5" fill="#bdcbb7" opacity="1.0"/><path d="M84.5 42.6 L88.3 66.3 L96.7 65.4 L95.5 41.4 Z" fill="#cdd9c7" opacity="1.0"/><circle cx="90.0" cy="42.0" r="5.5" fill="#cdd9c7" opacity="1.0"/><circle cx="92.5" cy="65.9" r="4.2" fill="#cdd9c7" opacity="1.0"/><path d="M88.3 66.0 L90.0 88.0 L96.5 87.8 L96.8 65.7 Z" fill="#cdd9c7" opacity="1.0"/><circle cx="92.5" cy="65.9" r="4.2" fill="#cdd9c7" opacity="1.0"/><circle cx="93.3" cy="87.9" r="3.2" fill="#cdd9c7" opacity="1.0"/><circle cx="93.3" cy="87.9" r="4.2" fill="#cdd9c7" opacity="1.0"/><path d="M83.5 42.7 L86.3 54.5 L96.2 53.4 L96.5 41.3 Z" fill="#bdcbb7" opacity="1.0"/><circle cx="90.0" cy="42.0" r="6.5" fill="#bdcbb7" opacity="1.0"/><circle cx="91.3" cy="54.0" r="5.0" fill="#bdcbb7" opacity="1.0"/><path d="M98.0 82.0 L100.0 42.0 L80.0 42.0 L82.0 82.0 Z" fill="#bdcbb7" opacity="1.0"/><circle cx="90.0" cy="82.0" r="8.0" fill="#bdcbb7" opacity="1.0"/><circle cx="90.0" cy="42.0" r="10.0" fill="#bdcbb7" opacity="1.0"/><path d="M98.5 82.0 L98.5 73.2 L81.5 73.2 L81.5 82.0 Z" fill="#bdcbb7" opacity="1.0"/><circle cx="90.0" cy="82.0" r="8.5" fill="#bdcbb7" opacity="1.0"/><circle cx="90.0" cy="73.2" r="8.5" fill="#bdcbb7" opacity="1.0"/><path d="M82.3 81.7 L83.5 111.8 L94.4 112.2 L97.7 82.3 Z" fill="#cdd9c7" opacity="1.0"/><circle cx="90.0" cy="82.0" r="7.8" fill="#cdd9c7" opacity="1.0"/><circle cx="89.0" cy="112.0" r="5.5" fill="#cdd9c7" opacity="1.0"/><path d="M83.5 112.0 L85.2 140.0 L92.7 140.0 L94.5 112.0 Z" fill="#cdd9c7" opacity="1.0"/><circle cx="89.0" cy="112.0" r="5.5" fill="#cdd9c7" opacity="1.0"/><circle cx="89.0" cy="140.0" r="3.8" fill="#cdd9c7" opacity="1.0"/><path d="M89.0 144.2 L101.0 143.0 L101.0 137.0 L89.0 135.8 Z" fill="#bdcbb7" opacity="1.0"/><circle cx="89.0" cy="140.0" r="4.2" fill="#bdcbb7" opacity="1.0"/><circle cx="101.0" cy="140.0" r="3.0" fill="#bdcbb7" opacity="1.0"/><path d="M81.3 81.7 L83.0 96.8 L96.0 97.2 L98.7 82.3 Z" fill="#bdcbb7" opacity="1.0"/><circle cx="90.0" cy="82.0" r="8.8" fill="#bdcbb7" opacity="1.0"/><circle cx="89.5" cy="97.0" r="6.5" fill="#bdcbb7" opacity="1.0"/><path d="M84.5 41.4 L83.3 65.4 L91.7 66.3 L95.5 42.6 Z" fill="#cdd9c7" opacity="1.0"/><circle cx="90.0" cy="42.0" r="5.5" fill="#cdd9c7" opacity="1.0"/><circle cx="87.5" cy="65.9" r="4.2" fill="#cdd9c7" opacity="1.0"/><path d="M83.2 65.7 L83.5 87.8 L90.0 88.0 L91.7 66.0 Z" fill="#cdd9c7" opacity="1.0"/><circle cx="87.5" cy="65.9" r="4.2" fill="#cdd9c7" opacity="1.0"/><circle cx="86.7" cy="87.9" r="3.2" fill="#cdd9c7" opacity="1.0"/><circle cx="86.7" cy="87.9" r="4.2" fill="#cdd9c7" opacity="1.0"/><path d="M83.5 41.3 L83.8 53.4 L93.7 54.5 L96.5 42.7 Z" fill="#bdcbb7" opacity="1.0"/><circle cx="90.0" cy="42.0" r="6.5" fill="#bdcbb7" opacity="1.0"/><circle cx="88.7" cy="54.0" r="5.0" fill="#bdcbb7" opacity="1.0"/><path d="M94.2 42.0 L94.0 37.0 L86.0 37.0 L85.8 42.0 Z" fill="#cdd9c7" opacity="1.0"/><circle cx="90.0" cy="42.0" r="4.2" fill="#cdd9c7" opacity="1.0"/><circle cx="90.0" cy="37.0" r="4.0" fill="#cdd9c7" opacity="1.0"/><circle cx="90.0" cy="26.1" r="11.0" fill="#bdcbb7" opacity="1.0"/><circle cx="93.6" cy="27.5" r="9.3" fill="#cdd9c7" opacity="1.0"/><path d="M124.3 83.2 L130.7 112.5 L141.6 111.0 L139.7 81.0 Z" fill="#cfa87f" opacity="1.0"/><circle cx="132.0" cy="82.1" r="7.8" fill="#cfa87f" opacity="1.0"/><circle cx="136.2" cy="111.8" r="5.5" fill="#cfa87f" opacity="1.0"/><path d="M130.7 111.8 L132.4 139.8 L139.9 139.8 L141.7 111.8 Z" fill="#cfa87f" opacity="1.0"/><circle cx="136.2" cy="111.8" r="5.5" fill="#cfa87f" opacity="1.0"/><circle cx="136.2" cy="139.8" r="3.8" fill="#cfa87f" opacity="1.0"/><path d="M136.2 144.0 L148.2 142.8 L148.2 136.8 L136.2 135.5 Z" fill="#9cba76" opacity="1.0"/><circle cx="136.2" cy="139.8" r="4.2" fill="#9cba76" opacity="1.0"/><circle cx="148.2" cy="139.8" r="3.0" fill="#9cba76" opacity="1.0"/><path d="M123.3 83.3 L127.7 97.8 L140.5 96.0 L140.7 80.9 Z" fill="#1d3325" opacity="1.0"/><circle cx="132.0" cy="82.1" r="8.8" fill="#1d3325" opacity="1.0"/><circle cx="134.1" cy="96.9" r="6.5" fill="#1d3325" opacity="1.0"/><path d="M117.3 45.5 L128.2 66.9 L136.0 63.5 L127.3 41.0 Z" fill="#cfa87f" opacity="1.0"/><circle cx="122.3" cy="43.3" r="5.5" fill="#cfa87f" opacity="1.0"/><circle cx="132.1" cy="65.2" r="4.2" fill="#cfa87f" opacity="1.0"/><path d="M127.9 66.1 L133.5 87.4 L139.8 86.0 L136.2 64.3 Z" fill="#cfa87f" opacity="1.0"/><circle cx="132.1" cy="65.2" r="4.2" fill="#cfa87f" opacity="1.0"/><circle cx="136.7" cy="86.7" r="3.2" fill="#cfa87f" opacity="1.0"/><circle cx="136.7" cy="86.7" r="4.2" fill="#cfa87f" opacity="1.0"/><path d="M116.4 45.9 L122.6 56.3 L131.8 52.2 L128.3 40.6 Z" fill="#334d3c" opacity="1.0"/><circle cx="122.3" cy="43.3" r="6.5" fill="#334d3c" opacity="1.0"/><circle cx="127.2" cy="54.2" r="5.0" fill="#334d3c" opacity="1.0"/><path d="M139.8 80.1 L132.0 40.8 L112.6 45.7 L124.2 84.0 Z" fill="#41604b" opacity="1.0"/><circle cx="132.0" cy="82.1" r="8.0" fill="#41604b" opacity="1.0"/><circle cx="122.3" cy="43.3" r="10.0" fill="#41604b" opacity="1.0"/><path d="M140.2 80.0 L138.1 71.5 L121.6 75.6 L123.8 84.1 Z" fill="#26402f" opacity="1.0"/><circle cx="132.0" cy="82.1" r="8.5" fill="#26402f" opacity="1.0"/><circle cx="129.9" cy="73.5" r="8.5" fill="#26402f" opacity="1.0"/><path d="M124.3 82.6 L128.6 112.4 L139.6 111.6 L139.7 81.5 Z" fill="#e8c49e" opacity="1.0"/><circle cx="132.0" cy="82.1" r="7.8" fill="#e8c49e" opacity="1.0"/><circle cx="134.1" cy="112.0" r="5.5" fill="#e8c49e" opacity="1.0"/><path d="M128.6 112.0 L130.3 140.0 L137.8 140.0 L139.6 112.0 Z" fill="#e8c49e" opacity="1.0"/><circle cx="134.1" cy="112.0" r="5.5" fill="#e8c49e" opacity="1.0"/><circle cx="134.1" cy="140.0" r="3.8" fill="#e8c49e" opacity="1.0"/><path d="M134.1 144.2 L146.1 143.0 L146.1 137.0 L134.1 135.8 Z" fill="#b9d492" opacity="1.0"/><circle cx="134.1" cy="140.0" r="4.2" fill="#b9d492" opacity="1.0"/><circle cx="146.1" cy="140.0" r="3.0" fill="#b9d492" opacity="1.0"/><path d="M123.3 82.7 L126.6 97.5 L139.5 96.6 L140.7 81.5 Z" fill="#26402f" opacity="1.0"/><circle cx="132.0" cy="82.1" r="8.8" fill="#26402f" opacity="1.0"/><circle cx="133.0" cy="97.0" r="6.5" fill="#26402f" opacity="1.0"/><path d="M126.9 40.2 L112.4 21.0 L105.4 25.7 L117.8 46.3 Z" fill="#e8c49e" opacity="1.0"/><circle cx="122.3" cy="43.3" r="5.5" fill="#e8c49e" opacity="1.0"/><circle cx="108.9" cy="23.4" r="4.2" fill="#e8c49e" opacity="1.0"/><path d="M112.7 21.5 L102.2 2.2 L96.3 5.0 L105.1 25.2 Z" fill="#e8c49e" opacity="1.0"/><circle cx="108.9" cy="23.4" r="4.2" fill="#e8c49e" opacity="1.0"/><circle cx="99.3" cy="3.6" r="3.2" fill="#e8c49e" opacity="1.0"/><circle cx="99.3" cy="3.6" r="4.2" fill="#e8c49e" opacity="1.0"/><path d="M127.7 39.6 L119.8 30.5 L111.5 36.1 L116.9 46.9 Z" fill="#41604b" opacity="1.0"/><circle cx="122.3" cy="43.3" r="6.5" fill="#41604b" opacity="1.0"/><circle cx="115.6" cy="33.3" r="5.0" fill="#41604b" opacity="1.0"/><path d="M126.4 42.2 L125.0 37.4 L117.2 39.4 L118.2 44.3 Z" fill="#e8c49e" opacity="1.0"/><circle cx="122.3" cy="43.3" r="4.2" fill="#e8c49e" opacity="1.0"/><circle cx="121.1" cy="38.4" r="4.0" fill="#e8c49e" opacity="1.0"/><circle cx="118.5" cy="27.8" r="11.0" fill="#2a3b2e" opacity="1.0"/><circle cx="122.3" cy="28.3" r="9.3" fill="#e8c49e" opacity="1.0"/><path d="M137.8 -4.4 A36 36 0 0 1 157.6 23.0" fill="none" stroke="#7d9a6e" stroke-width="3.2" stroke-linecap="round"/><path d="M152.1 15.3 L157.6 23.0 L160.9 14.1" fill="none" stroke="#7d9a6e" stroke-width="3.2" stroke-linecap="round" stroke-linejoin="round" opacity="1.0"/></svg>