<svg xmlns="http://www.w3.org/2000/svg" viewBox="51.1 54.5 144.0 104.8" role="img" aria-label="Thoracic rotation" xmlns:c2pa="http://c2pa.org/manifest"><metadata><c2pa:manifest>AAAWgmp1bWIAAAAeanVtZGMycGEAEQAQgAAAqgA4m3EDYzJwYQAAABZcanVtYgAAAEdqdW1kYzJtYQARABCAAACqADibcQN1cm46YzJwYTphODIyNjc1YS1iYTgwLTRiYjItYmE3My0yMjgyY2ViNjVjNDIAAAADl2p1bWIAAAApanVtZGMyYXMAEQAQgAAAqgA4m3EDYzJwYS5hc3NlcnRpb25zAAAAALxqdW1iAAAARGp1bWRjYm9yABEAEIAAAKoAOJtxE2MycGEuaW5ncmVkaWVudC52MwAAAAAYYzJzaO82ywQG91k9bBETmTAn+g8AAABwY2JvcqNpZGM6Zm9ybWF0bWltYWdlL3N2Zyt4bWxqaW5zdGFuY2VJRHgseG1wOmlpZDpjMWRjOTg3Mi1kNjk2LTRiNDUtYWE3ZC1hNTYzZTU2MjRlOTNscmVsYXRpb25zaGlwaHBhcmVudE9mAAAB4mp1bWIAAABBanVtZGNib3IAEQAQgAAAqgA4m3ETYzJwYS5hY3Rpb25zLnYyAAAAABhjMnNoOLgYNkKxPtkk2DoJuMF7jgAAAZljYm9yomdhY3Rpb25zgqJmYWN0aW9ua2MycGEub3BlbmVkanBhcmFtZXRlcnOha2luZ3JlZGllbnRzgaJjdXJseC1zZWxmI2p1bWJmPWMycGEuYXNzZXJ0aW9ucy9jMnBhLmluZ3JlZGllbnQudjNkaGFzaFgg50C9QCC2+b2W6BXtZ2jiLeHCekXcaggyEVPTn0Impa2kZmFjdGlvbngdY29tLmFudGhyb3BpYy5jbGF1ZGUucHJvdmlkZWRqcGFyYW1ldGVyc6F4H2NvbS5hbnRocm9waWMub3JpZ2luLWNvbmZpZGVuY2VndW5rbm93bmtkZXNjcmlwdGlvbnhmQ2xhdWRlIHByb3ZpZGVkIHRoaXMgZmlsZSBhdCB0aGUgcmVxdWVzdCBvZiBhIHVzZXIgYW5kIG1heSBoYXZlIGNyZWF0ZWQgb3IgbW9kaWZpZWQgdGhlIGZpbGUgY29udGVudHMubXNvZnR3YXJlQWdlbnShZG5hbWVmQ2xhdWRlcmFsbEFjdGlvbnNJbmNsdWRlZPUAAADIanVtYgAAAEBqdW1kY2JvcgARABCAAACqADibcRNjMnBhLmhhc2guZGF0YQAAAAAYYzJzaAlUMWUZuTnjiekGkvTjmecAAACAY2JvcqVjYWxnZnNoYTI1NmNwYWRNAAAAAAAAAAAAAAAAAGRoYXNoWCA71L6efKUu+3gPjQo1Squfjbt1K4SBNT0RfxG2wlHEH2RuYW1lbmp1bWJmIG1hbmlmZXN0amV4Y2x1c2lvbnOBomVzdGFydBixZmxlbmd0aBkeBAAAAj5qdW1iAAAAJ2p1bWRjMmNsABEAEIAAAKoAOJtxA2MycGEuY2xhaW0udjIAAAACD2Nib3KlY2FsZ2ZzaGEyNTZpc2lnbmF0dXJleE1zZWxmI2p1bWJmPS9jMnBhL3VybjpjMnBhOmE4MjI2NzVhLWJhODAtNGJiMi1iYTczLTIyODJjZWI2NWM0Mi9jMnBhLnNpZ25hdHVyZWppbnN0YW5jZUlEeCx4bXA6aWlkOjQ1N2VmYzMxLTgyNTItNGEzNC04YzNiLWNmZGMwMGRiZGE1OXJjcmVhdGVkX2Fzc2VydGlvbnODomN1cmx4LXNlbGYjanVtYmY9YzJwYS5hc3NlcnRpb25zL2MycGEuaW5ncmVkaWVudC52M2RoYXNoWCDnQL1AILb5vZboFe1naOIt4cJ6RdxqCDIRU9OfQialraJjdXJseCpzZWxmI2p1bWJmPWMycGEuYXNzZXJ0aW9ucy9jMnBhLmFjdGlvbnMudjJkaGFzaFggJPqx6rhIRCk4yuwJWvotmcMoxYCfUWG80q37WzLlie+iY3VybHgpc2VsZiNqdW1iZj1jMnBhLmFzc2VydGlvbnMvYzJwYS5oYXNoLmRhdGFkaGFzaFggpRicbxEudXEERUHbudSpcGFYYpychlpQnOoQEefnM4J0Y2xhaW1fZ2VuZXJhdG9yX2luZm+jZG5hbWVvQW50aHJvcGljIEZpbGVzZ3ZlcnNpb25lMS4wLjBrc3BlY1ZlcnNpb25lMi40LjAAABA4anVtYgAAAChqdW1kYzJjcwARABCAAACqADibcQNjMnBhLnNpZ25hdHVyZQAAABAIY2JvctKEWQISogEmGCFZAgowggIGMIIBjaADAgECAhRA5aAK7sI50L64g/oGQgU9Z1UTADAKBggqhkjOPQQDAzBJMRcwFQYDVQQKEw5BbnRocm9waWMsIFBCQzEuMCwGA1UEAxMlQW50aHJvcGljIENvbnRlbnQgQ3JlZGVudGlhbHMgUm9vdCBDQTAeFw0yNjA4MDcxODQzNTZaFw0yODA4MDYxOTQzNTZaMEQxFzAVBgNVBAoTDkFudGhyb3BpYywgUEJDMSkwJwYDVQQDEyBBbnRocm9waWMgQ2xhdWRlIENvbnRlbnQgU2lnbmluZzBZMBMGByqGSM49AgEGCCqGSM49AwEHA0IABJh6CmvLUBgFFNU0vUKlOVtE6djd17L5SuwX0LemFisBM3dkd/3cyjxFA3Qo5S46fX0/ihY0VZ7mfb9KF703t5OjWDBWMA4GA1UdDwEB/wQEAwIHgDAVBgNVHSUEDjAMBgorBgEEAYPoXgIBMAwGA1UdEwEB/wQCMAAwHwYDVR0jBBgwFoAUzlHiBIFOZFsj+OPEz5o+nMHXXMIwCgYIKoZIzj0EAwMDZwAwZAIwMXMdFJ4BetLLVY7ORuE9noqbbAZOZn/aArXyTwFAZfKrPzxF2vPoJNf1+UCdg1XGAjBwX1zd9WGqYkqmL5SFqw1QySjr1zJfpJM9+1rdDwSPLMOPOjKuiXjoU/pUUeG9RwmhY3BhZFkNngAAAAAAAAAAAAAAAAAAAAAAAAAAAAAAAAAAAAAAAAAAAAAAAAAAAAAAAAAAAAAAAAAAAAAAAAAAAAAAAAAAAAAAAAAAAAAAAAAAAAAAAAAAAAAAAAAAAAAAAAAAAAAAAAAAAAAAAAAAAAAAAAAAAAAAAAAAAAAAAAAAAAAAAAAAAAAAAAAAAAAAAAAAAAAAAAAAAAAAAAAAAAAAAAAAAAAAAAAAAAAAAAAAAAAAAAAAAAAAAAAAAAAAAAAAAAAAAAAAAAAAAAAAAAAAAAAAAAAAAAAAAAAAAAAAAAAAAAAAAAAAAAAAAAAAAAAAAAAAAAAAAAAAAAAAAAAAAAAAAAAAAAAAAAAAAAAAAAAAAAAAAAAAAAAAAAAAAAAAAAAAAAAAAAAAAAAAAAAAAAAAAAAAAAAAAAAAAAAAAAAAAAAAAAAAAAAAAAAAAAAAAAAAAAAAAAAAAAAAAAAAAAAAAAAAAAAAAAAAAAAAAAAAAAAAAAAAAAAAAAAAAAAAAAAAAAAAAAAAAAAAAAAAAAAAAAAAAAAAAAAAAAAAAAAAAAAAAAAAAAAAAAAAAAAAAAAAAAAAAAAAAAAAAAAAAAAAAAAAAAAAAAAAAAAAAAAAAAAAAAAAAAAAAAAAAAAAAAAAAAAAAAAAAAAAAAAAAAAAAAAAAAAAAAAAAAAAAAAAAAAAAAAAAAAAAAAAAAAAAAAAAAAAAAAAAAAAAAAAAAAAAAAAAAAAAAAAAAAAAAAAAAAAAAAAAAAAAAAAAAAAAAAAAAAAAAAAAAAAAAAAAAAAAAAAAAAAAAAAAAAAAAAAAAAAAAAAAAAAAAAAAAAAAAAAAAAAAAAAAAAAAAAAAAAAAAAAAAAAAAAAAAAAAAAAAAAAAAAAAAAAAAAAAAAAAAAAAAAAAAAAAAAAAAAAAAAAAAAAAAAAAAAAAAAAAAAAAAAAAAAAAAAAAAAAAAAAAAAAAAAAAAAAAAAAAAAAAAAAAAAAAAAAAAAAAAAAAAAAAAAAAAAAAAAAAAAAAAAAAAAAAAAAAAAAAAAAAAAAAAAAAAAAAAAAAAAAAAAAAAAAAAAAAAAAAAAAAAAAAAAAAAAAAAAAAAAAAAAAAAAAAAAAAAAAAAAAAAAAAAAAAAAAAAAAAAAAAAAAAAAAAAAAAAAAAAAAAAAAAAAAAAAAAAAAAAAAAAAAAAAAAAAAAAAAAAAAAAAAAAAAAAAAAAAAAAAAAAAAAAAAAAAAAAAAAAAAAAAAAAAAAAAAAAAAAAAAAAAAAAAAAAAAAAAAAAAAAAAAAAAAAAAAAAAAAAAAAAAAAAAAAAAAAAAAAAAAAAAAAAAAAAAAAAAAAAAAAAAAAAAAAAAAAAAAAAAAAAAAAAAAAAAAAAAAAAAAAAAAAAAAAAAAAAAAAAAAAAAAAAAAAAAAAAAAAAAAAAAAAAAAAAAAAAAAAAAAAAAAAAAAAAAAAAAAAAAAAAAAAAAAAAAAAAAAAAAAAAAAAAAAAAAAAAAAAAAAAAAAAAAAAAAAAAAAAAAAAAAAAAAAAAAAAAAAAAAAAAAAAAAAAAAAAAAAAAAAAAAAAAAAAAAAAAAAAAAAAAAAAAAAAAAAAAAAAAAAAAAAAAAAAAAAAAAAAAAAAAAAAAAAAAAAAAAAAAAAAAAAAAAAAAAAAAAAAAAAAAAAAAAAAAAAAAAAAAAAAAAAAAAAAAAAAAAAAAAAAAAAAAAAAAAAAAAAAAAAAAAAAAAAAAAAAAAAAAAAAAAAAAAAAAAAAAAAAAAAAAAAAAAAAAAAAAAAAAAAAAAAAAAAAAAAAAAAAAAAAAAAAAAAAAAAAAAAAAAAAAAAAAAAAAAAAAAAAAAAAAAAAAAAAAAAAAAAAAAAAAAAAAAAAAAAAAAAAAAAAAAAAAAAAAAAAAAAAAAAAAAAAAAAAAAAAAAAAAAAAAAAAAAAAAAAAAAAAAAAAAAAAAAAAAAAAAAAAAAAAAAAAAAAAAAAAAAAAAAAAAAAAAAAAAAAAAAAAAAAAAAAAAAAAAAAAAAAAAAAAAAAAAAAAAAAAAAAAAAAAAAAAAAAAAAAAAAAAAAAAAAAAAAAAAAAAAAAAAAAAAAAAAAAAAAAAAAAAAAAAAAAAAAAAAAAAAAAAAAAAAAAAAAAAAAAAAAAAAAAAAAAAAAAAAAAAAAAAAAAAAAAAAAAAAAAAAAAAAAAAAAAAAAAAAAAAAAAAAAAAAAAAAAAAAAAAAAAAAAAAAAAAAAAAAAAAAAAAAAAAAAAAAAAAAAAAAAAAAAAAAAAAAAAAAAAAAAAAAAAAAAAAAAAAAAAAAAAAAAAAAAAAAAAAAAAAAAAAAAAAAAAAAAAAAAAAAAAAAAAAAAAAAAAAAAAAAAAAAAAAAAAAAAAAAAAAAAAAAAAAAAAAAAAAAAAAAAAAAAAAAAAAAAAAAAAAAAAAAAAAAAAAAAAAAAAAAAAAAAAAAAAAAAAAAAAAAAAAAAAAAAAAAAAAAAAAAAAAAAAAAAAAAAAAAAAAAAAAAAAAAAAAAAAAAAAAAAAAAAAAAAAAAAAAAAAAAAAAAAAAAAAAAAAAAAAAAAAAAAAAAAAAAAAAAAAAAAAAAAAAAAAAAAAAAAAAAAAAAAAAAAAAAAAAAAAAAAAAAAAAAAAAAAAAAAAAAAAAAAAAAAAAAAAAAAAAAAAAAAAAAAAAAAAAAAAAAAAAAAAAAAAAAAAAAAAAAAAAAAAAAAAAAAAAAAAAAAAAAAAAAAAAAAAAAAAAAAAAAAAAAAAAAAAAAAAAAAAAAAAAAAAAAAAAAAAAAAAAAAAAAAAAAAAAAAAAAAAAAAAAAAAAAAAAAAAAAAAAAAAAAAAAAAAAAAAAAAAAAAAAAAAAAAAAAAAAAAAAAAAAAAAAAAAAAAAAAAAAAAAAAAAAAAAAAAAAAAAAAAAAAAAAAAAAAAAAAAAAAAAAAAAAAAAAAAAAAAAAAAAAAAAAAAAAAAAAAAAAAAAAAAAAAAAAAAAAAAAAAAAAAAAAAAAAAAAAAAAAAAAAAAAAAAAAAAAAAAAAAAAAAAAAAAAAAAAAAAAAAAAAAAAAAAAAAAAAAAAAAAAAAAAAAAAAAAAAAAAAAAAAAAAAAAAAAAAAAAAAAAAAAAAAAAAAAAAAAAAAAAAAAAAAAAAAAAAAAAAAAAAAAAAAAAAAAAAAAAAAAAAAAAAAAAAAAAAAAAAAAAAAAAAAAAAAAAAAAAAAAAAAAAAAAAAAAAAAAAAAAAAAAAAAAAAAAAAAAAAAAAAAAAAAAAAAAAAAAAAAAAAAAAAAAAAAAAAAAAAAAAAAAAAAAAAAAAAAAAAAAAAAAAAAAAAAAAAAAAAAAAAAAAAAAAAAAAAAAAAAAAAAAAAAAAAAAAAAAAAAAAAAAAAAAAAAAAAAAAAAAAAAAAAAAAAAAAAAAAAAAAAAAAAAAAAAAAAAAAAAAAAAAAAAAAAAAAAAAAAAAAAAAAAAAAAAAAAAAAAAAAAAAAAAAAAAAAAAAAAAAAAAAAAAAAAAAAAAAAAAAAAAAAAAAAAAAAAAAAAAAAAAAAAAAAAAAAAAAAAAAAAAAAAAAAAAAAAAAAAAAAAAAAAAAAAAAAAAAAAAAAAAAAAAAAAAAAAAAAAAAAAAAAAAAAAAAAAAAAAAAAAAAAAAAAAAAAAAAAAAAAAAAAAAAAAAAAAAAAAAAAAAAAAAAAAAAAAAAAAAAAAAAAAAAAAAAAAAAAAAAAAAAAAAAAAAAAAAAAAAAAAAAAAAAAAAAAAAAAAAAAAAAAAAAAAAAAAAAAAAAAAAAAAAAAAAAAAAAAAAAAAAAAAAAAAAAAAAAAAAAAAAAAAAAAAAAAAAAAAAAAAAAAAAAAAAAAAAAAAAAAAAAAAAAAAAAAAAAAAAAAAAAAAAAAAAAAAAAAAAAAAAAAAAAAAAAAAAAAAAAAAAAAAAAAAAAAAAAAAAAAAAAAAAAAAAAAAAAAAAAAAAAAAAAAAAAAAAAAAAAAAAAAAAAAAAAAAAAAAAAAAAAAAAAAAAAAAAAAAAAAAAAAAAAAAAAAAAAAAAAAAAAAAAAAAAAAAAAAAAAAAAAAAAAAAAAAAAAAAAAAAAAAAAAAAAAAAAAAAAAAAAAAAAAAAAAAAAAAAAAAAAAAAAAAAAAAAAAAAAAAAAAAAAAAAAAAAAAAAAAAAAAAAAAAAAAAAAAAAAAAAAAAAAAAAAAAAAAAAAAAAAAAAAAAAAAAAAAAAAAAAAAAAAAAAAAAAAAAAAAAAAAAAAAAAAAAAAAAAAAAAAAAAAAAAAAAAAAAAAAAAAAAAAAAAAAAAAAAAAAAAAAAAAAAAAAAAAAAAAAAAAAAAAAAAAAAAAAAAAAAAAAAAAAAAAAAAAAAAAAAAAAAAAAAAAAAAAAAAAAAAAAAAAAAAAAAAAAAAAAAAAAAAAAAAAAAAAAAAAAAAAAAAAAAAAAAAAAAAAAAAAAAAAAAAAAAAAAAAAAAAAAAAAAAAAAAAAAAAAAAAAAAAAAAAAAAAAAAAAAAAAAAAAAAAAAAAAAAAAAAAAAAAAAAAAAAAAAAAAAAAAAAAAAAAAAAAAAAAAAAAAAAAAAAAAAAAAAAAAAAAAAAAAAAAAAAAAAAAAAAAAAAAAAAAAAAAAAAAAAAAAAAAAAAAAAAAAAAAAAAAAAAAAAAAAAAAAAAAAAAAAAAAAAAAAAAAAPZYQL9RW5uUSk+fhC0b3uhzJX8wkcSD2FbRcQNPI0BlvEeCZ7Q9zubPEpnAPS0NENuwx12E/mhLZsVLy4Ij6754YWE=</c2pa:manifest></metadata><title>Thoracic rotation</title><rect x="58.3" y="136.2" width="129.6" height="5.2" rx="2.6" fill="#cfd8cb"/><path d="M107.2 90.5 L77.6 95.9 L78.7 106.8 L108.8 105.9 Z" fill="#cdd9c7" opacity="1.0"/><circle cx="108.0" cy="98.2" r="7.8" fill="#cdd9c7" opacity="1.0"/><circle cx="78.2" cy="101.3" r="5.5" fill="#cdd9c7" opacity="1.0"/><path d="M72.7 101.5 L75.4 129.4 L82.9 129.2 L83.7 101.1 Z" fill="#cdd9c7" opacity="1.0"/><circle cx="78.2" cy="101.3" r="5.5" fill="#cdd9c7" opacity="1.0"/><circle cx="79.1" cy="129.3" r="3.8" fill="#cdd9c7" opacity="1.0"/><path d="M78.8 125.1 L67.0 127.2 L67.4 133.1 L79.4 133.6 Z" fill="#bdcbb7" opacity="1.0"/><circle cx="79.1" cy="129.3" r="4.2" fill="#bdcbb7" opacity="1.0"/><circle cx="67.2" cy="130.2" r="3.0" fill="#bdcbb7" opacity="1.0"/><path d="M107.1 89.5 L92.4 93.3 L93.8 106.2 L108.9 106.9 Z" fill="#bdcbb7" opacity="1.0"/><circle cx="108.0" cy="98.2" r="8.8" fill="#bdcbb7" opacity="1.0"/><circle cx="93.1" cy="99.8" r="6.5" fill="#bdcbb7" opacity="1.0"/><path d="M142.3 94.2 L144.4 118.1 L152.9 117.9 L153.3 93.8 Z" fill="#cdd9c7" opacity="1.0"/><circle cx="147.8" cy="94.0" r="5.5" fill="#cdd9c7" opacity="1.0"/><circle cx="148.6" cy="118.0" r="4.2" fill="#cdd9c7" opacity="1.0"/><path d="M144.4 118.3 L146.9 140.2 L153.4 139.7 L152.9 117.7 Z" fill="#cdd9c7" opacity="1.0"/><circle cx="148.6" cy="118.0" r="4.2" fill="#cdd9c7" opacity="1.0"/><circle cx="150.2" cy="139.9" r="3.2" fill="#cdd9c7" opacity="1.0"/><circle cx="150.2" cy="139.9" r="4.2" fill="#cdd9c7" opacity="1.0"/><path d="M141.3 94.2 L143.2 106.2 L153.2 105.8 L154.3 93.8 Z" fill="#bdcbb7" opacity="1.0"/><circle cx="147.8" cy="94.0" r="6.5" fill="#bdcbb7" opacity="1.0"/><circle cx="148.2" cy="106.0" r="5.0" fill="#bdcbb7" opacity="1.0"/><path d="M108.8 106.2 L148.8 104.0 L146.7 84.1 L107.2 90.2 Z" fill="#bdcbb7" opacity="1.0"/><circle cx="108.0" cy="98.2" r="8.0" fill="#bdcbb7" opacity="1.0"/><circle cx="147.8" cy="94.0" r="10.0" fill="#bdcbb7" opacity="1.0"/><path d="M108.9 106.6 L117.6 105.7 L115.9 88.8 L107.1 89.7 Z" fill="#bdcbb7" opacity="1.0"/><circle cx="108.0" cy="98.2" r="8.5" fill="#bdcbb7" opacity="1.0"/><circle cx="116.8" cy="97.3" r="8.5" fill="#bdcbb7" opacity="1.0"/><path d="M107.7 90.5 L77.8 93.7 L78.2 104.7 L108.3 105.9 Z" fill="#cdd9c7" opacity="1.0"/><circle cx="108.0" cy="98.2" r="7.8" fill="#cdd9c7" opacity="1.0"/><circle cx="78.0" cy="99.2" r="5.5" fill="#cdd9c7" opacity="1.0"/><path d="M72.5 99.1 L73.3 127.1 L80.8 127.4 L83.5 99.4 Z" fill="#cdd9c7" opacity="1.0"/><circle cx="78.0" cy="99.2" r="5.5" fill="#cdd9c7" opacity="1.0"/><circle cx="77.0" cy="127.2" r="3.8" fill="#cdd9c7" opacity="1.0"/><path d="M76.7 123.0 L64.9 125.1 L65.3 131.1 L77.3 131.5 Z" fill="#bdcbb7" opacity="1.0"/><circle cx="77.0" cy="127.2" r="4.2" fill="#bdcbb7" opacity="1.0"/><circle cx="65.1" cy="128.1" r="3.0" fill="#bdcbb7" opacity="1.0"/><path d="M107.7 89.5 L92.8 92.2 L93.2 105.2 L108.3 106.9 Z" fill="#bdcbb7" opacity="1.0"/><circle cx="108.0" cy="98.2" r="8.8" fill="#bdcbb7" opacity="1.0"/><circle cx="93.0" cy="98.7" r="6.5" fill="#bdcbb7" opacity="1.0"/><path d="M142.3 93.8 L142.7 117.9 L151.2 118.1 L153.3 94.2 Z" fill="#cdd9c7" opacity="1.0"/><circle cx="147.8" cy="94.0" r="5.5" fill="#cdd9c7" opacity="1.0"/><circle cx="146.9" cy="118.0" r="4.2" fill="#cdd9c7" opacity="1.0"/><path d="M142.7 118.0 L143.7 140.0 L150.2 140.0 L151.2 118.0 Z" fill="#cdd9c7" opacity="1.0"/><circle cx="146.9" cy="118.0" r="4.2" fill="#cdd9c7" opacity="1.0"/><circle cx="146.9" cy="140.0" r="3.2" fill="#cdd9c7" opacity="1.0"/><circle cx="146.9" cy="140.0" r="4.2" fill="#cdd9c7" opacity="1.0"/><path d="M141.3 93.8 L142.4 105.8 L152.4 106.2 L154.3 94.2 Z" fill="#bdcbb7" opacity="1.0"/><circle cx="147.8" cy="94.0" r="6.5" fill="#bdcbb7" opacity="1.0"/><circle cx="147.4" cy="106.0" r="5.0" fill="#bdcbb7" opacity="1.0"/><path d="M148.2 98.2 L153.2 97.5 L152.3 89.5 L147.3 89.8 Z" fill="#cdd9c7" opacity="1.0"/><circle cx="147.8" cy="94.0" r="4.2" fill="#cdd9c7" opacity="1.0"/><circle cx="152.8" cy="93.5" r="4.0" fill="#cdd9c7" opacity="1.0"/><circle cx="163.6" cy="92.4" r="11.0" fill="#bdcbb7" opacity="1.0"/><circle cx="162.6" cy="96.1" r="9.3" fill="#cdd9c7" opacity="1.0"/><path d="M107.2 90.5 L77.6 95.9 L78.7 106.8 L108.8 105.9 Z" fill="#cfa87f" opacity="1.0"/><circle cx="108.0" cy="98.2" r="7.8" fill="#cfa87f" opacity="1.0"/><circle cx="78.2" cy="101.3" r="5.5" fill="#cfa87f" opacity="1.0"/><path d="M72.7 101.5 L75.4 129.4 L82.9 129.2 L83.7 101.1 Z" fill="#cfa87f" opacity="1.0"/><circle cx="78.2" cy="101.3" r="5.5" fill="#cfa87f" opacity="1.0"/><circle cx="79.1" cy="129.3" r="3.8" fill="#cfa87f" opacity="1.0"/><path d="M78.8 125.1 L67.0 127.2 L67.4 133.1 L79.4 133.6 Z" fill="#9cba76" opacity="1.0"/><circle cx="79.1" cy="129.3" r="4.2" fill="#9cba76" opacity="1.0"/><circle cx="67.2" cy="130.2" r="3.0" fill="#9cba76" opacity="1.0"/><path d="M107.1 89.5 L92.4 93.3 L93.8 106.2 L108.9 106.9 Z" fill="#1d3325" opacity="1.0"/><circle cx="108.0" cy="98.2" r="8.8" fill="#1d3325" opacity="1.0"/><circle cx="93.1" cy="99.8" r="6.5" fill="#1d3325" opacity="1.0"/><path d="M151.7 90.2 L134.2 73.8 L128.1 79.7 L143.8 97.8 Z" fill="#cfa87f" opacity="1.0"/><circle cx="147.8" cy="94.0" r="5.5" fill="#cfa87f" opacity="1.0"/><circle cx="131.1" cy="76.8" r="4.2" fill="#cfa87f" opacity="1.0"/><path d="M131.7 72.5 L109.8 70.5 L108.9 76.9 L130.5 81.0 Z" fill="#cfa87f" opacity="1.0"/><circle cx="131.1" cy="76.8" r="4.2" fill="#cfa87f" opacity="1.0"/><circle cx="109.3" cy="73.7" r="3.2" fill="#cfa87f" opacity="1.0"/><circle cx="109.3" cy="73.7" r="4.2" fill="#cfa87f" opacity="1.0"/><path d="M152.5 89.5 L143.0 81.9 L135.8 88.9 L143.1 98.5 Z" fill="#334d3c" opacity="1.0"/><circle cx="147.8" cy="94.0" r="6.5" fill="#334d3c" opacity="1.0"/><circle cx="139.4" cy="85.4" r="5.0" fill="#334d3c" opacity="1.0"/><path d="M108.8 106.2 L148.8 104.0 L146.7 84.1 L107.2 90.2 Z" fill="#41604b" opacity="1.0"/><circle cx="108.0" cy="98.2" r="8.0" fill="#41604b" opacity="1.0"/><circle cx="147.8" cy="94.0" r="10.0" fill="#41604b" opacity="1.0"/><path d="M108.9 106.6 L117.6 105.7 L115.9 88.8 L107.1 89.7 Z" fill="#26402f" opacity="1.0"/><circle cx="108.0" cy="98.2" r="8.5" fill="#26402f" opacity="1.0"/><circle cx="116.8" cy="97.3" r="8.5" fill="#26402f" opacity="1.0"/><path d="M107.7 90.5 L77.8 93.7 L78.2 104.7 L108.3 105.9 Z" fill="#e8c49e" opacity="1.0"/><circle cx="108.0" cy="98.2" r="7.8" fill="#e8c49e" opacity="1.0"/><circle cx="78.0" cy="99.2" r="5.5" fill="#e8c49e" opacity="1.0"/><path d="M72.5 99.1 L73.3 127.1 L80.8 127.4 L83.5 99.4 Z" fill="#e8c49e" opacity="1.0"/><circle cx="78.0" cy="99.2" r="5.5" fill="#e8c49e" opacity="1.0"/><circle cx="77.0" cy="127.2" r="3.8" fill="#e8c49e" opacity="1.0"/><path d="M76.7 123.0 L64.9 125.1 L65.3 131.1 L77.3 131.5 Z" fill="#b9d492" opacity="1.0"/><circle cx="77.0" cy="127.2" r="4.2" fill="#b9d492" opacity="1.0"/><circle cx="65.1" cy="128.1" r="3.0" fill="#b9d492" opacity="1.0"/><path d="M107.7 89.5 L92.8 92.2 L93.2 105.2 L108.3 106.9 Z" fill="#26402f" opacity="1.0"/><circle cx="108.0" cy="98.2" r="8.8" fill="#26402f" opacity="1.0"/><circle cx="93.0" cy="98.7" r="6.5" fill="#26402f" opacity="1.0"/><path d="M142.3 93.8 L142.7 117.9 L151.2 118.1 L153.3 94.2 Z" fill="#e8c49e" opacity="1.0"/><circle cx="147.8" cy="94.0" r="5.5" fill="#e8c49e" opacity="1.0"/><circle cx="146.9" cy="118.0" r="4.2" fill="#e8c49e" opacity="1.0"/><path d="M142.7 118.0 L143.7 140.0 L150.2 140.0 L151.2 118.0 Z" fill="#e8c49e" opacity="1.0"/><circle cx="146.9" cy="118.0" r="4.2" fill="#e8c49e" opacity="1.0"/><circle cx="146.9" cy="140.0" r="3.2" fill="#e8c49e" opacity="1.0"/><circle cx="146.9" cy="140.0" r="4.2" fill="#e8c49e" opacity="1.0"/><path d="M141.3 93.8 L142.4 105.8 L152.4 106.2 L154.3 94.2 Z" fill="#41604b" opacity="1.0"/><circle cx="147.8" cy="94.0" r="6.5" fill="#41604b" opacity="1.0"/><circle cx="147.4" cy="106.0" r="5.0" fill="#41604b" opacity="1.0"/><path d="M148.2 98.2 L153.2 97.5 L152.3 89.5 L147.3 89.8 Z" fill="#e8c49e" opacity="1.0"/><circle cx="147.8" cy="94.0" r="4.2" fill="#e8c49e" opacity="1.0"/><circle cx="152.8" cy="93.5" r="4.0" fill="#e8c49e" opacity="1.0"/><circle cx="158.8" cy="84.5" r="11.0" fill="#2a3b2e" opacity="1.0"/><circle cx="161.1" cy="87.6" r="9.3" fill="#e8c49e" opacity="1.0"/><path d="M133.5 94.6 A32 32 0 0 0 182.5 94.6" fill="none" stroke="#7d9a6e" stroke-width="3.2" stroke-linecap="round"/><path d="M180.5 103.9 L182.5 94.6 L173.7 98.1" fill="none" stroke="#7d9a6e" stroke-width="3.2" stroke-linecap="round" stroke-linejoin="round" opacity="1.0"/></svg>