<svg xmlns="http://www.w3.org/2000/svg" viewBox="-19.8 -28.1 252.1 183.3" role="img" aria-label="Triceps extension" xmlns:c2pa="http://c2pa.org/manifest"><metadata><c2pa:manifest>AAAWgmp1bWIAAAAeanVtZGMycGEAEQAQgAAAqgA4m3EDYzJwYQAAABZcanVtYgAAAEdqdW1kYzJtYQARABCAAACqADibcQN1cm46YzJwYTozYmZkZjgzYy1mZDZlLTRhODItOWM2YS01OWQ3ODJhNTI5M2EAAAADl2p1bWIAAAApanVtZGMyYXMAEQAQgAAAqgA4m3EDYzJwYS5hc3NlcnRpb25zAAAAALxqdW1iAAAARGp1bWRjYm9yABEAEIAAAKoAOJtxE2MycGEuaW5ncmVkaWVudC52MwAAAAAYYzJzaFvZJxBqgRpNVFBZxUHkaYoAAABwY2JvcqNpZGM6Zm9ybWF0bWltYWdlL3N2Zyt4bWxqaW5zdGFuY2VJRHgseG1wOmlpZDpmOGZlODZjNi05OWJlLTQ3NjMtYjRlMC03MGRhNjI4OTQwNTZscmVsYXRpb25zaGlwaHBhcmVudE9mAAAB4mp1bWIAAABBanVtZGNib3IAEQAQgAAAqgA4m3ETYzJwYS5hY3Rpb25zLnYyAAAAABhjMnNorTfZgG5mGSzC4IuEphPSRQAAAZljYm9yomdhY3Rpb25zgqJmYWN0aW9ua2MycGEub3BlbmVkanBhcmFtZXRlcnOha2luZ3JlZGllbnRzgaJjdXJseC1zZWxmI2p1bWJmPWMycGEuYXNzZXJ0aW9ucy9jMnBhLmluZ3JlZGllbnQudjNkaGFzaFggHiUf/Jo/NxVCe94ZmW+VgkjeQIhu68hz+ZzHfuicuT2kZmFjdGlvbngdY29tLmFudGhyb3BpYy5jbGF1ZGUucHJvdmlkZWRqcGFyYW1ldGVyc6F4H2NvbS5hbnRocm9waWMub3JpZ2luLWNvbmZpZGVuY2VndW5rbm93bmtkZXNjcmlwdGlvbnhmQ2xhdWRlIHByb3ZpZGVkIHRoaXMgZmlsZSBhdCB0aGUgcmVxdWVzdCBvZiBhIHVzZXIgYW5kIG1heSBoYXZlIGNyZWF0ZWQgb3IgbW9kaWZpZWQgdGhlIGZpbGUgY29udGVudHMubXNvZnR3YXJlQWdlbnShZG5hbWVmQ2xhdWRlcmFsbEFjdGlvbnNJbmNsdWRlZPUAAADIanVtYgAAAEBqdW1kY2JvcgARABCAAACqADibcRNjMnBhLmhhc2guZGF0YQAAAAAYYzJzaAj6X3uu2cu9VJfaTk3HFL8AAACAY2JvcqVjYWxnZnNoYTI1NmNwYWRNAAAAAAAAAAAAAAAAAGRoYXNoWCBxCTupEzE2qZr6Lhi5iWqOnLLWgorUV+V/x4mBHnEQY2RuYW1lbmp1bWJmIG1hbmlmZXN0amV4Y2x1c2lvbnOBomVzdGFydBizZmxlbmd0aBkeBAAAAj5qdW1iAAAAJ2p1bWRjMmNsABEAEIAAAKoAOJtxA2MycGEuY2xhaW0udjIAAAACD2Nib3KlY2FsZ2ZzaGEyNTZpc2lnbmF0dXJleE1zZWxmI2p1bWJmPS9jMnBhL3VybjpjMnBhOjNiZmRmODNjLWZkNmUtNGE4Mi05YzZhLTU5ZDc4MmE1MjkzYS9jMnBhLnNpZ25hdHVyZWppbnN0YW5jZUlEeCx4bXA6aWlkOmYyOWU1ZDY2LTM2NjktNDkzMy1iMjFmLWUxZjk0ZDlmYTgzMnJjcmVhdGVkX2Fzc2VydGlvbnODomN1cmx4LXNlbGYjanVtYmY9YzJwYS5hc3NlcnRpb25zL2MycGEuaW5ncmVkaWVudC52M2RoYXNoWCAeJR/8mj83FUJ73hmZb5WCSN5AiG7ryHP5nMd+6Jy5PaJjdXJseCpzZWxmI2p1bWJmPWMycGEuYXNzZXJ0aW9ucy9jMnBhLmFjdGlvbnMudjJkaGFzaFgg5loS1zXuCwKqE7o34vF/LbliY61dyps4fqi7lmw+Ta+iY3VybHgpc2VsZiNqdW1iZj1jMnBhLmFzc2VydGlvbnMvYzJwYS5oYXNoLmRhdGFkaGFzaFggP/a630TvXsOUMJZemRIfK9Q0GYtyOMjOjOrfbSxjtPV0Y2xhaW1fZ2VuZXJhdG9yX2luZm+jZG5hbWVvQW50aHJvcGljIEZpbGVzZ3ZlcnNpb25lMS4wLjBrc3BlY1ZlcnNpb25lMi40LjAAABA4anVtYgAAAChqdW1kYzJjcwARABCAAACqADibcQNjMnBhLnNpZ25hdHVyZQAAABAIY2JvctKEWQISogEmGCFZAgowggIGMIIBjaADAgECAhRA5aAK7sI50L64g/oGQgU9Z1UTADAKBggqhkjOPQQDAzBJMRcwFQYDVQQKEw5BbnRocm9waWMsIFBCQzEuMCwGA1UEAxMlQW50aHJvcGljIENvbnRlbnQgQ3JlZGVudGlhbHMgUm9vdCBDQTAeFw0yNjA4MDcxODQzNTZaFw0yODA4MDYxOTQzNTZaMEQxFzAVBgNVBAoTDkFudGhyb3BpYywgUEJDMSkwJwYDVQQDEyBBbnRocm9waWMgQ2xhdWRlIENvbnRlbnQgU2lnbmluZzBZMBMGByqGSM49AgEGCCqGSM49AwEHA0IABJh6CmvLUBgFFNU0vUKlOVtE6djd17L5SuwX0LemFisBM3dkd/3cyjxFA3Qo5S46fX0/ihY0VZ7mfb9KF703t5OjWDBWMA4GA1UdDwEB/wQEAwIHgDAVBgNVHSUEDjAMBgorBgEEAYPoXgIBMAwGA1UdEwEB/wQCMAAwHwYDVR0jBBgwFoAUzlHiBIFOZFsj+OPEz5o+nMHXXMIwCgYIKoZIzj0EAwMDZwAwZAIwMXMdFJ4BetLLVY7ORuE9noqbbAZOZn/aArXyTwFAZfKrPzxF2vPoJNf1+UCdg1XGAjBwX1zd9WGqYkqmL5SFqw1QySjr1zJfpJM9+1rdDwSPLMOPOjKuiXjoU/pUUeG9RwmhY3BhZFkNngAAAAAAAAAAAAAAAAAAAAAAAAAAAAAAAAAAAAAAAAAAAAAAAAAAAAAAAAAAAAAAAAAAAAAAAAAAAAAAAAAAAAAAAAAAAAAAAAAAAAAAAAAAAAAAAAAAAAAAAAAAAAAAAAAAAAAAAAAAAAAAAAAAAAAAAAAAAAAAAAAAAAAAAAAAAAAAAAAAAAAAAAAAAAAAAAAAAAAAAAAAAAAAAAAAAAAAAAAAAAAAAAAAAAAAAAAAAAAAAAAAAAAAAAAAAAAAAAAAAAAAAAAAAAAAAAAAAAAAAAAAAAAAAAAAAAAAAAAAAAAAAAAAAAAAAAAAAAAAAAAAAAAAAAAAAAAAAAAAAAAAAAAAAAAAAAAAAAAAAAAAAAAAAAAAAAAAAAAAAAAAAAAAAAAAAAAAAAAAAAAAAAAAAAAAAAAAAAAAAAAAAAAAAAAAAAAAAAAAAAAAAAAAAAAAAAAAAAAAAAAAAAAAAAAAAAAAAAAAAAAAAAAAAAAAAAAAAAAAAAAAAAAAAAAAAAAAAAAAAAAAAAAAAAAAAAAAAAAAAAAAAAAAAAAAAAAAAAAAAAAAAAAAAAAAAAAAAAAAAAAAAAAAAAAAAAAAAAAAAAAAAAAAAAAAAAAAAAAAAAAAAAAAAAAAAAAAAAAAAAAAAAAAAAAAAAAAAAAAAAAAAAAAAAAAAAAAAAAAAAAAAAAAAAAAAAAAAAAAAAAAAAAAAAAAAAAAAAAAAAAAAAAAAAAAAAAAAAAAAAAAAAAAAAAAAAAAAAAAAAAAAAAAAAAAAAAAAAAAAAAAAAAAAAAAAAAAAAAAAAAAAAAAAAAAAAAAAAAAAAAAAAAAAAAAAAAAAAAAAAAAAAAAAAAAAAAAAAAAAAAAAAAAAAAAAAAAAAAAAAAAAAAAAAAAAAAAAAAAAAAAAAAAAAAAAAAAAAAAAAAAAAAAAAAAAAAAAAAAAAAAAAAAAAAAAAAAAAAAAAAAAAAAAAAAAAAAAAAAAAAAAAAAAAAAAAAAAAAAAAAAAAAAAAAAAAAAAAAAAAAAAAAAAAAAAAAAAAAAAAAAAAAAAAAAAAAAAAAAAAAAAAAAAAAAAAAAAAAAAAAAAAAAAAAAAAAAAAAAAAAAAAAAAAAAAAAAAAAAAAAAAAAAAAAAAAAAAAAAAAAAAAAAAAAAAAAAAAAAAAAAAAAAAAAAAAAAAAAAAAAAAAAAAAAAAAAAAAAAAAAAAAAAAAAAAAAAAAAAAAAAAAAAAAAAAAAAAAAAAAAAAAAAAAAAAAAAAAAAAAAAAAAAAAAAAAAAAAAAAAAAAAAAAAAAAAAAAAAAAAAAAAAAAAAAAAAAAAAAAAAAAAAAAAAAAAAAAAAAAAAAAAAAAAAAAAAAAAAAAAAAAAAAAAAAAAAAAAAAAAAAAAAAAAAAAAAAAAAAAAAAAAAAAAAAAAAAAAAAAAAAAAAAAAAAAAAAAAAAAAAAAAAAAAAAAAAAAAAAAAAAAAAAAAAAAAAAAAAAAAAAAAAAAAAAAAAAAAAAAAAAAAAAAAAAAAAAAAAAAAAAAAAAAAAAAAAAAAAAAAAAAAAAAAAAAAAAAAAAAAAAAAAAAAAAAAAAAAAAAAAAAAAAAAAAAAAAAAAAAAAAAAAAAAAAAAAAAAAAAAAAAAAAAAAAAAAAAAAAAAAAAAAAAAAAAAAAAAAAAAAAAAAAAAAAAAAAAAAAAAAAAAAAAAAAAAAAAAAAAAAAAAAAAAAAAAAAAAAAAAAAAAAAAAAAAAAAAAAAAAAAAAAAAAAAAAAAAAAAAAAAAAAAAAAAAAAAAAAAAAAAAAAAAAAAAAAAAAAAAAAAAAAAAAAAAAAAAAAAAAAAAAAAAAAAAAAAAAAAAAAAAAAAAAAAAAAAAAAAAAAAAAAAAAAAAAAAAAAAAAAAAAAAAAAAAAAAAAAAAAAAAAAAAAAAAAAAAAAAAAAAAAAAAAAAAAAAAAAAAAAAAAAAAAAAAAAAAAAAAAAAAAAAAAAAAAAAAAAAAAAAAAAAAAAAAAAAAAAAAAAAAAAAAAAAAAAAAAAAAAAAAAAAAAAAAAAAAAAAAAAAAAAAAAAAAAAAAAAAAAAAAAAAAAAAAAAAAAAAAAAAAAAAAAAAAAAAAAAAAAAAAAAAAAAAAAAAAAAAAAAAAAAAAAAAAAAAAAAAAAAAAAAAAAAAAAAAAAAAAAAAAAAAAAAAAAAAAAAAAAAAAAAAAAAAAAAAAAAAAAAAAAAAAAAAAAAAAAAAAAAAAAAAAAAAAAAAAAAAAAAAAAAAAAAAAAAAAAAAAAAAAAAAAAAAAAAAAAAAAAAAAAAAAAAAAAAAAAAAAAAAAAAAAAAAAAAAAAAAAAAAAAAAAAAAAAAAAAAAAAAAAAAAAAAAAAAAAAAAAAAAAAAAAAAAAAAAAAAAAAAAAAAAAAAAAAAAAAAAAAAAAAAAAAAAAAAAAAAAAAAAAAAAAAAAAAAAAAAAAAAAAAAAAAAAAAAAAAAAAAAAAAAAAAAAAAAAAAAAAAAAAAAAAAAAAAAAAAAAAAAAAAAAAAAAAAAAAAAAAAAAAAAAAAAAAAAAAAAAAAAAAAAAAAAAAAAAAAAAAAAAAAAAAAAAAAAAAAAAAAAAAAAAAAAAAAAAAAAAAAAAAAAAAAAAAAAAAAAAAAAAAAAAAAAAAAAAAAAAAAAAAAAAAAAAAAAAAAAAAAAAAAAAAAAAAAAAAAAAAAAAAAAAAAAAAAAAAAAAAAAAAAAAAAAAAAAAAAAAAAAAAAAAAAAAAAAAAAAAAAAAAAAAAAAAAAAAAAAAAAAAAAAAAAAAAAAAAAAAAAAAAAAAAAAAAAAAAAAAAAAAAAAAAAAAAAAAAAAAAAAAAAAAAAAAAAAAAAAAAAAAAAAAAAAAAAAAAAAAAAAAAAAAAAAAAAAAAAAAAAAAAAAAAAAAAAAAAAAAAAAAAAAAAAAAAAAAAAAAAAAAAAAAAAAAAAAAAAAAAAAAAAAAAAAAAAAAAAAAAAAAAAAAAAAAAAAAAAAAAAAAAAAAAAAAAAAAAAAAAAAAAAAAAAAAAAAAAAAAAAAAAAAAAAAAAAAAAAAAAAAAAAAAAAAAAAAAAAAAAAAAAAAAAAAAAAAAAAAAAAAAAAAAAAAAAAAAAAAAAAAAAAAAAAAAAAAAAAAAAAAAAAAAAAAAAAAAAAAAAAAAAAAAAAAAAAAAAAAAAAAAAAAAAAAAAAAAAAAAAAAAAAAAAAAAAAAAAAAAAAAAAAAAAAAAAAAAAAAAAAAAAAAAAAAAAAAAAAAAAAAAAAAAAAAAAAAAAAAAAAAAAAAAAAAAAAAAAAAAAAAAAAAAAAAAAAAAAAAAAAAAAAAAAAAAAAAAAAAAAAAAAAAAAAAAAAAAAAAAAAAAAAAAAAAAAAAAAAAAAAAAAAAAAAAAAAAAAAAAAAAAAAAAAAAAAAAAAAAAAAAAAAAAAAAAAAAAAAAAAAAAAAAAAAAAAAAAAAAAAAAAAAAAAAAAAAAAAAAAAAAAAAAAAAAAAAAAAAAAAAAAAAAAAAAAAAAAAAAAAAAAAAAAAAAAAAAAAAAAAAAAAAAAAAAAAAAAAAAAAAAAAAAAAAAAAAAAAAAAAAAAAAAAAAAAAAAAAAAAAAAAAAAAAAAAAAAAAAAAAAAAAAAAAAAAAAAAAAAAAAAAAAAAAAAAAAAAAAAAAAAAAAAAAAAAAAAAAAAAAAAAAAAAAAAAAAAAAAAAAAAAAAAAAAAAAAAAAAAAAAAAAAAAAAAAAAAAAAAAAAAAAAAAAAAAAAAAAAAAAAAAAAAAAAAAAAAAAAAAAAAAAAAAAAAAAAAAAAAAAAAAAAAAAAAAAAAAAAAAAAAAAAAAAAAAAAAAAAAAAAAAAAAAAAAAAAAAAAAAAAAAAAAAAAAAAAAAAAAAAAAAAAAAAAAAAAAAAAAAAAAAAAAAAAAAAAAAAAAAAAAAAAAAAAAAAAAAAAAAAAAAAAAAAAAAAAAAAAAAAAAAAAAAAAAAAAAAAAAAAAAAAAAAAAAAAAAAAAAAAAAAAAAAAAAAAAAAAAAAAAAAAAAAAAAAAAAAAAAAAAAAAAAAAAAAAAAAAAAAAAAAAAAAAAAAAAAAAAAAAAAAAAAAAAAAAAAAAAAAAAAAAAAAAAAAAAAAAAAAAAAAAAAAAAAAAAAAAAAAAAAAAAAAAAAAAAAAAAAAAAAAAAAAAAAAAAAAAAAAAAAAAAAAAAAAAAAAAAAAAAAAAAAAAAAAAAAAAAAAAAAAAAAAAAAAAAAAAAAAAAAAAAAAAAAAAAAAAAAAAAAAAAAAAAAAAAAAAAAAAAAAAAAAAAAAAAAAAAAAAAAAAAAAAAAAAAAAAAAAAAAAAAAAAAAAAAAAAAAAAAAAAAAAAAAAAAAAAAAAAAAAAAAAAAAAAAAAAAAAAAAAAAAAAAAAAAAAAAAAAAAAAAAAAAAAAAAAAAAAAAAAAAAAAAAAAAAAAAAAAAAAAAAAAAAAAAAAAAAAAAAAAAAAAAAAAAAAAAAAAAAAAAAAAAAAAAAAAAAAAAAAAAAAAAAAAAAAAAAAAAAAAAAAAAAAAAAAAAAAAAAAAAAAAAAAAAAAAAAAAAAAAAAAAAAAAAAAAAAAAAAAAAAAAAAAAAAAAAAAAAAAAAAAAAAAAAAAAAAAAAAAAAAAAAAAAAAAAAAAAAAAAAAAAAAAAAAAAAAAAAAAAAAAAPZYQGERC0uYfhSMKpwHGUlv0pCI8n0teYUMafrXbCgRyknT5tVV8bbCBbgkG1HIvE4haRuELtRFXYUi1SNliSc4ahg=</c2pa:manifest></metadata><title>Triceps extension</title><path d="M-7.2 140 L219.7 140" stroke="#cfd8cb" stroke-width="5.13" stroke-linecap="round" fill="none"/><path d="M102.3 82.3 L105.6 112.2 L116.5 111.8 L117.7 81.7 Z" fill="#cdd9c7" opacity="1.0"/><circle cx="110.0" cy="82.0" r="7.8" fill="#cdd9c7" opacity="1.0"/><circle cx="111.0" cy="112.0" r="5.5" fill="#cdd9c7" opacity="1.0"/><path d="M105.5 112.0 L107.3 140.0 L114.8 140.0 L116.5 112.0 Z" fill="#cdd9c7" opacity="1.0"/><circle cx="111.0" cy="112.0" r="5.5" fill="#cdd9c7" opacity="1.0"/><circle cx="111.0" cy="140.0" r="3.8" fill="#cdd9c7" opacity="1.0"/><path d="M111.0 144.2 L123.0 143.0 L123.0 137.0 L111.0 135.8 Z" fill="#bdcbb7" opacity="1.0"/><circle cx="111.0" cy="140.0" r="4.2" fill="#bdcbb7" opacity="1.0"/><circle cx="123.0" cy="140.0" r="3.0" fill="#bdcbb7" opacity="1.0"/><path d="M101.3 82.3 L104.0 97.2 L117.0 96.8 L118.7 81.7 Z" fill="#bdcbb7" opacity="1.0"/><circle cx="110.0" cy="82.0" r="8.8" fill="#bdcbb7" opacity="1.0"/><circle cx="110.5" cy="97.0" r="6.5" fill="#bdcbb7" opacity="1.0"/><path d="M115.5 42.2 L115.1 18.2 L106.6 17.9 L104.5 41.8 Z" fill="#cdd9c7" opacity="1.0"/><circle cx="110.0" cy="42.0" r="5.5" fill="#cdd9c7" opacity="1.0"/><circle cx="110.8" cy="18.0" r="4.2" fill="#cdd9c7" opacity="1.0"/><path d="M113.1 14.4 L93.9 3.6 L90.5 9.1 L108.6 21.6 Z" fill="#cdd9c7" opacity="1.0"/><circle cx="110.8" cy="18.0" r="4.2" fill="#cdd9c7" opacity="1.0"/><circle cx="92.2" cy="6.4" r="3.2" fill="#cdd9c7" opacity="1.0"/><circle cx="92.2" cy="6.4" r="4.2" fill="#cdd9c7" opacity="1.0"/><path d="M116.5 42.2 L115.4 30.2 L105.4 29.9 L103.5 41.8 Z" fill="#bdcbb7" opacity="1.0"/><circle cx="110.0" cy="42.0" r="6.5" fill="#bdcbb7" opacity="1.0"/><circle cx="110.4" cy="30.0" r="5.0" fill="#bdcbb7" opacity="1.0"/><path d="M118.0 82.0 L120.0 42.0 L100.0 42.0 L102.0 82.0 Z" fill="#bdcbb7" opacity="1.0"/><circle cx="110.0" cy="82.0" r="8.0" fill="#bdcbb7" opacity="1.0"/><circle cx="110.0" cy="42.0" r="10.0" fill="#bdcbb7" opacity="1.0"/><path d="M118.5 82.0 L118.5 73.2 L101.5 73.2 L101.5 82.0 Z" fill="#bdcbb7" opacity="1.0"/><circle cx="110.0" cy="82.0" r="8.5" fill="#bdcbb7" opacity="1.0"/><circle cx="110.0" cy="73.2" r="8.5" fill="#bdcbb7" opacity="1.0"/><path d="M102.3 81.7 L103.5 111.8 L114.4 112.2 L117.7 82.3 Z" fill="#cdd9c7" opacity="1.0"/><circle cx="110.0" cy="82.0" r="7.8" fill="#cdd9c7" opacity="1.0"/><circle cx="109.0" cy="112.0" r="5.5" fill="#cdd9c7" opacity="1.0"/><path d="M103.5 112.0 L105.2 140.0 L112.7 140.0 L114.5 112.0 Z" fill="#cdd9c7" opacity="1.0"/><circle cx="109.0" cy="112.0" r="5.5" fill="#cdd9c7" opacity="1.0"/><circle cx="109.0" cy="140.0" r="3.8" fill="#cdd9c7" opacity="1.0"/><path d="M109.0 144.2 L121.0 143.0 L121.0 137.0 L109.0 135.8 Z" fill="#bdcbb7" opacity="1.0"/><circle cx="109.0" cy="140.0" r="4.2" fill="#bdcbb7" opacity="1.0"/><circle cx="121.0" cy="140.0" r="3.0" fill="#bdcbb7" opacity="1.0"/><path d="M101.3 81.7 L103.0 96.8 L116.0 97.2 L118.7 82.3 Z" fill="#bdcbb7" opacity="1.0"/><circle cx="110.0" cy="82.0" r="8.8" fill="#bdcbb7" opacity="1.0"/><circle cx="109.5" cy="97.0" r="6.5" fill="#bdcbb7" opacity="1.0"/><path d="M115.5 41.8 L113.4 17.9 L104.9 18.2 L104.5 42.2 Z" fill="#cdd9c7" opacity="1.0"/><circle cx="110.0" cy="42.0" r="5.5" fill="#cdd9c7" opacity="1.0"/><circle cx="109.2" cy="18.0" r="4.2" fill="#cdd9c7" opacity="1.0"/><path d="M111.2 14.3 L91.3 4.8 L88.2 10.6 L107.2 21.8 Z" fill="#cdd9c7" opacity="1.0"/><circle cx="109.2" cy="18.0" r="4.2" fill="#cdd9c7" opacity="1.0"/><circle cx="89.7" cy="7.7" r="3.2" fill="#cdd9c7" opacity="1.0"/><circle cx="89.7" cy="7.7" r="4.2" fill="#cdd9c7" opacity="1.0"/><path d="M116.5 41.8 L114.6 29.9 L104.6 30.2 L103.5 42.2 Z" fill="#bdcbb7" opacity="1.0"/><circle cx="110.0" cy="42.0" r="6.5" fill="#bdcbb7" opacity="1.0"/><circle cx="109.6" cy="30.0" r="5.0" fill="#bdcbb7" opacity="1.0"/><path d="M114.2 42.0 L114.0 37.0 L106.0 37.0 L105.8 42.0 Z" fill="#cdd9c7" opacity="1.0"/><circle cx="110.0" cy="42.0" r="4.2" fill="#cdd9c7" opacity="1.0"/><circle cx="110.0" cy="37.0" r="4.0" fill="#cdd9c7" opacity="1.0"/><circle cx="110.0" cy="26.1" r="11.0" fill="#bdcbb7" opacity="1.0"/><circle cx="113.6" cy="27.5" r="9.3" fill="#cdd9c7" opacity="1.0"/><rect x="88.2" y="-2.6" width="8" height="18" rx="3.2" fill="#8a9c80" opacity="0.7"/><rect x="85.7" y="-1.3" width="8" height="18" rx="3.2" fill="#8a9c80" opacity="1.0"/><path d="M102.3 82.3 L105.6 112.2 L116.5 111.8 L117.7 81.7 Z" fill="#cfa87f" opacity="1.0"/><circle cx="110.0" cy="82.0" r="7.8" fill="#cfa87f" opacity="1.0"/><circle cx="111.0" cy="112.0" r="5.5" fill="#cfa87f" opacity="1.0"/><path d="M105.5 112.0 L107.3 140.0 L114.8 140.0 L116.5 112.0 Z" fill="#cfa87f" opacity="1.0"/><circle cx="111.0" cy="112.0" r="5.5" fill="#cfa87f" opacity="1.0"/><circle cx="111.0" cy="140.0" r="3.8" fill="#cfa87f" opacity="1.0"/><path d="M111.0 144.2 L123.0 143.0 L123.0 137.0 L111.0 135.8 Z" fill="#9cba76" opacity="1.0"/><circle cx="111.0" cy="140.0" r="4.2" fill="#9cba76" opacity="1.0"/><circle cx="123.0" cy="140.0" r="3.0" fill="#9cba76" opacity="1.0"/><path d="M101.3 82.3 L104.0 97.2 L117.0 96.8 L118.7 81.7 Z" fill="#1d3325" opacity="1.0"/><circle cx="110.0" cy="82.0" r="8.8" fill="#1d3325" opacity="1.0"/><circle cx="110.5" cy="97.0" r="6.5" fill="#1d3325" opacity="1.0"/><path d="M115.5 42.2 L115.1 18.2 L106.6 17.9 L104.5 41.8 Z" fill="#cfa87f" opacity="1.0"/><circle cx="110.0" cy="42.0" r="5.5" fill="#cfa87f" opacity="1.0"/><circle cx="110.8" cy="18.0" r="4.2" fill="#cfa87f" opacity="1.0"/><path d="M115.1 17.9 L113.3 -4.1 L106.8 -3.8 L106.6 18.2 Z" fill="#cfa87f" opacity="1.0"/><circle cx="110.8" cy="18.0" r="4.2" fill="#cfa87f" opacity="1.0"/><circle cx="110.1" cy="-4.0" r="3.2" fill="#cfa87f" opacity="1.0"/><circle cx="110.1" cy="-4.0" r="4.2" fill="#cfa87f" opacity="1.0"/><path d="M116.5 42.2 L115.4 30.2 L105.4 29.9 L103.5 41.8 Z" fill="#334d3c" opacity="1.0"/><circle cx="110.0" cy="42.0" r="6.5" fill="#334d3c" opacity="1.0"/><circle cx="110.4" cy="30.0" r="5.0" fill="#334d3c" opacity="1.0"/><path d="M118.0 82.0 L120.0 42.0 L100.0 42.0 L102.0 82.0 Z" fill="#41604b" opacity="1.0"/><circle cx="110.0" cy="82.0" r="8.0" fill="#41604b" opacity="1.0"/><circle cx="110.0" cy="42.0" r="10.0" fill="#41604b" opacity="1.0"/><path d="M118.5 82.0 L118.5 73.2 L101.5 73.2 L101.5 82.0 Z" fill="#26402f" opacity="1.0"/><circle cx="110.0" cy="82.0" r="8.5" fill="#26402f" opacity="1.0"/><circle cx="110.0" cy="73.2" r="8.5" fill="#26402f" opacity="1.0"/><path d="M102.3 81.7 L103.5 111.8 L114.4 112.2 L117.7 82.3 Z" fill="#e8c49e" opacity="1.0"/><circle cx="110.0" cy="82.0" r="7.8" fill="#e8c49e" opacity="1.0"/><circle cx="109.0" cy="112.0" r="5.5" fill="#e8c49e" opacity="1.0"/><path d="M103.5 112.0 L105.2 140.0 L112.7 140.0 L114.5 112.0 Z" fill="#e8c49e" opacity="1.0"/><circle cx="109.0" cy="112.0" r="5.5" fill="#e8c49e" opacity="1.0"/><circle cx="109.0" cy="140.0" r="3.8" fill="#e8c49e" opacity="1.0"/><path d="M109.0 144.2 L121.0 143.0 L121.0 137.0 L109.0 135.8 Z" fill="#b9d492" opacity="1.0"/><circle cx="109.0" cy="140.0" r="4.2" fill="#b9d492" opacity="1.0"/><circle cx="121.0" cy="140.0" r="3.0" fill="#b9d492" opacity="1.0"/><path d="M101.3 81.7 L103.0 96.8 L116.0 97.2 L118.7 82.3 Z" fill="#26402f" opacity="1.0"/><circle cx="110.0" cy="82.0" r="8.8" fill="#26402f" opacity="1.0"/><circle cx="109.5" cy="97.0" r="6.5" fill="#26402f" opacity="1.0"/><path d="M115.5 41.8 L113.4 17.9 L104.9 18.2 L104.5 42.2 Z" fill="#e8c49e" opacity="1.0"/><circle cx="110.0" cy="42.0" r="5.5" fill="#e8c49e" opacity="1.0"/><circle cx="109.2" cy="18.0" r="4.2" fill="#e8c49e" opacity="1.0"/><path d="M113.4 18.2 L113.2 -3.8 L106.7 -4.1 L104.9 17.9 Z" fill="#e8c49e" opacity="1.0"/><circle cx="109.2" cy="18.0" r="4.2" fill="#e8c49e" opacity="1.0"/><circle cx="109.9" cy="-4.0" r="3.2" fill="#e8c49e" opacity="1.0"/><circle cx="109.9" cy="-4.0" r="4.2" fill="#e8c49e" opacity="1.0"/><path d="M116.5 41.8 L114.6 29.9 L104.6 30.2 L103.5 42.2 Z" fill="#41604b" opacity="1.0"/><circle cx="110.0" cy="42.0" r="6.5" fill="#41604b" opacity="1.0"/><circle cx="109.6" cy="30.0" r="5.0" fill="#41604b" opacity="1.0"/><path d="M114.2 42.0 L114.0 37.0 L106.0 37.0 L105.8 42.0 Z" fill="#e8c49e" opacity="1.0"/><circle cx="110.0" cy="42.0" r="4.2" fill="#e8c49e" opacity="1.0"/><circle cx="110.0" cy="37.0" r="4.0" fill="#e8c49e" opacity="1.0"/><circle cx="110.0" cy="26.1" r="11.0" fill="#2a3b2e" opacity="1.0"/><circle cx="113.6" cy="27.5" r="9.3" fill="#e8c49e" opacity="1.0"/><rect x="106.1" y="-13.0" width="8" height="18" rx="3.2" fill="#8a9c80" opacity="0.7"/><rect x="105.9" y="-13.0" width="8" height="18" rx="3.2" fill="#8a9c80" opacity="1.0"/><path d="M86.4 9.8 A24 24 0 0 1 114.2 -9.6" fill="none" stroke="#7d9a6e" stroke-width="3.2" stroke-linecap="round"/><path d="M105.1 -6.7 L114.2 -9.6 L106.7 -15.5" fill="none" stroke="#7d9a6e" stroke-width="3.2" stroke-linecap="round" stroke-linejoin="round" opacity="1.0"/></svg>